<svg width="112" height="112" viewBox="0 0 112 112" fill="none" xmlns="http://www.w3.org/2000/svg">
<g clip-path="url(#clip0)">
<path d="M34.4888 22.4468C33.5204 22.4468 32.7351 23.2319 32.7351 24.2006C32.7351 26.3279 31.0044 28.0586 28.877 28.0586C26.7497 28.0586 25.0189 26.3279 25.0189 24.2006C25.0189 22.0732 26.7497 20.3425 28.877 20.3425C29.8454 20.3425 30.6307 19.5574 30.6307 18.5887C30.6307 17.6201 29.8457 16.835 28.877 16.835C24.8157 16.835 21.5117 20.1392 21.5117 24.2003C21.5117 28.2614 24.8159 31.5656 28.877 31.5656C32.9381 31.5656 36.2423 28.2614 36.2423 24.2003C36.2426 23.2319 35.4573 22.4468 34.4888 22.4468Z" fill="#FEE21F"/>
<path d="M34.4888 43.0229C33.5204 43.0229 32.7351 43.808 32.7351 44.7766C32.7351 46.9039 31.0044 48.6347 28.877 48.6347C26.7497 48.6347 25.0189 46.9039 25.0189 44.7766C25.0189 42.6493 26.7497 40.9185 28.877 40.9185C29.8454 40.9185 30.6307 40.1334 30.6307 39.1648C30.6307 38.1962 29.8457 37.4111 28.877 37.4111C24.8157 37.4111 21.5117 40.7153 21.5117 44.7764C21.5117 48.8375 24.8159 52.1417 28.877 52.1417C32.9381 52.1417 36.2423 48.8375 36.2423 44.7764C36.2426 43.8082 35.4573 43.0229 34.4888 43.0229Z" fill="#FEE21F"/>
<path d="M55.0649 46.7642H41.971C41.0026 46.7642 40.2173 47.5493 40.2173 48.5179C40.2173 49.4865 41.0024 50.2716 41.971 50.2716H55.0649C56.0334 50.2716 56.8187 49.4865 56.8187 48.5179C56.8187 47.5493 56.0336 46.7642 55.0649 46.7642Z" fill="#FEE21F"/>
<path d="M55.0649 39.2818H41.971C41.0026 39.2818 40.2173 40.0669 40.2173 41.0355C40.2173 42.0041 41.0024 42.7892 41.971 42.7892H55.0649C56.0334 42.7892 56.8187 42.0041 56.8187 41.0355C56.8187 40.0669 56.0336 39.2818 55.0649 39.2818Z" fill="#FEE21F"/>
<path d="M51.3239 67.3402H41.971C41.0026 67.3402 40.2173 68.1253 40.2173 69.0939C40.2173 70.0626 41.0024 70.8476 41.971 70.8476H51.3239C52.2923 70.8476 53.0776 70.0626 53.0776 69.0939C53.0776 68.1253 52.2923 67.3402 51.3239 67.3402Z" fill="#FEE21F"/>
<path d="M55.0649 59.8581H41.971C41.0026 59.8581 40.2173 60.6432 40.2173 61.6118C40.2173 62.5804 41.0024 63.3655 41.971 63.3655H55.0649C56.0334 63.3655 56.8187 62.5804 56.8187 61.6118C56.8187 60.6432 56.0336 59.8581 55.0649 59.8581Z" fill="#FEE21F"/>
<path d="M71.9002 26.1879H41.971C41.0026 26.1879 40.2173 26.973 40.2173 27.9416C40.2173 28.9102 41.0024 29.6953 41.971 29.6953H71.8999C72.8683 29.6953 73.6537 28.9102 73.6537 27.9416C73.6537 26.973 72.8686 26.1879 71.9002 26.1879Z" fill="#FEE21F"/>
<path d="M64.4178 18.7056H41.971C41.0026 18.7056 40.2173 19.4907 40.2173 20.4593C40.2173 21.4279 41.0024 22.213 41.971 22.213H64.4178C65.3862 22.213 66.1715 21.4279 66.1715 20.4593C66.1715 19.4907 65.3864 18.7056 64.4178 18.7056Z" fill="#FEE21F"/>
<path d="M34.4888 63.5992C33.5204 63.5992 32.7351 64.3843 32.7351 65.3529C32.7351 67.4802 31.0044 69.211 28.877 69.211C26.7497 69.211 25.0189 67.4802 25.0189 65.3529C25.0189 63.2256 26.7497 61.4948 28.877 61.4948C29.8454 61.4948 30.6307 60.7097 30.6307 59.7411C30.6307 58.7725 29.8457 57.9874 28.877 57.9874C24.8157 57.9874 21.5117 61.2916 21.5117 65.3527C21.5117 69.4138 24.8159 72.718 28.877 72.718C32.9381 72.718 36.2423 69.4138 36.2423 65.3527C36.2426 64.3843 35.4573 63.5992 34.4888 63.5992Z" fill="#FEE21F"/>
<path d="M79.382 0H15.7829C12.7532 0 10.2881 2.46487 10.2881 5.49478V84.0584C10.2881 87.0883 12.753 89.5532 15.7829 89.5532H47.5826C48.551 89.5532 49.3363 88.7681 49.3363 87.7995C49.3363 86.8311 48.5512 86.0457 47.5826 86.0457H15.7829C14.6869 86.0457 13.7953 85.1541 13.7953 84.0582V5.49478C13.7953 4.39884 14.6869 3.50722 15.7829 3.50722H79.382C80.478 3.50722 81.3696 4.39884 81.3696 5.49478V63.4826C81.3696 64.451 82.1547 65.2363 83.1233 65.2363C84.0917 65.2363 84.877 64.4512 84.877 63.4826V5.49478C84.8768 2.46487 82.4119 0 79.382 0Z" fill="#FEE21F"/>
<path d="M95.9393 71.1143C94.3094 70.9518 92.6804 71.4138 91.391 72.3927C90.364 70.6694 88.6127 69.4468 86.5864 69.2438C84.9561 69.0815 83.3273 69.5435 82.0382 70.5222C81.0111 68.7988 79.2598 67.5763 77.2335 67.3733C75.9888 67.249 74.7459 67.4888 73.6537 68.0446V45.712C73.6537 43.8988 72.8824 42.1606 71.5368 40.9432C70.1926 39.727 68.3812 39.1333 66.5666 39.3149C63.3293 39.639 60.7936 42.5661 60.7936 45.9789V68.3679L55.6385 73.523C52.8991 76.2624 51.7933 80.1491 52.6808 83.9204L56.5945 100.553C58.1802 107.293 64.1234 112 71.0473 112H86.8644C95.0514 112 101.712 105.34 101.712 97.1528V77.7788C101.712 74.3656 99.1766 71.4385 95.9393 71.1143ZM98.2049 97.1523C98.2049 103.405 93.1176 108.493 86.8647 108.493H71.0475C65.7592 108.493 61.2197 104.897 60.0085 99.7496L56.0948 83.1165C55.4876 80.5363 56.2443 77.8768 58.1185 76.0025L60.7936 73.3274V79.382C60.7936 80.3504 61.5787 81.1357 62.5473 81.1357C63.5159 81.1357 64.301 80.3506 64.301 79.382V45.9786C64.301 44.3457 65.4497 42.9514 66.9164 42.8048C67.7588 42.7201 68.5645 42.9831 69.184 43.5439C69.7958 44.0976 70.1467 44.8879 70.1467 45.7122V76.5765C70.1467 77.5449 70.9318 78.3302 71.9004 78.3302C72.869 78.3302 73.6541 77.5451 73.6541 76.5765V73.7706C73.6541 72.9464 74.0048 72.156 74.6168 71.6024C75.2368 71.0415 76.042 70.7783 76.8844 70.8632C78.3509 71.01 79.4998 72.4043 79.4998 74.0373V78.4466C79.4998 79.415 80.2849 80.2003 81.2535 80.2003C82.2219 80.2003 83.0072 79.4152 83.0072 78.4466V75.6407C83.0072 74.8164 83.3579 74.0261 83.9699 73.4724C84.5899 72.9116 85.3953 72.6486 86.2375 72.7333C87.704 72.8801 88.8529 74.2744 88.8529 75.9073V80.3169C88.8529 81.2853 89.638 82.0706 90.6066 82.0706C91.575 82.0706 92.3603 81.2855 92.3603 80.3169V77.511C92.3603 76.6868 92.711 75.8964 93.323 75.3428C93.943 74.7821 94.7478 74.5187 95.5906 74.6038C97.0571 74.7504 98.206 76.1447 98.206 77.7777V97.1523H98.2049Z" fill="#FF33EB"/>
</g>
<defs>
<clipPath id="clip0">
<rect width="112" height="112" fill="white"/>
</clipPath>
</defs>
</svg>
