<svg width="148" height="148" viewBox="0 0 148 148" fill="none" xmlns="http://www.w3.org/2000/svg">
<mask id="mask0" mask-type="alpha" maskUnits="userSpaceOnUse" x="0" y="19" width="148" height="110">
<path d="M130.575 68.583C125.539 66.0652 116.097 66.036 115.698 66.036C114.5 66.036 113.53 67.0067 113.53 68.204C113.53 69.4013 114.5 70.372 115.698 70.372C118.134 70.3723 125.208 70.7475 128.636 72.4613C128.948 72.6171 129.278 72.6905 129.604 72.6905C130.399 72.6905 131.165 72.2512 131.545 71.4918C132.081 70.4208 131.646 69.1186 130.575 68.583Z" fill="black"/>
<path d="M141.384 99.4494L132.43 96.8912C132.044 96.7807 131.774 96.4229 131.774 96.0208V93.0322C132.502 92.5275 133.197 91.9626 133.847 91.3322C136.995 88.2774 138.728 84.1799 138.728 79.7943V75.6702L139.594 73.939C140.544 72.0384 141.046 69.9107 141.046 67.786V56.6138C141.046 55.4165 140.075 54.4458 138.878 54.4458H118.016C110.429 54.4458 104.257 60.6179 104.257 68.204V68.3332C104.257 70.1 104.675 71.8693 105.465 73.4494L106.575 75.6699V79.211C106.575 84.8228 109.341 89.858 113.53 92.8879L113.53 96.0202C113.53 96.5032 113.53 96.7033 111.74 97.2149L107.371 98.4631L94.733 93.8676C94.7784 93.2712 94.5772 92.6648 94.1422 92.2078L90.1037 87.9649V80.8424C90.5306 80.4906 90.9515 80.1293 91.3594 79.7472C96.4541 74.9718 99.3759 68.2298 99.3759 61.2498V55.5616C100.914 52.214 101.694 48.6715 101.694 45.0232V21.8433C101.694 20.646 100.723 19.6754 99.526 19.6754H67.0732C55.6523 19.6754 46.361 28.967 46.361 40.3875V45.0238C46.361 48.6721 47.1406 52.2145 48.679 55.5622V60.4563C48.679 68.5604 52.2824 75.8616 57.9512 80.6751V87.9652L53.9128 92.2081C53.4777 92.6651 53.2765 93.2715 53.3219 93.8679L39.9831 98.718C39.0165 99.0695 38.1184 99.5456 37.3029 100.122L35.2084 99.075C41.4435 96.361 43.4186 92.544 43.5134 92.3543C43.8187 91.7441 43.8187 91.0255 43.5134 90.4153C41.9505 87.2894 41.7612 81.5599 41.6091 76.9563C41.5585 75.4236 41.5105 73.9757 41.4189 72.6865C40.6798 62.2878 32.7745 54.4458 23.0302 54.4458C13.2859 54.4458 5.38032 62.2875 4.64148 72.6865C4.54984 73.976 4.50186 75.4239 4.45127 76.9568C4.29923 81.5602 4.1096 87.2891 2.54693 90.415C2.24168 91.0252 2.24168 91.7438 2.54693 92.354C2.64174 92.5437 4.61286 96.3529 10.8604 99.0701L5.04241 101.979C1.93209 103.535 0 106.661 0 110.139V126.155C0 127.353 0.970672 128.323 2.16797 128.323C3.36527 128.323 4.33594 127.353 4.33594 126.155V110.139C4.33594 108.314 5.34968 106.674 6.98144 105.858L14.2262 102.235L16.7463 104.63C18.5084 106.305 20.7689 107.142 23.0302 107.142C25.2909 107.142 27.5526 106.304 29.3141 104.63L31.8339 102.236L34.1961 103.417C33.0838 105.197 32.4525 107.284 32.4525 109.47V126.156C32.4525 127.353 33.4231 128.324 34.6204 128.324C35.8177 128.324 36.7884 127.353 36.7884 126.156V109.47C36.7884 106.494 38.6676 103.81 41.4649 102.793L55.5283 97.6794L61.3827 106.461C62.1311 107.584 63.3304 108.304 64.6731 108.437C64.8228 108.452 64.9717 108.459 65.1203 108.459C66.3049 108.459 67.4394 107.993 68.2875 107.145L71.8592 103.573V126.156C71.8592 127.353 72.8299 128.324 74.0272 128.324C75.2245 128.324 76.1951 127.353 76.1951 126.156V103.573L79.7668 107.145C80.6146 107.993 81.7492 108.459 82.9341 108.459C83.0823 108.459 83.2315 108.452 83.3809 108.437C84.7239 108.305 85.9233 107.584 86.6716 106.462L92.5263 97.68L106.589 102.794C109.386 103.811 111.266 106.494 111.266 109.47V126.156C111.266 127.354 112.237 128.324 113.434 128.324C114.631 128.324 115.602 127.354 115.602 126.156V109.47C115.602 106.456 114.404 103.629 112.395 101.538L112.931 101.385C113.471 101.231 114.208 101.02 114.948 100.657L120.484 106.192V126.156C120.484 127.354 121.454 128.324 122.652 128.324C123.849 128.324 124.819 127.354 124.819 126.156V106.192L130.316 100.695C130.609 100.844 130.916 100.969 131.239 101.061L140.193 103.62C142.236 104.204 143.664 106.096 143.664 108.222V126.156C143.664 127.354 144.635 128.324 145.832 128.324C147.029 128.324 148 127.354 148 126.156V108.222C148 104.17 145.279 100.563 141.384 99.4494ZM13.9082 95.6202C9.85299 94.161 7.81885 92.2156 6.95051 91.1533C7.54251 89.6056 7.92638 87.8331 8.18625 85.962C9.38181 88.8286 11.3841 91.2758 13.9082 93.0218V95.6202ZM26.3278 101.488C24.4787 103.244 21.582 103.244 19.7334 101.487L17.7172 99.5714C18.0574 98.934 18.2445 98.2113 18.2445 97.4543V95.1435C19.7568 95.6161 21.3646 95.8711 23.0308 95.8711C24.6949 95.8711 26.3018 95.615 27.8168 95.1449L27.8165 97.454C27.8165 98.2113 28.0032 98.9343 28.3437 99.5719L26.3278 101.488ZM23.0313 91.5351C16.5575 91.5351 11.2911 86.2684 11.2911 79.7949C11.2911 78.5976 10.3204 77.6269 9.1231 77.6269C9.0017 77.6269 8.88318 77.6393 8.76727 77.6587C8.77362 77.4722 8.7797 77.2855 8.78605 77.1008C8.83433 75.6101 8.88087 74.2021 8.96672 72.9944C9.24364 69.099 10.8002 65.5094 13.3498 62.8864C15.9221 60.2398 19.3603 58.7823 23.0308 58.7823C26.7013 58.7823 30.1391 60.2398 32.7118 62.8864C35.2613 65.5094 36.8179 69.099 37.0948 72.9944C37.1804 74.2018 37.2272 75.6095 37.2763 77.0999C37.2807 77.228 37.285 77.3578 37.2894 77.4867C34.9306 73.8526 31.2878 71.1744 26.581 69.6621C22.2327 68.265 18.4928 68.3515 18.3349 68.3555C17.7672 68.3714 17.2284 68.609 16.8344 69.0177L12.9228 73.0744C12.0918 73.9364 12.1166 75.3089 12.9786 76.1399C13.8406 76.971 15.2131 76.9459 16.0441 76.0842L19.299 72.7088C22.102 72.8458 31.1199 73.8945 34.6271 81.6174C33.7446 87.3084 28.8531 91.5351 23.0313 91.5351ZM32.1521 95.6274L32.1524 93.0417C34.6745 91.3053 36.6797 88.8627 37.8761 85.9744C38.136 87.8412 38.5196 89.6097 39.1104 91.1538C38.247 92.206 36.2033 94.1688 32.1521 95.6274ZM53.0149 60.456V55.0771C53.0149 54.7508 52.9412 54.4285 52.7993 54.1345C51.4043 51.2456 50.6969 48.1804 50.6969 45.0238V40.3878C50.6969 31.3578 58.0435 24.0116 67.0732 24.0116H97.358V45.0241C97.358 48.1807 96.6506 51.2459 95.2556 54.1348C95.1137 54.4288 95.04 54.7511 95.04 55.0774V61.2503C95.04 67.1215 92.6798 72.5671 88.3942 76.5842C87.8591 77.0855 87.3038 77.5555 86.7297 77.9934C86.717 78.0021 86.7049 78.0116 86.6924 78.0206C82.6777 81.0687 77.7601 82.5502 72.6246 82.2175C61.6284 81.5055 53.0149 71.9468 53.0149 60.456ZM65.2217 104.079C65.2067 104.094 65.1717 104.129 65.1009 104.122C65.0304 104.115 65.0026 104.074 64.9908 104.056L58.2484 93.9419L60.4181 91.662L70.6466 98.6536L65.2217 104.079ZM74.0275 95.7124L62.2872 87.6874V83.6405C65.3249 85.2827 68.7263 86.3097 72.344 86.5439C72.9154 86.5809 73.4834 86.5991 74.0497 86.5991C78.1952 86.5991 82.1848 85.6082 85.7677 83.7273V87.6874L74.0275 95.7124ZM83.0641 104.056C83.0523 104.074 83.0245 104.115 82.954 104.122C82.8832 104.131 82.8485 104.094 82.8332 104.079L77.4083 98.6544L87.6368 91.6626L89.8068 93.9424L83.0641 104.056ZM122.652 102.227L117.732 97.3074C117.818 96.9175 117.866 96.4905 117.866 96.0196L117.866 95.1048C119.231 95.5528 120.67 95.8187 122.159 95.8633C122.326 95.8685 122.491 95.8708 122.658 95.8708C124.303 95.8708 125.909 95.6222 127.438 95.1478V96.0208C127.438 96.4532 127.492 96.877 127.594 97.2843L122.652 102.227ZM130.827 88.2207C128.529 90.4506 125.494 91.6282 122.289 91.5293C116.015 91.3412 110.911 85.8152 110.911 79.2115V75.1586C110.911 74.8218 110.833 74.49 110.682 74.1891L109.343 71.5106C108.853 70.5292 108.593 69.4308 108.593 68.3335V68.2043C108.593 63.0087 112.82 58.782 118.016 58.782H136.71V67.7863C136.71 69.2415 136.366 70.6986 135.715 72.0003L134.621 74.1891C134.47 74.4903 134.392 74.8218 134.392 75.1586V79.7946C134.392 82.9974 133.126 85.9898 130.827 88.2207Z" fill="black"/>
<path d="M136.56 110.079C135.363 110.079 134.392 111.05 134.392 112.247V126.155C134.392 127.353 135.363 128.323 136.56 128.323C137.757 128.323 138.728 127.353 138.728 126.155V112.247C138.728 111.05 137.757 110.079 136.56 110.079Z" fill="black"/>
<path d="M11.4401 112.945C10.2428 112.945 9.2721 113.915 9.2721 115.113V126.155C9.2721 127.353 10.2428 128.323 11.4401 128.323C12.6374 128.323 13.608 127.353 13.608 126.155V115.113C13.608 113.916 12.6374 112.945 11.4401 112.945Z" fill="black"/>
<path d="M91.7867 45.8092C83.5871 37.6096 66.4315 39.1772 59.4356 40.2317C57.2321 40.5638 55.633 42.4286 55.633 44.6656V49.6601C55.633 50.8574 56.6037 51.828 57.801 51.828C58.9983 51.828 59.969 50.8574 59.969 49.6601V44.6654C59.969 44.5916 60.0175 44.5286 60.0823 44.5188C62.8766 44.0976 68.4217 43.4478 74.1668 43.8308C80.9274 44.2809 85.8242 45.978 88.7209 48.875C89.5675 49.7216 90.9403 49.7216 91.7867 48.875C92.6333 48.0283 92.6333 46.6556 91.7867 45.8092Z" fill="black"/>
<path d="M48.5292 114.715C47.3319 114.715 46.3612 115.686 46.3612 116.883V126.156C46.3612 127.353 47.3319 128.324 48.5292 128.324C49.7265 128.324 50.6972 127.353 50.6972 126.156V116.883C50.6972 115.686 49.7265 114.715 48.5292 114.715Z" fill="black"/>
<path d="M99.5263 114.715C98.329 114.715 97.3583 115.686 97.3583 116.883V126.156C97.3583 127.353 98.329 128.324 99.5263 128.324C100.724 128.324 101.694 127.353 101.694 126.156V116.883C101.694 115.686 100.724 114.715 99.5263 114.715Z" fill="black"/>
</mask>
<g mask="url(#mask0)">
<rect x="-36" y="18" width="236" height="112" fill="#FF33EB"/>
<path d="M32.3749 104.393L29.0713 130.161L54.8391 134.125L115.625 142.714L118.268 116.286L116.946 105.054L112.321 101.75L107.696 98.4464L95.1427 89.1964L101.089 65.4107L110.339 40.9643L103.732 13.2143L85.8927 9.25L47.5713 17.8393L40.3034 42.2857L46.2499 70.6964L52.1963 86.5536L45.5891 93.8214L37.6606 99.7679L34.357 103.071L32.3749 104.393Z" fill="#FEE21F"/>
</g>
</svg>
