<svg width="75" height="106" viewBox="0 0 75 106" fill="none" xmlns="http://www.w3.org/2000/svg">
<path d="M68 5.75V37.3375H64.5V5.75C64.5 5.28587 64.3156 4.84075 63.9874 4.51256C63.6592 4.18438 63.2141 4 62.75 4H58.865L58.1125 7.0275C57.8278 8.16247 57.172 9.16979 56.2494 9.8895C55.3268 10.6092 54.1901 11.0001 53.02 11H23.48C22.3099 11.0001 21.1732 10.6092 20.2506 9.8895C19.328 9.16979 18.6722 8.16247 18.3875 7.0275L17.635 4H13.75C13.2859 4 12.8408 4.18438 12.5126 4.51256C12.1844 4.84075 12 5.28587 12 5.75V34.5L8.5 35.5V5.75C8.50415 4.35889 9.05861 3.02595 10.0423 2.04228C11.0259 1.05861 12.3589 0.504155 13.75 0.5H62.75C64.1411 0.504155 65.4741 1.05861 66.4577 2.04228C67.4414 3.02595 67.9958 4.35889 68 5.75Z" fill="#FEE21F"/>
<path d="M10.0423 103.958C9.05861 102.974 8.50415 101.641 8.5 100.25V42.5L12 44.5V100.25C12 100.714 12.1844 101.159 12.5126 101.487C12.8408 101.816 13.2859 102 13.75 102H62.75C63.2141 102 63.6592 101.816 63.9874 101.487C64.3156 101.159 64.5 100.714 64.5 100.25V65.225H68V100.25C67.9958 101.641 67.4414 102.974 66.4577 103.958C65.4741 104.941 64.1411 105.496 62.75 105.5H13.75C12.3589 105.496 11.0259 104.941 10.0423 103.958Z" fill="#FEE21F"/>
<g clip-path="url(#clip0)">
<path d="M73.5909 36.9736L38.432 21.7381C37.8374 21.4804 37.1626 21.4804 36.568 21.7381L1.40916 36.9736C-0.469499 37.7876 -0.469938 40.4607 1.40916 41.2748L14.0608 46.7571V61.3914C14.0608 69.2775 24.3565 75.455 37.5 75.455C50.6436 75.455 60.9393 69.2775 60.9393 61.3914V46.7571L63.2832 45.7415V70.7671C63.2832 72.0615 64.3327 73.111 65.6271 73.111C66.9215 73.111 67.971 72.0615 67.971 70.7671V43.7102L73.5909 41.275C75.4695 40.4609 75.4698 37.7878 73.5909 36.9736ZM37.5 26.4432L66.7638 39.1243L64.4428 40.13L37.7907 36.7984C36.506 36.6388 35.3347 37.549 35.1741 38.8335C35.0136 40.1179 35.9248 41.2895 37.2092 41.45L55.9814 43.7966L37.5 51.8052C20.967 44.6408 24.4883 46.1667 8.23627 39.1241L37.5 26.4432ZM56.2514 61.3915C56.2514 63.6 54.4388 65.8737 51.2783 67.6295C43.7513 71.8112 31.2707 71.8235 23.7217 67.6295C20.5612 65.8737 18.7486 63.6 18.7486 61.3915V48.7887L36.568 56.5105C37.1616 56.7677 37.8362 56.7686 38.432 56.5105L56.2514 48.7887V61.3915Z" fill="#FF33EB"/>
</g>
<path d="M22.5 95H54V98.5H22.5V95Z" fill="#FF33EB"/>
<path d="M15.5 95H19V98.5H15.5V95Z" fill="#FF33EB"/>
<path d="M57.5 95H61V98.5H57.5V95Z" fill="#FF33EB"/>
<defs>
<clipPath id="clip0">
<rect width="75" height="75" fill="white" transform="translate(0 11)"/>
</clipPath>
</defs>
</svg>
