<svg width="585" height="655" viewBox="0 0 585 655" fill="none" xmlns="http://www.w3.org/2000/svg">
<g filter="url(#filter0_d)">
<path opacity="0.1" d="M58.6201 629.76L20.0901 607.52L270.54 462.92L309.07 485.16L58.6201 629.76Z" fill="black"/>
<path d="M45.58 587.72C45.58 587.72 45.16 573.81 39.2 562.55C33.24 551.29 24.38 543.82 15.65 542.39C6.92001 540.96 -0.849996 548.46 8.09 554.79C17.03 561.12 33.26 568.19 39.21 589.59L45.58 587.72Z" fill="#37474F"/>
<path d="M43.3 583.93H43.4C43.518 583.891 43.6162 583.807 43.6741 583.697C43.7319 583.587 43.7447 583.459 43.71 583.34C36.34 559.73 19.48 548.72 11.6 546.2C11.5409 546.181 11.4786 546.174 11.4167 546.179C11.3548 546.184 11.2945 546.201 11.2393 546.229C11.184 546.257 11.1349 546.296 11.0947 546.344C11.0545 546.391 11.024 546.446 11.005 546.505C10.9859 546.564 10.9787 546.626 10.9837 546.688C10.9887 546.75 11.0059 546.81 11.0342 546.866C11.0626 546.921 11.1015 546.97 11.1488 547.01C11.1961 547.05 11.2509 547.081 11.31 547.1C19.03 549.57 35.55 560.38 42.81 583.62C42.8437 583.72 42.9107 583.805 43 583.862C43.0892 583.918 43.1951 583.942 43.3 583.93Z" fill="white"/>
<path d="M0.260007 576.06C0.850007 577.82 2.61001 578.87 4.26001 579.72C5.91001 580.57 7.71001 581.49 8.49001 583.18C10.05 586.58 6.56001 590.83 8.27001 594.18C8.68134 594.85 9.22373 595.43 9.86468 595.885C10.5056 596.341 11.2319 596.662 12 596.83C13.2704 597.132 14.5554 597.369 15.85 597.54C16.4662 597.575 17.0838 597.575 17.7 597.54C19.5397 597.31 21.4037 597.697 23 598.64C25.43 600.32 25.92 603.64 27.24 606.28C28.0642 607.845 29.2176 609.214 30.6211 610.291C32.0245 611.368 33.6446 612.128 35.37 612.52C38.25 613.17 42.67 612.93 43.54 611.71C44.21 610.79 42.78 607.71 42.85 606.54C43.0284 603.624 42.9313 600.698 42.56 597.8C42.3381 596.479 42.2777 595.136 42.38 593.8C42.53 592.31 42.67 590.8 42.8 589.34C42.93 587.88 43.44 586.5 43.01 584.82C42.5276 583.237 41.8131 581.734 40.89 580.36C40.04 578.98 39.18 577.6 38.31 576.24C37.3359 574.584 36.1602 573.056 34.81 571.69C33.5891 570.556 32.1495 569.684 30.5795 569.127C29.0095 568.57 27.3423 568.34 25.68 568.45C22.93 568.65 20.14 569.92 17.37 569.53C14.6 569.14 12.08 568.18 9.29001 568.11C7.82059 568.012 6.34828 568.251 4.9847 568.807C3.62112 569.363 2.40208 570.222 1.42001 571.32C0.848263 571.951 0.442829 572.716 0.240308 573.543C0.0377874 574.371 0.0445579 575.236 0.260007 576.06Z" fill="#455A64"/>
<path d="M41.8201 604.27C41.8746 604.261 41.9268 604.242 41.9739 604.213C42.021 604.185 42.062 604.147 42.0945 604.102C42.127 604.058 42.1504 604.007 42.1634 603.954C42.1763 603.9 42.1786 603.844 42.1701 603.79C37.8001 577.87 11.5001 571.71 5.23006 571.57C5.11867 571.57 5.01184 571.614 4.93307 571.693C4.85431 571.772 4.81006 571.878 4.81006 571.99C4.81006 572.101 4.85431 572.208 4.93307 572.287C5.01184 572.366 5.11867 572.41 5.23006 572.41C11.3701 572.54 37.0901 578.57 41.3601 603.93C41.3796 604.034 41.4379 604.127 41.5232 604.19C41.6086 604.253 41.7146 604.282 41.8201 604.27Z" fill="white"/>
<path d="M13.4199 588.68C13.5053 588.672 13.586 588.637 13.6499 588.58C16.3133 586.68 19.3625 585.391 22.5807 584.803C25.7989 584.216 29.1071 584.344 32.2699 585.18C32.3231 585.193 32.3785 585.196 32.4327 585.187C32.4869 585.179 32.5388 585.159 32.5855 585.131C32.6321 585.102 32.6724 585.064 32.7041 585.019C32.7358 584.974 32.7582 584.923 32.7699 584.87C32.7832 584.817 32.7857 584.761 32.7773 584.707C32.7688 584.653 32.7495 584.601 32.7206 584.554C32.6917 584.508 32.6538 584.467 32.609 584.436C32.5642 584.404 32.5135 584.382 32.4599 584.37C29.1722 583.505 25.7341 583.377 22.391 583.994C19.0479 584.611 15.8823 585.958 13.1199 587.94C13.0361 588.012 12.9831 588.113 12.9719 588.223C12.9608 588.333 12.9923 588.443 13.0599 588.53C13.1044 588.581 13.16 588.621 13.2224 588.647C13.2848 588.673 13.3524 588.684 13.4199 588.68Z" fill="white"/>
<path d="M246.609 144.673H240.84V152.295H246.609V144.673Z" fill="#BA68C8"/>
<path opacity="0.15" d="M246.609 144.673H240.84V152.295H246.609V144.673Z" fill="black"/>
<path d="M45.9976 271.818L508.978 4.5202V346.068L45.9976 613.365V271.818Z" fill="#BA68C8"/>
<path opacity="0.15" d="M45.9976 271.818L508.978 4.5202V346.068L45.9976 613.365V271.818Z" fill="black"/>
<path d="M277.459 145.227L284.584 149.43C293.371 154.606 327.698 153.346 350.411 140.241L534.327 34.0331L502.197 15.4849L277.459 145.227Z" fill="white"/>
<path d="M534.365 34.0522L350.449 140.241C327.736 153.384 293.391 154.625 284.623 149.468L277.459 145.227V471.875L284.584 476.078C293.391 481.254 327.717 479.994 350.43 466.889L534.231 360.719H534.346L534.365 34.0522Z" fill="#FAFAFA"/>
<path d="M534.365 34.0522L350.449 140.241C327.736 153.384 293.391 154.625 284.623 149.468L277.459 145.227V471.875L284.584 476.078C293.391 481.254 327.717 479.994 350.43 466.889L534.346 360.681L534.365 34.0522Z" fill="#F5F5F5"/>
<path d="M348.481 141.407C325.826 153.518 293.085 154.549 284.623 149.544L277.459 145.227V471.875L284.584 476.078C293.142 481.102 325.788 480.051 348.462 467.959L348.481 141.407Z" fill="#EBEBEB"/>
<path d="M311.022 151.837C299.045 152.945 288.844 151.951 284.623 149.468L277.459 145.227V471.875L284.584 476.078C288.844 478.58 299.045 479.573 311.003 478.465L311.022 151.837Z" fill="#E0E0E0"/>
<path d="M284.107 149.143C292.894 154.339 290.945 174.702 268.271 187.882L85.1189 294.435L52.053 275.371L277.459 145.227L284.107 149.143Z" fill="white"/>
<path d="M52.1104 275.371L85.119 294.435V621.14L52.1104 602.076V275.371Z" fill="#E0E0E0"/>
<path d="M268.271 187.863L260.076 192.639L85.1189 294.435V621.083L268.271 514.511C284.909 504.846 288.901 496.402 288.959 488.857V157.739C288.921 169.621 281.757 179.477 268.271 187.863Z" fill="#F5F5F5"/>
<path d="M39.3501 267.902L45.9977 271.818V613.365L39.3501 609.526V267.902Z" fill="#BA68C8"/>
<path opacity="0.3" d="M39.3501 267.902L45.9977 271.818V613.365L39.3501 609.526V267.902Z" fill="black"/>
<path d="M39.3501 267.902L502.35 0.604248L508.978 4.5011L45.9977 271.818L39.3501 267.902Z" fill="#BA68C8"/>
<path d="M294.307 117.644C292.85 116.899 291.236 116.511 289.599 116.511C287.962 116.511 286.348 116.899 284.89 117.644L242.865 141.961C240.267 143.451 240.267 145.896 242.865 147.386L252.225 152.792L303.801 123.049L294.307 117.644Z" fill="#BA68C8"/>
<g opacity="0.3">
<path opacity="0.3" d="M107.45 317.663L260.057 229.506L264.355 227.004C265.387 226.403 266.267 225.574 266.929 224.581C267.591 223.588 268.018 222.456 268.176 221.273C268.176 219.363 266.437 218.828 264.355 220.089L260.057 222.591L107.45 310.71C106.399 311.299 105.5 312.122 104.82 313.116C104.141 314.11 103.701 315.248 103.534 316.44C103.629 318.37 105.31 318.905 107.45 317.663Z" fill="black"/>
<path opacity="0.3" d="M107.45 334.339L260.057 246.182L264.355 243.68C265.387 243.079 266.267 242.25 266.929 241.257C267.591 240.264 268.018 239.132 268.176 237.949C268.176 236.039 266.437 235.504 264.355 236.765L260.057 239.267L107.45 327.405C106.399 327.994 105.5 328.818 104.82 329.812C104.141 330.806 103.701 331.943 103.534 333.136C103.629 335.065 105.31 335.619 107.45 334.339Z" fill="black"/>
<path opacity="0.3" d="M107.45 351.054L260.076 262.897L264.374 260.394C265.406 259.794 266.286 258.965 266.948 257.972C267.611 256.978 268.037 255.847 268.195 254.664C268.195 252.754 266.457 252.219 264.374 253.479L260.076 256.02L107.45 344.1C106.399 344.689 105.5 345.513 104.82 346.507C104.141 347.501 103.701 348.639 103.534 349.831C103.629 351.76 105.31 352.314 107.45 351.054Z" fill="black"/>
<path opacity="0.3" d="M107.45 367.749L260.057 279.592L264.355 277.09C265.387 276.489 266.267 275.66 266.929 274.667C267.591 273.674 268.018 272.542 268.176 271.359C268.176 269.449 266.437 268.914 264.355 270.175L260.057 272.677L107.45 360.796C106.399 361.385 105.5 362.208 104.82 363.202C104.141 364.196 103.701 365.334 103.534 366.526C103.629 368.456 105.31 369.01 107.45 367.749Z" fill="black"/>
<path opacity="0.3" d="M107.45 384.444L260.057 296.287L264.355 293.785C265.387 293.184 266.267 292.355 266.929 291.362C267.591 290.369 268.018 289.238 268.176 288.054C268.176 286.144 266.437 285.609 264.355 286.87L260.057 289.372L107.45 377.491C106.399 378.08 105.5 378.904 104.82 379.898C104.141 380.892 103.701 382.029 103.534 383.222C103.629 385.151 105.31 385.705 107.45 384.444Z" fill="black"/>
<path opacity="0.3" d="M107.45 401.197L260.057 313.04L264.355 310.538C265.387 309.937 266.267 309.108 266.929 308.115C267.591 307.122 268.018 305.99 268.176 304.807C268.176 302.897 266.437 302.362 264.355 303.623L260.057 306.125L107.45 394.186C106.399 394.775 105.5 395.599 104.82 396.593C104.141 397.587 103.701 398.725 103.534 399.917C103.629 401.846 105.31 402.4 107.45 401.197Z" fill="black"/>
<path opacity="0.3" d="M107.45 417.835L260.057 329.678L264.355 327.176C265.386 326.574 266.265 325.745 266.927 324.752C267.589 323.759 268.016 322.628 268.176 321.445C268.176 319.535 266.437 318.981 264.355 320.242L260.057 322.744L107.45 410.882C106.399 411.471 105.5 412.294 104.82 413.288C104.141 414.282 103.701 415.42 103.534 416.612C103.629 418.542 105.31 419.096 107.45 417.835Z" fill="black"/>
<path opacity="0.3" d="M107.45 434.53L260.076 346.374L264.374 343.871C265.405 343.269 266.285 342.44 266.947 341.447C267.609 340.454 268.035 339.323 268.195 338.141C268.195 336.23 266.457 335.676 264.374 336.937L260.076 339.44L107.45 427.577C106.399 428.166 105.5 428.99 104.82 429.984C104.141 430.978 103.701 432.116 103.534 433.308C103.629 435.237 105.31 435.791 107.45 434.53Z" fill="black"/>
<path opacity="0.3" d="M107.45 451.226L260.076 362.993L264.374 360.49C265.405 359.888 266.285 359.059 266.947 358.066C267.609 357.073 268.035 355.942 268.195 354.76C268.195 352.849 266.457 352.295 264.374 353.556L260.076 356.058L107.45 444.272C106.399 444.861 105.5 445.685 104.82 446.679C104.141 447.673 103.701 448.811 103.534 450.003C103.629 451.932 105.31 452.486 107.45 451.226Z" fill="black"/>
<path opacity="0.3" d="M107.45 467.921L260.057 379.764L264.355 377.262C265.386 376.66 266.265 375.831 266.927 374.838C267.589 373.845 268.016 372.714 268.176 371.531C268.176 369.621 266.437 369.067 264.355 370.328L260.057 372.83L107.45 460.968C106.399 461.557 105.5 462.38 104.82 463.375C104.141 464.369 103.701 465.506 103.534 466.699C103.629 468.628 105.31 469.182 107.45 467.921Z" fill="black"/>
<path opacity="0.3" d="M107.45 484.616L260.057 396.46L264.355 393.957C265.386 393.355 266.266 392.526 266.928 391.533C267.59 390.54 268.017 389.409 268.176 388.227C268.176 386.316 266.438 385.762 264.355 387.023L260.057 389.526L107.45 477.606C106.417 478.206 105.536 479.034 104.874 480.028C104.212 481.021 103.786 482.153 103.629 483.337C103.629 485.247 105.31 485.877 107.45 484.616Z" fill="black"/>
<path opacity="0.3" d="M107.45 501.312L260.057 413.155L264.355 410.653C265.386 410.051 266.265 409.222 266.927 408.229C267.589 407.236 268.016 406.105 268.176 404.922C268.176 403.012 266.437 402.458 264.355 403.718L260.057 406.221L107.45 494.358C106.399 494.947 105.5 495.771 104.82 496.765C104.141 497.759 103.701 498.897 103.534 500.089C103.629 502.018 105.31 502.572 107.45 501.312Z" fill="black"/>
<path opacity="0.3" d="M107.45 518.007L260.076 429.85L264.374 427.348C265.405 426.746 266.285 425.917 266.947 424.924C267.609 423.931 268.035 422.8 268.195 421.617C268.195 419.707 266.457 419.153 264.374 420.414L260.076 422.916L107.45 511.054C106.4 511.644 105.501 512.468 104.822 513.462C104.143 514.456 103.702 515.593 103.534 516.785C103.629 518.714 105.31 519.268 107.45 518.007Z" fill="black"/>
<path opacity="0.3" d="M107.45 534.702L260.057 446.546L264.355 444.043C265.386 443.441 266.265 442.612 266.927 441.619C267.589 440.626 268.016 439.495 268.176 438.313C268.176 436.402 266.437 435.848 264.355 437.109L260.057 439.611L107.45 527.749C106.4 528.339 105.501 529.163 104.822 530.157C104.143 531.151 103.702 532.288 103.534 533.48C103.629 535.409 105.31 535.963 107.45 534.702Z" fill="black"/>
<path opacity="0.3" d="M107.45 551.398L260.057 463.241L264.355 460.739C265.386 460.137 266.266 459.307 266.928 458.314C267.59 457.321 268.017 456.191 268.176 455.008C268.176 453.098 266.438 452.544 264.355 453.804L260.057 456.307L107.45 544.464C106.418 545.064 105.538 545.893 104.876 546.886C104.214 547.88 103.787 549.011 103.629 550.194C103.629 552.104 105.31 552.658 107.45 551.398Z" fill="black"/>
<path opacity="0.3" d="M107.45 568.093L260.057 479.936L264.355 477.434C265.386 476.832 266.265 476.003 266.927 475.01C267.589 474.017 268.016 472.886 268.176 471.703C268.176 469.793 266.437 469.239 264.355 470.5L260.057 473.002L107.45 561.14C106.4 561.73 105.501 562.554 104.822 563.548C104.143 564.541 103.702 565.679 103.534 566.87C103.629 568.8 105.31 569.296 107.45 568.093Z" fill="black"/>
<path opacity="0.3" d="M107.45 584.788L260.076 496.708L264.374 494.206C265.405 493.604 266.285 492.775 266.947 491.782C267.609 490.789 268.035 489.658 268.195 488.475C268.195 486.565 266.457 486.011 264.374 487.272L260.076 489.774L107.45 577.835C106.4 578.425 105.501 579.249 104.822 580.243C104.143 581.237 103.702 582.374 103.534 583.566C103.629 585.495 105.31 586.049 107.45 584.788Z" fill="black"/>
</g>
<g opacity="0.3">
<path opacity="0.3" d="M326.456 179.917C324.011 180.471 322.025 182.362 322.025 184.234C322.025 186.106 323.935 187.271 326.456 186.698C334.848 184.881 342.931 181.85 350.449 177.701L511.175 84.6923C512.209 84.0947 513.092 83.2669 513.754 82.2731C514.417 81.2792 514.841 80.1461 514.995 78.9616C514.995 77.0514 513.238 76.5929 511.175 77.8346L350.449 170.843C342.935 175.018 334.852 178.075 326.456 179.917Z" fill="black"/>
<path opacity="0.3" d="M326.456 196.612C324.011 197.185 322.025 199.076 322.025 200.948C322.025 202.82 323.935 203.967 326.456 203.413C334.855 201.559 342.937 198.489 350.449 194.301L511.175 101.292C512.21 100.696 513.094 99.8682 513.756 98.8741C514.419 97.8801 514.843 96.7464 514.995 95.5614C514.995 93.6512 513.238 93.1736 511.175 94.4344L350.449 187.443C342.941 191.652 334.858 194.741 326.456 196.612Z" fill="black"/>
<path opacity="0.3" d="M326.456 213.327C325.354 213.489 324.332 213.995 323.536 214.774C322.74 215.553 322.211 216.565 322.025 217.663C322.025 219.573 323.935 220.681 326.456 220.108C334.854 218.26 342.936 215.197 350.449 211.015L511.175 118.007C512.209 117.409 513.092 116.581 513.754 115.587C514.417 114.593 514.842 113.46 514.995 112.276C514.995 110.366 513.238 109.907 511.175 111.149L350.449 204.158C342.94 208.366 334.858 211.455 326.456 213.327Z" fill="black"/>
<path opacity="0.3" d="M326.456 230.022C324.011 230.595 322.025 232.486 322.025 234.358C322.025 236.23 323.935 237.376 326.456 236.822C334.851 234.966 342.933 231.904 350.449 227.73L511.175 134.702C512.21 134.105 513.094 133.278 513.756 132.284C514.419 131.29 514.843 130.156 514.995 128.971C514.995 127.061 513.238 126.583 511.175 127.844L350.449 220.853C342.941 225.061 334.858 228.15 326.456 230.022Z" fill="black"/>
<path opacity="0.3" d="M326.456 246.736C325.354 246.898 324.332 247.405 323.536 248.184C322.74 248.963 322.211 249.974 322.025 251.073C322.025 252.983 323.935 254.091 326.456 253.518C334.854 251.67 342.936 248.607 350.449 244.425L511.175 151.416C512.209 150.819 513.092 149.991 513.754 148.997C514.417 148.003 514.842 146.87 514.995 145.686C514.995 143.775 513.238 143.317 511.175 144.559L350.449 237.567C342.94 241.775 334.858 244.864 326.456 246.736Z" fill="black"/>
<path opacity="0.3" d="M326.456 263.432C324.011 264.005 322.025 265.896 322.025 267.768C322.025 269.64 323.935 270.805 326.456 270.232C334.851 268.376 342.933 265.313 350.449 261.139L511.175 168.15C512.21 167.553 513.094 166.726 513.756 165.732C514.419 164.738 514.843 163.604 514.995 162.419C514.995 160.509 513.238 160.031 511.175 161.292L350.449 254.301C342.939 258.496 334.856 261.572 326.456 263.432Z" fill="black"/>
<path opacity="0.3" d="M326.456 280.146C325.354 280.308 324.332 280.815 323.536 281.594C322.74 282.373 322.211 283.384 322.025 284.482C322.025 286.393 323.935 287.501 326.456 286.927C334.854 285.08 342.936 282.017 350.449 277.835L511.175 184.826C512.209 184.229 513.092 183.401 513.754 182.407C514.417 181.413 514.842 180.28 514.995 179.095C514.995 177.185 513.238 176.727 511.175 177.968L350.449 270.977C342.94 275.185 334.858 278.274 326.456 280.146Z" fill="black"/>
<path opacity="0.3" d="M326.456 296.842C324.011 297.415 322.025 299.306 322.025 301.178C322.025 303.05 323.935 304.215 326.456 303.642C334.851 301.786 342.933 298.723 350.449 294.549L511.175 201.541C512.207 200.941 513.088 200.112 513.751 199.119C514.413 198.126 514.839 196.994 514.995 195.81C514.995 193.9 513.238 193.422 511.175 194.683L350.449 287.692C342.94 291.893 334.857 294.976 326.456 296.842Z" fill="black"/>
<path opacity="0.3" d="M326.456 313.556C325.354 313.718 324.332 314.225 323.536 315.004C322.74 315.783 322.211 316.794 322.025 317.892C322.025 319.802 323.935 320.91 326.456 320.337C334.854 318.49 342.936 315.427 350.449 311.245L511.175 218.236C512.21 217.639 513.094 216.812 513.756 215.818C514.419 214.824 514.843 213.69 514.995 212.505C514.995 210.595 513.238 210.137 511.175 211.378L350.449 304.387C342.94 308.595 334.858 311.684 326.456 313.556Z" fill="black"/>
<path opacity="0.3" d="M326.456 330.251C324.011 330.824 322.025 332.716 322.025 334.588C322.025 336.46 323.935 337.625 326.456 337.052C334.851 335.196 342.933 332.133 350.449 327.959L511.175 235.008C512.207 234.408 513.088 233.579 513.751 232.586C514.413 231.593 514.839 230.461 514.995 229.277C514.995 227.367 513.238 226.889 511.175 228.15L350.449 321.159C342.936 325.341 334.854 328.404 326.456 330.251Z" fill="black"/>
<path opacity="0.3" d="M326.456 346.966C325.354 347.128 324.332 347.635 323.536 348.414C322.74 349.193 322.211 350.204 322.025 351.302C322.025 353.212 323.935 354.32 326.456 353.747C334.856 351.908 342.94 348.844 350.449 344.654L511.175 251.646C512.21 251.049 513.094 250.222 513.756 249.228C514.419 248.234 514.843 247.1 514.995 245.915C514.995 244.005 513.238 243.527 511.175 244.769L350.449 337.778C342.942 341.992 334.859 345.088 326.456 346.966Z" fill="black"/>
<path opacity="0.3" d="M326.456 363.661C324.011 364.234 322.025 366.125 322.025 367.997C322.025 369.869 323.935 371.035 326.456 370.461C334.851 368.605 342.933 365.543 350.449 361.369L511.175 268.36C512.207 267.76 513.088 266.932 513.751 265.938C514.413 264.945 514.839 263.813 514.995 262.629C514.995 260.719 513.238 260.242 511.175 261.502L350.449 354.511C342.94 358.713 334.857 361.796 326.456 363.661Z" fill="black"/>
<path opacity="0.3" d="M326.456 380.375C324.011 380.949 322.025 382.84 322.025 384.712C322.025 386.584 323.935 387.73 326.456 387.176C334.855 385.322 342.937 382.252 350.449 378.064L511.175 285.055C512.21 284.459 513.094 283.631 513.756 282.637C514.419 281.643 514.843 280.51 514.995 279.325C514.995 277.414 513.238 276.937 511.175 278.179L350.449 371.206C342.937 375.407 334.855 378.495 326.456 380.375Z" fill="black"/>
<path opacity="0.3" d="M326.456 397.071C324.011 397.644 322.025 399.535 322.025 401.407C322.025 403.279 323.935 404.444 326.456 403.871C334.851 402.015 342.933 398.952 350.449 394.779L511.175 301.865C512.207 301.266 513.088 300.437 513.751 299.444C514.413 298.45 514.839 297.318 514.995 296.135C514.995 294.225 513.238 293.747 511.175 295.008L350.449 388.016C342.934 392.185 334.852 395.235 326.456 397.071Z" fill="black"/>
<path opacity="0.3" d="M326.456 413.785C324.011 414.358 322.025 416.249 322.025 418.121C322.025 419.993 323.935 421.14 326.456 420.586C334.855 418.732 342.937 415.662 350.449 411.474L511.175 318.465C512.21 317.869 513.094 317.041 513.756 316.047C514.419 315.053 514.843 313.919 514.995 312.734C514.995 310.824 513.238 310.347 511.175 311.607L350.449 404.616C342.937 408.817 334.855 411.905 326.456 413.785Z" fill="black"/>
<path opacity="0.3" d="M326.456 430.481C324.011 431.054 322.025 432.945 322.025 434.817C322.025 436.689 323.935 437.854 326.456 437.281C334.854 435.433 342.936 432.37 350.449 428.188L511.175 335.18C512.207 334.58 513.088 333.751 513.751 332.758C514.413 331.765 514.839 330.633 514.995 329.449C514.995 327.539 513.238 327.061 511.175 328.322L350.449 421.331C342.94 425.532 334.857 428.615 326.456 430.481Z" fill="black"/>
<path opacity="0.3" d="M326.456 447.195C324.011 447.768 322.025 449.659 322.025 451.531C322.025 453.403 323.935 454.549 326.456 453.995C334.855 452.141 342.937 449.072 350.449 444.884L511.175 351.875C512.21 351.278 513.094 350.451 513.756 349.457C514.419 348.463 514.843 347.329 514.995 346.144C514.995 344.234 513.238 343.756 511.175 345.017L350.449 438.026C342.937 442.226 334.855 445.315 326.456 447.195Z" fill="black"/>
</g>
<path opacity="0.2" d="M77.841 290.442L104.202 273.25L75.5487 288.895V321.254L77.841 290.442Z" fill="black"/>
<path opacity="0.2" d="M61.4324 280.719L112.875 251.015L63.801 282.133L61.4324 347.539V280.719Z" fill="black"/>
<path opacity="0.2" d="M77.8411 616.937L76.8669 566.412L74.3645 614.932L77.8411 616.937Z" fill="black"/>
<path opacity="0.2" d="M64.9663 609.43L63.0943 534.168L61.8909 607.73L64.9663 609.43Z" fill="black"/>
<path opacity="0.2" d="M486.991 51.2633L523.878 28.035L526.609 29.6014L486.991 51.2633Z" fill="black"/>
<path opacity="0.2" d="M514.079 22.3426L450.793 60.0504L516.103 23.5078L514.079 22.3426Z" fill="black"/>
<path opacity="0.3" d="M98.2424 463.374V476.135L274.881 374.148V361.388L98.2424 463.374Z" fill="#BA68C8"/>
<path opacity="0.3" d="M98.2424 479.822V492.582L274.881 390.576V377.835L98.2424 479.822Z" fill="#BA68C8"/>
<path opacity="0.3" d="M98.2424 497.128V509.87L274.881 407.883V395.142L98.2424 497.128Z" fill="#BA68C8"/>
<path opacity="0.3" d="M98.2424 513.824V526.565L195.53 469.755V457.014L98.2424 513.824Z" fill="#BA68C8"/>
<path opacity="0.3" d="M377.918 301.904L517.765 221.159V233.919L377.918 315.734V301.904Z" fill="#BA68C8"/>
<path opacity="0.3" d="M348.481 335.906L517.765 238.255V251.015L348.481 349.736C339.923 354.989 329.608 357.376 318.586 358.828V345.113C329.086 344.171 339.271 341.034 348.481 335.906Z" fill="#BA68C8"/>
<path opacity="0.3" d="M348.481 352.009L517.765 254.358V267.118L348.481 365.839C339.923 371.092 329.608 373.48 318.586 374.931V361.216C329.088 360.284 339.275 357.146 348.481 352.009Z" fill="#BA68C8"/>
<path opacity="0.3" d="M348.481 368.112L517.765 270.48V283.222L348.481 381.961C339.923 387.195 329.608 389.602 318.586 391.054V377.319C329.088 376.387 339.275 373.249 348.481 368.112Z" fill="#BA68C8"/>
<path opacity="0.3" d="M98.2424 313.25V325.991L274.881 224.005V211.263L98.2424 313.25Z" fill="#BA68C8"/>
<path opacity="0.3" d="M98.2424 329.697V342.438L274.881 240.452V227.711L98.2424 329.697Z" fill="#BA68C8"/>
<path opacity="0.1" d="M431.385 139.573V263.795L534.288 204.387V80.165L431.385 139.573Z" fill="black"/>
<path d="M560 197.472C560 197.472 554.995 205.972 537.077 216.345L446.437 268.685L435.568 160.7L538.415 101.292L545.196 174.855C546.132 185.036 550.086 195.867 560 197.472Z" fill="#455A64"/>
<path d="M538.434 101.292L435.53 160.7L435.511 141.636L538.434 82.2281V101.292Z" fill="#37474F"/>
<path d="M527.87 137.586C526.399 139.114 523.668 141.082 521.853 138.923L521.757 138.79C523.02 136.643 523.436 134.102 522.923 131.665C522.77 131.092 521.757 130.003 521.108 130.671C520.166 131.616 519.503 132.803 519.193 134.101C518.883 135.399 518.937 136.757 519.351 138.026C518.253 139.76 516.923 141.334 515.396 142.706C514.121 144.104 512.386 144.999 510.506 145.227C508.214 145.227 508.596 141.636 508.596 140.051C508.596 139.344 507.182 137.835 506.686 138.904C505.346 141.554 503.726 144.051 501.853 146.354C500.849 147.749 499.696 149.03 498.415 150.175C498.037 150.533 497.605 150.83 497.135 151.053C497.082 150.873 497.05 150.687 497.039 150.499C497.039 149.583 495.606 148.322 495.033 149.583C493.868 152.142 491.996 158.083 488.711 158.79C487.698 159 486.8 158.179 485.826 158.179C485.429 158.181 485.037 158.264 484.673 158.422C484.309 158.579 483.98 158.808 483.706 159.095C482.488 160.542 481.413 162.103 480.497 163.756C480.076 164.329 479.331 165.667 478.586 165.877C477.536 166.201 477.498 164.234 477.326 163.374C477.154 162.515 476.39 161.827 475.683 162.305C474.298 163.37 473.244 164.808 472.646 166.45C472.224 165.59 471.977 164.655 471.92 163.699C471.92 163.069 470.716 161.942 470.181 162.763C468.389 165.441 466.279 167.891 463.897 170.06C462.35 171.493 457.88 175.791 455.702 173.327C454.9 172.317 454.517 171.038 454.632 169.754C456.68 168.447 458.388 166.673 459.618 164.578C461.922 161.018 463.361 156.969 463.82 152.753C463.82 152.276 463.438 151.588 462.923 151.607C459.962 151.607 457.88 155.695 456.714 157.93C454.751 161.297 453.49 165.027 453.009 168.895V169.22C452.041 169.612 450.985 169.738 449.952 169.583C449.513 169.583 449.532 170.519 449.952 170.595C450.98 170.805 452.044 170.752 453.047 170.442C453.062 171.552 453.377 172.637 453.959 173.581C454.541 174.526 455.368 175.296 456.351 175.81C459.14 176.86 462.216 174.435 464.183 172.754C466.54 170.76 468.661 168.504 470.506 166.03C470.873 167.2 471.53 168.258 472.416 169.105C472.856 169.506 473.601 169.697 473.868 168.99C474.277 167.656 474.924 166.407 475.778 165.304C476.313 167.004 477.326 168.704 479.198 168.15C481.356 167.519 482.789 164.329 483.897 162.629C484.489 161.751 485.138 160.337 486.38 160.375C487.622 160.413 488.443 161.426 490.029 160.757C493.047 159.477 494.651 155.924 495.989 152.811C496.296 153.103 496.693 153.285 497.116 153.327C498.625 153.518 500.019 151.97 500.936 150.996C503.167 148.673 505.133 146.111 506.8 143.355C506.925 144.058 507.195 144.727 507.593 145.319C507.991 145.911 508.508 146.413 509.112 146.794C511.117 147.978 513.467 146.966 515.224 145.8C517.38 144.317 519.239 142.445 520.707 140.28C523.419 143.298 527.106 141.77 529.475 139.038C530.258 138.312 528.73 136.593 527.87 137.586ZM456.81 162.419C457.56 160.55 458.467 158.748 459.522 157.032C460.176 155.817 461.097 154.765 462.216 153.957C461.635 157.328 460.444 160.565 458.701 163.508C457.75 165.338 456.452 166.967 454.881 168.303C455.314 166.229 455.961 164.207 456.81 162.266V162.419Z" fill="#FAFAFA"/>
<path d="M486.074 213.479C495.434 207.749 502.674 198.503 507.946 188.952C513.218 179.401 517.803 167.787 515.587 156.822C515.453 156.173 514.116 155.371 514.059 156.459C513.479 167.362 510.359 177.979 504.947 187.462C500.647 195.442 494.803 202.488 487.755 208.188L488.5 206.163C489.115 204.425 489.6 202.644 489.952 200.834C490.105 200.012 490.258 199.191 490.334 198.37C490.365 197.408 490.282 196.446 490.086 195.504C490.06 195.295 489.972 195.099 489.832 194.942C489.692 194.785 489.507 194.675 489.302 194.626C488.749 194.626 488.901 195.008 488.691 195.294C488.221 196.098 487.915 196.988 487.793 197.911C487.602 198.694 487.373 199.478 487.144 200.261C486.628 201.884 486.093 203.508 485.482 205.113C484.26 208.379 482.77 211.512 481.28 214.664C480.783 215.772 481.929 216.956 483.018 216.956C486.642 216.934 490.226 216.194 493.562 214.778C495.167 214.148 496.733 213.441 498.281 212.696C499.864 212.032 501.396 211.253 502.865 210.366C504.317 209.411 502.177 207.5 500.955 207.902C497.937 208.876 495.224 210.652 492.244 211.875C490.112 212.774 487.881 213.416 485.597 213.785V213.651C485.765 213.624 485.927 213.566 486.074 213.479Z" fill="#FAFAFA"/>
</g>
<defs>
<filter id="filter0_d" x="0.0932617" y="0.604248" width="584.907" height="654.156" filterUnits="userSpaceOnUse" color-interpolation-filters="sRGB">
<feFlood flood-opacity="0" result="BackgroundImageFix"/>
<feColorMatrix in="SourceAlpha" type="matrix" values="0 0 0 0 0 0 0 0 0 0 0 0 0 0 0 0 0 0 127 0"/>
<feOffset dx="15" dy="15"/>
<feGaussianBlur stdDeviation="5"/>
<feColorMatrix type="matrix" values="0 0 0 0 0 0 0 0 0 0 0 0 0 0 0 0 0 0 0.25 0"/>
<feBlend mode="normal" in2="BackgroundImageFix" result="effect1_dropShadow"/>
<feBlend mode="normal" in="SourceGraphic" in2="effect1_dropShadow" result="shape"/>
</filter>
</defs>
</svg>
