<svg width="417" height="649" viewBox="0 0 417 649" fill="none" xmlns="http://www.w3.org/2000/svg">
<path d="M51.2354 537.401L219.818 440.018C221.434 439.201 223.22 438.775 225.031 438.775C226.841 438.775 228.627 439.201 230.243 440.018L386.11 530.043C388.996 531.719 388.996 534.42 386.11 536.078L217.528 633.461C215.911 634.278 214.126 634.703 212.315 634.703C210.504 634.703 208.718 634.278 207.102 633.461L51.2354 543.417C48.4056 541.759 48.4056 539.058 51.2354 537.401Z" fill="#9C8A0D"/>
<path d="M228.344 30.0518L358.519 105.25C359.785 106.077 360.84 107.191 361.596 108.502C362.353 109.812 362.791 111.282 362.875 112.794V526.633C362.778 528.128 362.334 529.581 361.578 530.874C360.822 532.168 359.774 533.267 358.519 534.084L217.714 615.428C216.362 616.108 214.87 616.462 213.357 616.462C211.844 616.462 210.353 616.108 209.001 615.428L78.8267 540.324C77.5527 539.491 76.4938 538.368 75.7366 537.047C74.9795 535.726 74.5455 534.245 74.4702 532.724V118.941C74.5526 117.429 74.9901 115.958 75.747 114.647C76.5039 113.337 77.559 112.223 78.8267 111.397L219.687 30.0518C221.032 29.3811 222.514 29.0319 224.016 29.0319C225.518 29.0319 227 29.3811 228.344 30.0518Z" fill="#BA68C8"/>
<path opacity="0.7" d="M228.344 30.0518L358.519 105.25C359.785 106.077 360.84 107.191 361.596 108.502C362.353 109.812 362.791 111.282 362.875 112.794V526.633C362.778 528.128 362.334 529.581 361.578 530.874C360.822 532.168 359.774 533.267 358.519 534.084L217.714 615.428C216.362 616.108 214.87 616.462 213.357 616.462C211.844 616.462 210.353 616.108 209.001 615.428L78.8267 540.324C77.5527 539.491 76.4938 538.368 75.7366 537.047C74.9795 535.726 74.5455 534.245 74.4702 532.724V118.941C74.5526 117.429 74.9901 115.958 75.747 114.647C76.5039 113.337 77.559 112.223 78.8267 111.397L219.687 30.0518C221.032 29.3811 222.514 29.0319 224.016 29.0319C225.518 29.0319 227 29.3811 228.344 30.0518Z" fill="white"/>
<path d="M74.4702 118.942V532.725C74.5527 534.239 74.99 535.713 75.7468 537.026C76.5036 538.34 77.5587 539.457 78.8267 540.288L209.019 615.485C210.35 616.206 211.845 616.566 213.357 616.529V192.668C211.848 192.683 210.357 192.325 209.019 191.625L78.8267 116.427L77.6352 115.477L76.0899 114.173C75.1101 115.577 74.5484 117.231 74.4702 118.942Z" fill="#BA68C8"/>
<path opacity="0.5" d="M74.4702 118.942V532.725C74.5527 534.239 74.99 535.713 75.7468 537.026C76.5036 538.34 77.5587 539.457 78.8267 540.288L209.019 615.485C210.35 616.206 211.845 616.566 213.357 616.529V192.668C211.848 192.683 210.357 192.325 209.019 191.625L78.8267 116.427L77.6352 115.477L76.0899 114.173C75.1101 115.577 74.5484 117.231 74.4702 118.942Z" fill="white"/>
<path d="M78.8269 111.398L219.687 30.053C221.039 29.3732 222.531 29.0191 224.044 29.0191C225.557 29.0191 227.049 29.3732 228.4 30.053L358.575 105.251C360.976 106.648 360.976 108.976 358.575 110.28L217.77 191.625C216.421 192.313 214.928 192.672 213.413 192.672C211.899 192.672 210.406 192.313 209.057 191.625L78.8269 116.427C76.4252 115.03 76.4252 112.776 78.8269 111.398Z" fill="#BA68C8"/>
<path opacity="0.8" d="M78.8269 111.398L219.687 30.053C221.039 29.3732 222.531 29.0191 224.044 29.0191C225.557 29.0191 227.049 29.3732 228.4 30.053L358.575 105.251C360.976 106.648 360.976 108.976 358.575 110.28L217.77 191.625C216.421 192.313 214.928 192.672 213.413 192.672C211.899 192.672 210.406 192.313 209.057 191.625L78.8269 116.427C76.4252 115.03 76.4252 112.776 78.8269 111.398Z" fill="white"/>
<path d="M232.813 406.806C232.264 406.816 231.722 406.674 231.249 406.396C230.671 406.011 230.207 405.478 229.905 404.852C229.604 404.226 229.476 403.53 229.536 402.838V365.714C229.613 364.05 230.087 362.429 230.92 360.987C231.752 359.545 232.919 358.323 234.321 357.425L342.452 294.968C342.999 294.542 343.662 294.289 344.354 294.242C345.046 294.194 345.737 294.355 346.337 294.704C346.937 295.052 347.42 295.572 347.723 296.196C348.026 296.821 348.135 297.522 348.037 298.209V335.277C347.957 336.941 347.481 338.56 346.649 340.002C345.817 341.444 344.652 342.666 343.252 343.567L235.177 406.061C234.467 406.51 233.652 406.767 232.813 406.806ZM343.308 296.44L235.177 358.897C234.042 359.654 233.097 360.663 232.416 361.845C231.734 363.028 231.335 364.352 231.249 365.714V402.838C231.203 403.23 231.258 403.627 231.408 403.992C231.557 404.357 231.798 404.678 232.105 404.924C232.469 405.07 232.864 405.119 233.252 405.067C233.64 405.015 234.008 404.863 234.321 404.626L342.452 342.151C343.586 341.398 344.531 340.392 345.213 339.212C345.894 338.033 346.294 336.712 346.38 335.352V298.209C346.463 297.824 346.421 297.422 346.261 297.062C346.1 296.701 345.83 296.401 345.489 296.205C345.147 296.008 344.752 295.925 344.36 295.967C343.968 296.009 343.6 296.175 343.308 296.44Z" fill="#455A64"/>
<path d="M339.063 312.068C338.957 313.531 338.507 314.948 337.75 316.204C336.993 317.46 335.95 318.519 334.707 319.295L242.922 372.327C240.52 373.705 238.565 372.718 238.565 370.11C238.672 368.647 239.121 367.23 239.878 365.974C240.636 364.718 241.678 363.659 242.922 362.883L334.707 309.87C337.108 308.473 339.063 309.46 339.063 312.068Z" fill="#BA68C8"/>
<path d="M339.063 330.937C338.96 332.403 338.511 333.824 337.754 335.083C336.997 336.343 335.953 337.405 334.707 338.183L242.922 391.159C240.52 392.556 238.565 391.569 238.565 388.961C238.669 387.495 239.117 386.074 239.874 384.815C240.632 383.555 241.676 382.493 242.922 381.715L334.707 328.702C337.108 327.342 339.063 328.329 339.063 330.937Z" fill="#263238"/>
<path d="M334.707 328.739L295.759 351.241V360.685L334.707 338.183C335.953 337.405 336.997 336.343 337.754 335.083C338.511 333.824 338.96 332.403 339.063 330.937C339.063 328.329 337.108 327.342 334.707 328.739Z" fill="#BA68C8"/>
<path d="M192.934 199.541C188.428 196.915 184.761 199.299 184.761 204.85V423.887C184.87 426.82 185.667 429.687 187.086 432.256C188.506 434.825 190.509 437.024 192.934 438.677C197.458 441.303 201.107 438.919 201.107 433.368V214.331C201.007 211.396 200.214 208.526 198.793 205.956C197.373 203.385 195.365 201.187 192.934 199.541Z" fill="#BA68C8"/>
<path d="M192.934 434.001C191.713 433.172 190.706 432.064 189.997 430.768C189.288 429.472 188.897 428.027 188.857 426.55V206.88C188.857 204.105 190.718 202.913 192.934 204.217C194.159 205.044 195.169 206.152 195.881 207.447C196.594 208.743 196.987 210.19 197.03 211.668V431.282C197.03 434.001 195.187 435.212 192.934 434.001Z" fill="#37474F"/>
<path d="M192.934 434.001C191.713 433.172 190.706 432.063 189.997 430.768C189.288 429.472 188.897 428.027 188.857 426.55V309.386L197.03 314.098V431.263C197.03 434.001 195.187 435.212 192.934 434.001Z" fill="#BA68C8"/>
<path opacity="0.3" d="M192.934 434.001C191.713 433.172 190.706 432.063 189.997 430.768C189.288 429.472 188.897 428.027 188.857 426.55V309.386L197.03 314.098V431.263C197.03 434.001 195.187 435.212 192.934 434.001Z" fill="white"/>
<path d="M168.433 185.366C163.909 182.758 160.26 185.143 160.26 190.694V409.786C160.36 412.721 161.153 415.591 162.574 418.162C163.994 420.732 166.002 422.93 168.433 424.576C172.939 427.202 176.588 424.818 176.588 419.267V200.175C176.479 197.241 175.685 194.373 174.269 191.801C172.853 189.23 170.854 187.026 168.433 185.366Z" fill="#BA68C8"/>
<path d="M168.433 419.751C167.208 418.924 166.198 417.817 165.486 416.521C164.773 415.225 164.38 413.779 164.337 412.301V192.724C164.337 189.948 166.199 188.756 168.433 190.06C169.654 190.89 170.661 191.998 171.37 193.293C172.079 194.589 172.47 196.035 172.51 197.511V417.069C172.51 419.863 170.686 421.055 168.433 419.751Z" fill="#BA68C8"/>
<path opacity="0.3" d="M168.433 419.751C167.208 418.924 166.198 417.817 165.486 416.521C164.773 415.225 164.38 413.779 164.337 412.301V192.724C164.337 189.948 166.199 188.756 168.433 190.06C169.654 190.89 170.661 191.998 171.37 193.293C172.079 194.589 172.47 196.035 172.51 197.511V417.069C172.51 419.863 170.686 421.055 168.433 419.751Z" fill="white"/>
<path d="M143.914 171.21C139.408 168.602 135.741 170.986 135.741 176.537V395.573C135.85 398.507 136.647 401.374 138.066 403.943C139.486 406.512 141.489 408.711 143.914 410.363C148.419 412.99 152.087 410.606 152.087 405.036V186.018C151.981 183.081 151.185 180.211 149.766 177.639C148.346 175.066 146.341 172.864 143.914 171.21Z" fill="#BA68C8"/>
<path d="M143.914 405.595C142.693 404.765 141.686 403.657 140.977 402.362C140.268 401.066 139.877 399.62 139.837 398.144V178.567C139.837 175.792 141.698 174.6 143.914 175.904C145.139 176.731 146.149 177.838 146.861 179.134C147.574 180.43 147.967 181.876 148.01 183.354V402.912C148.01 405.688 146.167 406.899 143.914 405.595Z" fill="#37474F"/>
<path d="M143.914 405.595C142.693 404.765 141.686 403.657 140.977 402.362C140.268 401.066 139.877 399.62 139.837 398.144V233.443L148.01 238.155V402.913C148.01 405.688 146.167 406.899 143.914 405.595Z" fill="#BA68C8"/>
<path opacity="0.3" d="M143.914 405.595C142.693 404.765 141.686 403.657 140.977 402.362C140.268 401.066 139.877 399.62 139.837 398.144V233.443L148.01 238.155V402.913C148.01 405.688 146.167 406.899 143.914 405.595Z" fill="white"/>
<path d="M119.413 157.053C114.889 154.445 111.24 156.829 111.24 162.38V381.417C111.34 384.352 112.133 387.222 113.554 389.793C114.974 392.363 116.982 394.561 119.413 396.207C123.919 398.833 127.568 396.449 127.568 390.879V171.861C127.459 168.927 126.665 166.06 125.249 163.488C123.833 160.916 121.834 158.712 119.413 157.053Z" fill="#BA68C8"/>
<path d="M119.413 391.438C118.188 390.611 117.178 389.503 116.466 388.208C115.753 386.912 115.36 385.465 115.317 383.987V164.411C115.317 161.635 117.179 160.443 119.413 161.747C120.634 162.576 121.641 163.685 122.35 164.98C123.059 166.276 123.45 167.721 123.49 169.198V388.756C123.49 391.531 121.666 392.742 119.413 391.438Z" fill="#37474F"/>
<path d="M119.413 391.438C118.188 390.611 117.178 389.503 116.466 388.208C115.753 386.912 115.36 385.465 115.317 383.987V336.972L123.49 341.685V388.756C123.49 391.531 121.666 392.742 119.413 391.438Z" fill="#BA68C8"/>
<path opacity="0.3" d="M119.413 391.438C118.188 390.611 117.178 389.503 116.466 388.208C115.753 386.912 115.36 385.465 115.317 383.987V336.972L123.49 341.685V388.756C123.49 391.531 121.666 392.742 119.413 391.438Z" fill="white"/>
<path d="M94.9497 142.896C90.4443 140.288 86.7766 142.673 86.7766 148.224V367.26C86.8859 370.194 87.6824 373.06 89.1021 375.629C90.5217 378.198 92.5248 380.398 94.9497 382.05C99.4552 384.676 103.123 382.292 103.123 376.723V157.705C103.016 154.768 102.221 151.898 100.801 149.325C99.3817 146.753 97.3772 144.551 94.9497 142.896Z" fill="#BA68C8"/>
<path d="M94.9496 377.282C93.7282 376.452 92.7214 375.344 92.0125 374.048C91.3036 372.753 90.9128 371.307 90.8723 369.831V150.254C90.8723 147.479 92.7341 146.286 94.9496 147.59C96.1744 148.418 97.1848 149.525 97.897 150.821C98.6093 152.116 99.0029 153.563 99.0455 155.041V374.599C98.9896 377.375 97.1465 378.585 94.9496 377.282Z" fill="#37474F"/>
<path d="M94.9496 377.282C93.7282 376.452 92.7214 375.344 92.0125 374.048C91.3036 372.753 90.9128 371.307 90.8723 369.831V243.166L99.0455 247.879V374.543C98.9896 377.375 97.1465 378.585 94.9496 377.282Z" fill="#BA68C8"/>
<path opacity="0.3" d="M94.9496 377.282C93.7282 376.452 92.7214 375.344 92.0125 374.048C91.3036 372.753 90.9128 371.307 90.8723 369.831V243.166L99.0455 247.879V374.543C98.9896 377.375 97.1465 378.585 94.9496 377.282Z" fill="white"/>
<path d="M342.88 136.339L234.749 198.815C233.493 199.632 232.446 200.731 231.689 202.025C230.933 203.318 230.489 204.77 230.392 206.266V330.695C230.392 333.471 232.254 334.607 234.749 333.21L342.88 270.753C344.134 269.935 345.181 268.835 345.937 267.542C346.693 266.249 347.138 264.797 347.236 263.302V138.854C347.236 136.079 345.281 134.961 342.88 136.339Z" fill="#455A64"/>
<path d="M231.584 202.242C230.855 203.496 230.446 204.91 230.392 206.359V330.788C230.392 333.564 232.254 334.7 234.749 333.303L342.88 270.846C344.214 269.998 345.305 268.817 346.045 267.419L231.584 202.242Z" fill="#263238"/>
<path d="M234.749 198.815C233.493 199.632 232.446 200.731 231.689 202.025C230.933 203.318 230.489 204.77 230.392 206.266V325.964L334.39 265.891C335.655 265.064 336.708 263.95 337.461 262.639C338.215 261.328 338.649 259.858 338.728 258.347V138.761L234.749 198.815Z" fill="#37474F"/>
<path d="M104.687 540.772C105.235 541.144 105.69 541.639 106.013 542.218C106.336 542.797 106.52 543.444 106.548 544.106C106.548 545.336 105.692 545.839 104.687 545.224C104.137 544.848 103.683 544.35 103.36 543.768C103.036 543.186 102.853 542.536 102.825 541.871C102.75 540.642 103.625 540.176 104.687 540.772Z" fill="#37474F"/>
<path d="M120.735 550.067C121.285 550.434 121.74 550.925 122.063 551.501C122.387 552.078 122.57 552.722 122.597 553.382C122.597 554.612 121.74 555.115 120.735 554.5C120.186 554.128 119.732 553.633 119.408 553.054C119.085 552.475 118.902 551.829 118.873 551.166C118.817 549.937 119.674 549.49 120.735 550.067Z" fill="#37474F"/>
<path d="M136.523 559.176C137.071 559.543 137.526 560.035 137.849 560.611C138.172 561.187 138.356 561.831 138.384 562.491C138.384 563.721 137.528 564.205 136.523 563.59C135.973 563.224 135.518 562.732 135.194 562.156C134.871 561.58 134.688 560.935 134.661 560.275C134.605 559.064 135.461 558.561 136.523 559.176Z" fill="#37474F"/>
<path d="M152.441 568.378C152.987 568.743 153.44 569.232 153.763 569.805C154.086 570.377 154.271 571.018 154.303 571.675C154.303 572.904 153.446 573.388 152.441 572.792C151.896 572.42 151.445 571.927 151.122 571.352C150.799 570.777 150.613 570.135 150.579 569.477C150.542 568.266 151.398 567.763 152.441 568.378Z" fill="#37474F"/>
<path d="M85.9387 446.295L102.266 455.609C103.611 456.487 104.729 457.67 105.531 459.062C106.334 460.453 106.797 462.014 106.883 463.618V472.932C106.883 475.894 104.817 477.086 102.266 475.614L85.9387 466.301C84.5944 465.422 83.4758 464.239 82.6736 462.848C81.8715 461.456 81.4083 459.895 81.3215 458.291V448.977C81.3215 446.016 83.3881 444.824 85.9387 446.295Z" fill="#F5F5F5"/>
<path d="M90.3511 456.857L92.4735 455.646C92.9299 455.443 93.4316 455.364 93.9283 455.416C94.425 455.468 94.8992 455.65 95.3033 455.944C96.4731 456.708 97.4467 457.737 98.1453 458.947C98.8439 460.157 99.248 461.515 99.3247 462.911C99.3742 463.412 99.29 463.917 99.0807 464.375C98.8713 464.833 98.5444 465.228 98.1332 465.518L96.1598 466.636L95.806 466.04C95.3983 465.959 95.0078 465.808 94.6517 465.593C93.482 464.829 92.5084 463.8 91.8098 462.59C91.1112 461.38 90.7071 460.022 90.6303 458.626C90.6334 458.281 90.6771 457.937 90.7607 457.602L90.3511 456.857Z" fill="#BA68C8"/>
<path opacity="0.2" d="M90.3511 456.857L92.4735 455.646C92.9299 455.443 93.4316 455.364 93.9283 455.416C94.425 455.468 94.8992 455.65 95.3033 455.944C96.4731 456.708 97.4467 457.737 98.1453 458.947C98.8439 460.157 99.248 461.515 99.3247 462.911C99.3742 463.412 99.29 463.917 99.0807 464.375C98.8713 464.833 98.5444 465.228 98.1332 465.518L96.1598 466.636L95.806 466.04C95.3983 465.959 95.0078 465.808 94.6517 465.593C93.482 464.829 92.5084 463.8 91.8098 462.59C91.1112 461.38 90.7071 460.022 90.6303 458.626C90.6334 458.281 90.6771 457.937 90.7607 457.602L90.3511 456.857Z" fill="black"/>
<path d="M93.2741 457.099C94.4438 457.863 95.4174 458.892 96.116 460.102C96.8147 461.312 97.2187 462.67 97.2955 464.065C97.2955 466.636 95.4337 467.661 93.2741 466.375C92.1023 465.613 91.1271 464.585 90.4282 463.375C89.7293 462.164 89.3265 460.805 89.2527 459.409C89.2527 456.857 91.0586 455.814 93.2741 457.099Z" fill="#BA68C8"/>
<path d="M120.009 462.445L199.208 508.119C199.959 508.599 200.584 509.252 201.031 510.023C201.478 510.794 201.734 511.662 201.777 512.552V534.42C201.777 536.059 200.623 536.73 199.208 535.91L120.083 490.237C119.337 489.748 118.715 489.09 118.269 488.317C117.822 487.544 117.564 486.676 117.514 485.785V463.916C117.44 462.277 118.594 461.625 120.009 462.445Z" fill="#37474F"/>
<path d="M122.243 472.075C122.304 472.93 122.561 473.759 122.993 474.499C123.426 475.238 124.023 475.869 124.738 476.341L194.256 516.445C195.671 517.265 196.825 516.687 196.825 515.16C196.755 514.298 196.487 513.465 196.042 512.725C195.596 511.985 194.984 511.358 194.256 510.894L124.738 470.771C123.397 469.952 122.243 470.548 122.243 472.075Z" fill="#BA68C8"/>
<path d="M122.243 483.196C122.307 484.047 122.565 484.873 122.997 485.609C123.43 486.345 124.025 486.972 124.738 487.442L194.256 527.565C195.671 528.385 196.825 527.808 196.825 526.261C196.753 525.403 196.483 524.574 196.038 523.837C195.592 523.1 194.982 522.476 194.256 522.014L124.738 481.892C123.397 481.072 122.243 481.649 122.243 483.196Z" fill="#263238"/>
<path d="M124.738 481.892L172.771 509.59V515.178L124.738 487.442C124.011 486.981 123.401 486.357 122.956 485.62C122.51 484.883 122.241 484.054 122.168 483.196C122.243 481.649 123.397 481.072 124.738 481.892Z" fill="#BA68C8"/>
<path d="M264.369 424.688C263.754 424.697 263.149 424.536 262.619 424.222C261.976 423.781 261.464 423.174 261.136 422.466C260.809 421.758 260.678 420.975 260.758 420.198V409.916C260.853 407.994 261.41 406.124 262.383 404.463C263.355 402.803 264.714 401.402 266.343 400.379L341.949 356.699C342.569 356.186 343.332 355.877 344.134 355.812C344.936 355.747 345.738 355.931 346.433 356.337C347.127 356.743 347.68 357.353 348.017 358.084C348.354 358.815 348.458 359.632 348.316 360.424V370.669C348.221 372.591 347.663 374.462 346.691 376.122C345.719 377.782 344.36 379.183 342.731 380.206L266.957 423.943C266.171 424.405 265.281 424.661 264.369 424.688ZM344.425 357.63C343.764 357.654 343.122 357.853 342.563 358.207L266.939 401.888C265.593 402.782 264.473 403.975 263.666 405.374C262.858 406.774 262.385 408.341 262.284 409.954V420.236C262.227 420.716 262.294 421.204 262.48 421.651C262.666 422.098 262.964 422.49 263.345 422.788C263.797 422.969 264.287 423.031 264.769 422.97C265.252 422.908 265.71 422.723 266.101 422.434L341.707 378.753C343.05 377.857 344.169 376.663 344.976 375.265C345.783 373.866 346.257 372.299 346.361 370.688V360.405C346.423 359.924 346.357 359.436 346.171 358.988C345.985 358.54 345.684 358.149 345.3 357.853C345.031 357.708 344.731 357.631 344.425 357.63Z" fill="#455A64"/>
<path d="M341.875 366.217V371.209C341.859 371.562 341.757 371.906 341.579 372.211C341.4 372.516 341.15 372.773 340.851 372.96L339.715 373.631C339.156 373.947 338.691 373.631 338.691 373.035V368.042C338.713 367.691 338.817 367.349 338.995 367.045C339.173 366.741 339.419 366.483 339.715 366.292L340.851 365.621C341.428 365.304 341.875 365.565 341.875 366.217Z" fill="#BA68C8"/>
<path d="M336.736 369.179V374.171C336.719 374.521 336.619 374.863 336.444 375.167C336.269 375.472 336.025 375.73 335.731 375.922L334.576 376.592C334.018 376.909 333.571 376.592 333.571 375.996V371.004C333.59 370.654 333.69 370.313 333.865 370.009C334.039 369.704 334.283 369.446 334.576 369.253L335.731 368.583C336.289 368.266 336.736 368.527 336.736 369.179Z" fill="#BA68C8"/>
<path d="M331.598 372.14V377.133C331.581 377.483 331.481 377.825 331.306 378.129C331.131 378.434 330.886 378.692 330.592 378.884L329.438 379.554C328.879 379.871 328.433 379.554 328.433 378.958V373.966C328.451 373.616 328.552 373.275 328.726 372.97C328.901 372.666 329.145 372.407 329.438 372.215L330.592 371.544C331.151 371.228 331.598 371.489 331.598 372.14Z" fill="#BA68C8"/>
<path d="M326.478 375.102V380.094C326.457 380.446 326.354 380.788 326.176 381.093C325.998 381.397 325.75 381.655 325.454 381.845L324.318 382.516C323.76 382.832 323.294 382.516 323.294 381.92V376.928C323.316 376.576 323.42 376.234 323.598 375.93C323.776 375.626 324.023 375.368 324.318 375.177L325.454 374.506C326.012 374.189 326.478 374.394 326.478 375.102Z" fill="#BA68C8"/>
<path d="M321.339 378.12V383.112C321.317 383.463 321.213 383.805 321.035 384.109C320.858 384.413 320.611 384.671 320.315 384.863L319.18 385.533C318.621 385.85 318.156 385.533 318.156 384.937V379.982C318.178 379.631 318.282 379.289 318.46 378.985C318.638 378.681 318.884 378.423 319.18 378.232L320.315 377.561C320.874 377.151 321.339 377.412 321.339 378.12Z" fill="#37474F"/>
<path d="M316.201 381.026V386.018C316.183 386.37 316.081 386.714 315.903 387.018C315.725 387.323 315.476 387.581 315.177 387.769L314.041 388.439C313.483 388.756 313.036 388.439 313.036 387.843V382.851C313.054 382.501 313.155 382.16 313.33 381.856C313.504 381.551 313.748 381.293 314.041 381.1L315.177 380.43C315.754 380.113 316.201 380.374 316.201 381.026Z" fill="#37474F"/>
<path d="M311.062 383.987V388.979C311.044 389.33 310.943 389.671 310.769 389.975C310.594 390.279 310.35 390.538 310.057 390.73L308.903 391.401C308.344 391.718 307.897 391.401 307.897 390.805V385.813C307.916 385.463 308.017 385.121 308.191 384.817C308.366 384.513 308.61 384.254 308.903 384.062L310.057 383.391C310.616 383.075 311.062 383.335 311.062 383.987Z" fill="#BA68C8"/>
<path d="M305.924 386.949V391.941C305.905 392.291 305.805 392.632 305.63 392.937C305.455 393.241 305.212 393.5 304.918 393.692L303.783 394.363C303.206 394.679 302.759 394.363 302.759 393.767V388.774C302.775 388.421 302.876 388.078 303.055 387.773C303.233 387.468 303.483 387.21 303.783 387.024L304.918 386.353C305.477 386.036 305.924 386.297 305.924 386.949Z" fill="#BA68C8"/>
<path d="M300.804 389.911V394.884C300.782 395.236 300.678 395.577 300.5 395.881C300.322 396.185 300.076 396.444 299.78 396.635L298.645 397.306C298.086 397.622 297.621 397.306 297.621 396.71V391.718C297.641 391.366 297.745 391.023 297.923 390.719C298.101 390.415 298.348 390.157 298.645 389.967L299.743 389.296C300.339 388.998 300.804 389.296 300.804 389.911Z" fill="#BA68C8"/>
<path d="M295.666 392.872V397.865C295.644 398.216 295.539 398.558 295.362 398.862C295.184 399.166 294.937 399.424 294.642 399.616L293.506 400.286C292.947 400.603 292.482 400.286 292.482 399.69V394.698C292.502 394.346 292.606 394.004 292.784 393.7C292.962 393.395 293.209 393.137 293.506 392.947L294.642 392.276C295.2 391.96 295.666 392.221 295.666 392.872Z" fill="#37474F"/>
<path d="M290.527 395.834V400.826C290.509 401.177 290.408 401.518 290.233 401.822C290.059 402.126 289.815 402.385 289.522 402.577L288.368 403.248C287.809 403.564 287.362 403.248 287.362 402.652V397.66C287.379 397.309 287.479 396.967 287.654 396.663C287.829 396.359 288.073 396.1 288.368 395.909L289.522 395.238C290.08 394.884 290.527 395.182 290.527 395.834Z" fill="#BA68C8"/>
<path d="M285.389 398.796V403.788C285.37 404.138 285.27 404.479 285.095 404.784C284.92 405.088 284.676 405.346 284.383 405.539L283.229 406.209C282.67 406.526 282.224 406.21 282.224 405.613V400.621C282.241 400.271 282.341 399.929 282.515 399.625C282.69 399.32 282.935 399.062 283.229 398.87L284.383 398.2C284.942 397.883 285.389 398.144 285.389 398.796Z" fill="#BA68C8"/>
<path d="M280.269 401.758V406.75C280.247 407.101 280.143 407.443 279.965 407.747C279.787 408.051 279.54 408.309 279.245 408.501L278.109 409.171C277.532 409.488 277.085 409.171 277.085 408.575V403.583C277.101 403.23 277.203 402.886 277.381 402.581C277.56 402.276 277.809 402.019 278.109 401.832L279.245 401.162C279.803 400.845 280.269 401.106 280.269 401.758Z" fill="#37474F"/>
<path d="M275.13 404.719V409.786C275.108 410.138 275.004 410.479 274.826 410.783C274.649 411.087 274.402 411.345 274.106 411.537L272.971 412.189C272.412 412.524 271.947 412.189 271.947 411.611V406.619C271.967 406.267 272.071 405.925 272.249 405.621C272.427 405.317 272.674 405.059 272.971 404.868L274.106 404.198C274.665 403.807 275.13 404.067 275.13 404.719Z" fill="#BA68C8"/>
<path d="M269.955 407.681V412.673C269.937 413.026 269.835 413.369 269.657 413.674C269.479 413.979 269.23 414.236 268.931 414.424L267.795 415.076C267.237 415.411 266.771 415.076 266.771 414.499V409.507C266.792 409.155 266.895 408.813 267.073 408.508C267.251 408.204 267.499 407.946 267.795 407.756L268.931 407.085C269.545 406.768 269.955 407.029 269.955 407.681Z" fill="#37474F"/>
<path d="M253.813 417.665L251.691 416.454C251.239 416.247 250.739 416.166 250.245 416.218C249.75 416.271 249.279 416.455 248.88 416.752C247.704 417.512 246.726 418.539 246.024 419.75C245.321 420.961 244.916 422.321 244.84 423.719C244.788 424.218 244.871 424.721 245.081 425.177C245.29 425.633 245.619 426.023 246.031 426.308L248.005 427.426L248.358 426.83C248.766 426.749 249.157 426.597 249.513 426.383C250.683 425.619 251.656 424.59 252.355 423.38C253.053 422.169 253.457 420.812 253.534 419.416C253.531 419.071 253.487 418.727 253.404 418.392L253.813 417.665Z" fill="#37474F"/>
<path d="M250.89 417.907C249.718 418.669 248.743 419.697 248.044 420.908C247.346 422.119 246.943 423.478 246.869 424.874C246.869 427.444 248.731 428.469 250.89 427.184C252.062 426.422 253.037 425.394 253.736 424.183C254.435 422.972 254.838 421.613 254.912 420.217C254.912 417.665 253.199 416.622 250.89 417.907Z" fill="#455A64"/>
<path d="M236.443 427.742L234.321 426.532C233.864 426.329 233.363 426.25 232.866 426.302C232.369 426.354 231.895 426.536 231.491 426.83C230.321 427.594 229.348 428.622 228.649 429.833C227.95 431.043 227.546 432.401 227.47 433.796C227.418 434.296 227.5 434.8 227.705 435.258C227.911 435.716 228.235 436.111 228.643 436.404L230.616 437.522L230.97 436.944C231.377 436.851 231.766 436.694 232.124 436.479C233.296 435.717 234.271 434.689 234.97 433.478C235.669 432.267 236.072 430.908 236.145 429.512C236.142 429.167 236.099 428.823 236.015 428.488L236.443 427.742Z" fill="#37474F"/>
<path d="M233.427 427.985C232.257 428.749 231.284 429.777 230.585 430.988C229.887 432.198 229.483 433.556 229.406 434.951C229.406 437.522 231.268 438.546 233.427 437.28C234.6 436.515 235.576 435.483 236.275 434.27C236.974 433.056 237.376 431.694 237.449 430.294C237.449 427.743 235.661 426.699 233.427 427.985Z" fill="#455A64"/>
<path d="M120.009 417.237L199.208 462.892C199.959 463.372 200.584 464.025 201.031 464.796C201.478 465.568 201.734 466.435 201.777 467.325V489.193C201.777 490.833 200.623 491.503 199.208 490.684L120.083 445.01C119.337 444.521 118.715 443.863 118.269 443.09C117.822 442.317 117.564 441.449 117.514 440.558V418.69C117.44 417.05 118.594 416.399 120.009 417.237Z" fill="#455A64"/>
<path d="M122.243 426.848C122.304 427.703 122.561 428.532 122.993 429.272C123.426 430.012 124.023 430.642 124.738 431.114L194.33 471.255C195.745 472.075 196.899 471.498 196.899 469.97C196.83 469.109 196.562 468.275 196.116 467.535C195.67 466.795 195.059 466.168 194.33 465.705L124.738 425.544C123.397 424.688 122.243 425.321 122.243 426.848Z" fill="#BA68C8"/>
<path d="M122.243 437.969C122.304 438.824 122.561 439.653 122.993 440.392C123.426 441.132 124.023 441.762 124.738 442.234L194.33 482.432C195.745 483.251 196.899 482.674 196.899 481.147C196.83 480.285 196.562 479.452 196.116 478.712C195.67 477.971 195.059 477.345 194.33 476.881L124.738 436.665C123.397 435.864 122.243 436.423 122.243 437.969Z" fill="#263238"/>
<path d="M124.738 436.665L163.146 458.813V464.401L124.738 442.234C124.009 441.771 123.398 441.144 122.952 440.404C122.506 439.664 122.238 438.83 122.168 437.969C122.243 436.423 123.397 435.864 124.738 436.665Z" fill="#BA68C8"/>
<path d="M85.9387 401.199L102.266 410.512C103.611 411.391 104.729 412.574 105.531 413.965C106.334 415.357 106.797 416.918 106.883 418.522V427.836C106.883 430.779 104.817 431.989 102.266 430.499L85.9387 421.186C84.5919 420.305 83.4719 419.12 82.6696 417.725C81.8673 416.33 81.4054 414.765 81.3215 413.157V403.844C81.3215 400.919 83.3881 399.727 85.9387 401.199Z" fill="#F5F5F5"/>
<path d="M90.3511 411.76L92.4735 410.531C92.9283 410.326 93.4291 410.243 93.9258 410.292C94.4224 410.341 94.8975 410.52 95.3033 410.81C96.4735 411.578 97.447 412.611 98.1455 413.824C98.844 415.037 99.2479 416.398 99.3247 417.796C99.3747 418.294 99.2906 418.797 99.0811 419.252C98.8716 419.708 98.5444 420.099 98.1332 420.385L96.1598 421.521L95.806 420.925C95.3983 420.844 95.0078 420.693 94.6517 420.478C93.4854 419.712 92.5155 418.682 91.8202 417.472C91.1249 416.262 90.7237 414.905 90.649 413.511C90.6496 413.166 90.6934 412.822 90.7793 412.487L90.3511 411.76Z" fill="#BA68C8"/>
<path opacity="0.2" d="M90.3511 411.76L92.4735 410.531C92.9283 410.326 93.4291 410.243 93.9258 410.292C94.4224 410.341 94.8975 410.52 95.3033 410.81C96.4735 411.578 97.447 412.611 98.1455 413.824C98.844 415.037 99.2479 416.398 99.3247 417.796C99.3747 418.294 99.2906 418.797 99.0811 419.252C98.8716 419.708 98.5444 420.099 98.1332 420.385L96.1598 421.521L95.806 420.925C95.3983 420.844 95.0078 420.693 94.6517 420.478C93.4854 419.712 92.5155 418.682 91.8202 417.472C91.1249 416.262 90.7237 414.905 90.649 413.511C90.6496 413.166 90.6934 412.822 90.7793 412.487L90.3511 411.76Z" fill="black"/>
<path d="M93.2741 411.984C94.4442 412.752 95.4177 413.784 96.1162 414.997C96.8147 416.211 97.2186 417.571 97.2955 418.969C97.2955 421.521 95.4337 422.564 93.2741 421.279C92.1043 420.515 91.1308 419.486 90.4321 418.276C89.7335 417.066 89.3295 415.708 89.2527 414.312C89.2527 411.742 91.0586 410.699 93.2741 411.984Z" fill="#BA68C8"/>
<path d="M120.009 417.237L199.208 462.892C199.959 463.372 200.584 464.025 201.031 464.796C201.478 465.568 201.734 466.435 201.777 467.325V489.193C201.777 490.833 200.623 491.503 199.208 490.684L120.083 445.01C119.337 444.521 118.715 443.863 118.269 443.09C117.822 442.317 117.564 441.449 117.514 440.558V418.69C117.44 417.05 118.594 416.399 120.009 417.237Z" fill="#37474F"/>
<path d="M122.243 426.848C122.304 427.703 122.561 428.532 122.993 429.272C123.426 430.012 124.023 430.642 124.738 431.114L194.33 471.255C195.745 472.075 196.899 471.498 196.899 469.97C196.83 469.109 196.562 468.275 196.116 467.535C195.67 466.795 195.059 466.168 194.33 465.705L124.738 425.544C123.397 424.688 122.243 425.321 122.243 426.848Z" fill="#BA68C8"/>
<path d="M122.243 437.969C122.304 438.824 122.561 439.653 122.993 440.392C123.426 441.132 124.023 441.762 124.738 442.234L194.33 482.432C195.745 483.251 196.899 482.674 196.899 481.147C196.83 480.285 196.562 479.452 196.116 478.712C195.67 477.971 195.059 477.345 194.33 476.881L124.738 436.665C123.397 435.864 122.243 436.423 122.243 437.969Z" fill="#263238"/>
<path d="M124.738 436.665L163.146 458.813V464.401L124.738 442.234C124.009 441.771 123.398 441.144 122.952 440.404C122.506 439.664 122.238 438.83 122.168 437.969C122.243 436.423 123.397 435.864 124.738 436.665Z" fill="#BA68C8"/>
<path d="M85.9387 491.745L102.266 501.059C103.613 501.939 104.733 503.125 105.535 504.52C106.338 505.915 106.8 507.48 106.883 509.087V518.401C106.883 521.363 104.817 522.555 102.266 521.083L85.9387 511.77C84.5944 510.891 83.4758 509.708 82.6736 508.317C81.8715 506.925 81.4083 505.364 81.3215 503.76V494.446C81.3215 491.373 83.3881 490.181 85.9387 491.745Z" fill="#F5F5F5"/>
<path d="M90.3511 502.232L92.4735 501.003C92.9299 500.8 93.4316 500.721 93.9283 500.773C94.425 500.826 94.8992 501.008 95.3033 501.301C96.4731 502.065 97.4467 503.094 98.1453 504.304C98.8439 505.514 99.248 506.872 99.3247 508.268C99.3742 508.769 99.29 509.274 99.0807 509.732C98.8713 510.19 98.5444 510.585 98.1332 510.875L96.1598 512.012L95.806 511.416C95.4033 511.318 95.0153 511.168 94.6517 510.969C93.4816 510.201 92.5081 509.168 91.8096 507.955C91.1111 506.742 90.7072 505.381 90.6303 503.983C90.6334 503.638 90.6771 503.294 90.7607 502.959L90.3511 502.232Z" fill="#BA68C8"/>
<path opacity="0.2" d="M90.3511 502.232L92.4735 501.003C92.9299 500.8 93.4316 500.721 93.9283 500.773C94.425 500.826 94.8992 501.008 95.3033 501.301C96.4731 502.065 97.4467 503.094 98.1453 504.304C98.8439 505.514 99.248 506.872 99.3247 508.268C99.3742 508.769 99.29 509.274 99.0807 509.732C98.8713 510.19 98.5444 510.585 98.1332 510.875L96.1598 512.012L95.806 511.416C95.4033 511.318 95.0153 511.168 94.6517 510.969C93.4816 510.201 92.5081 509.168 91.8096 507.955C91.1111 506.742 90.7072 505.381 90.6303 503.983C90.6334 503.638 90.6771 503.294 90.7607 502.959L90.3511 502.232Z" fill="black"/>
<path d="M93.2741 502.456C94.4438 503.22 95.4174 504.249 96.116 505.459C96.8147 506.669 97.2187 508.027 97.2955 509.422C97.2955 511.993 95.4337 513.036 93.2741 511.751C92.1054 510.986 91.1326 509.957 90.4341 508.747C89.7356 507.537 89.3309 506.179 89.2527 504.784C89.2527 502.214 91.0586 501.171 93.2741 502.456Z" fill="#BA68C8"/>
<path d="M120.009 507.672L199.208 553.345C199.961 553.827 200.588 554.483 201.035 555.258C201.482 556.033 201.737 556.904 201.777 557.797V579.666C201.777 581.305 200.623 581.957 199.208 581.137L120.083 535.463C119.338 534.977 118.717 534.323 118.271 533.553C117.825 532.783 117.565 531.919 117.514 531.03V509.162C117.44 507.523 118.594 506.852 120.009 507.672Z" fill="#37474F"/>
<path d="M122.243 517.32C122.31 518.169 122.569 518.991 123.001 519.723C123.434 520.456 124.028 521.081 124.738 521.549L194.256 561.672C195.671 562.491 196.825 561.914 196.825 560.368C196.761 559.507 196.495 558.674 196.049 557.936C195.602 557.198 194.988 556.576 194.256 556.121L124.738 515.961C123.397 515.197 122.243 515.774 122.243 517.32Z" fill="#BA68C8"/>
<path d="M122.243 528.422C122.298 529.283 122.553 530.12 122.985 530.867C123.418 531.613 124.018 532.249 124.738 532.725L194.256 572.848C195.671 573.668 196.825 573.071 196.825 571.544C196.755 570.683 196.487 569.849 196.042 569.109C195.596 568.369 194.984 567.742 194.256 567.278L124.738 527.137C123.397 526.317 122.243 526.895 122.243 528.422Z" fill="#263238"/>
<path d="M124.738 527.137L163.146 549.285V554.873L124.738 532.725C124.009 532.261 123.398 531.635 122.952 530.894C122.506 530.154 122.238 529.321 122.168 528.459C122.243 526.895 123.397 526.317 124.738 527.137Z" fill="#BA68C8"/>
<path opacity="0.1" d="M325.677 114.639L220.153 175.606C219.308 176.037 218.374 176.262 217.425 176.262C216.477 176.262 215.542 176.037 214.698 175.606L109.155 114.639C108.824 114.529 108.536 114.318 108.332 114.036C108.128 113.753 108.018 113.414 108.018 113.065C108.018 112.716 108.128 112.377 108.332 112.094C108.536 111.811 108.824 111.6 109.155 111.491L214.698 52.6478C215.542 52.2161 216.477 51.991 217.425 51.991C218.374 51.991 219.308 52.2161 220.153 52.6478L325.677 111.491C326.008 111.6 326.296 111.811 326.5 112.094C326.704 112.377 326.814 112.716 326.814 113.065C326.814 113.414 326.704 113.753 326.5 114.036C326.296 114.318 326.008 114.529 325.677 114.639Z" fill="black"/>
<path d="M220.041 172.271L321.023 113.931C321.781 113.433 322.412 112.765 322.865 111.978C323.318 111.192 323.579 110.311 323.629 109.405V105.996C323.578 105.09 323.315 104.209 322.863 103.423C322.41 102.637 321.78 101.968 321.023 101.469L220.041 43.1479C219.231 42.7342 218.335 42.5185 217.425 42.5185C216.516 42.5185 215.619 42.7342 214.809 43.1479L113.828 101.469C113.066 101.965 112.431 102.633 111.975 103.419C111.519 104.206 111.255 105.088 111.203 105.996V109.405C111.252 110.313 111.515 111.197 111.971 111.984C112.428 112.77 113.064 113.438 113.828 113.931L214.809 172.271C215.622 172.675 216.518 172.885 217.425 172.885C218.333 172.885 219.228 172.675 220.041 172.271Z" fill="#BA68C8"/>
<path opacity="0.5" d="M220.041 172.271L321.023 113.931C321.781 113.433 322.412 112.765 322.865 111.978C323.318 111.192 323.579 110.311 323.629 109.405V105.996C323.578 105.09 323.315 104.209 322.863 103.423C322.41 102.637 321.78 101.968 321.023 101.469L220.041 43.1479C219.231 42.7342 218.335 42.5185 217.425 42.5185C216.516 42.5185 215.619 42.7342 214.809 43.1479L113.828 101.469C113.066 101.965 112.431 102.633 111.975 103.419C111.519 104.206 111.255 105.088 111.203 105.996V109.405C111.252 110.313 111.515 111.197 111.971 111.984C112.428 112.77 113.064 113.438 113.828 113.931L214.809 172.271C215.622 172.675 216.518 172.885 217.425 172.885C218.333 172.885 219.228 172.675 220.041 172.271Z" fill="white"/>
<path opacity="0.05" d="M220.041 172.271L321.023 113.931C321.781 113.433 322.412 112.765 322.865 111.978C323.318 111.192 323.579 110.311 323.629 109.405V105.996C323.578 105.09 323.315 104.209 322.863 103.423C322.41 102.637 321.78 101.968 321.023 101.469L220.041 43.1479C219.231 42.7342 218.335 42.5185 217.425 42.5185C216.516 42.5185 215.619 42.7342 214.809 43.1479L113.828 101.469C113.066 101.965 112.431 102.633 111.975 103.419C111.519 104.206 111.255 105.088 111.203 105.996V109.405C111.252 110.313 111.515 111.197 111.971 111.984C112.428 112.77 113.064 113.438 113.828 113.931L214.809 172.271C215.622 172.675 216.518 172.885 217.425 172.885C218.333 172.885 219.228 172.675 220.041 172.271Z" fill="black"/>
<path d="M321.023 104.487L220.041 162.827C219.231 163.241 218.335 163.457 217.425 163.457C216.516 163.457 215.62 163.241 214.81 162.827L113.828 104.487C113.508 104.385 113.228 104.184 113.03 103.913C112.832 103.642 112.725 103.314 112.725 102.978C112.725 102.642 112.832 102.315 113.03 102.044C113.228 101.772 113.508 101.571 113.828 101.469L214.81 45.1596C215.62 44.7459 216.516 44.5302 217.425 44.5302C218.335 44.5302 219.231 44.7459 220.041 45.1596L321.023 101.469C321.334 101.581 321.603 101.785 321.794 102.055C321.984 102.325 322.086 102.648 322.086 102.978C322.086 103.309 321.984 103.631 321.794 103.901C321.603 104.171 321.334 104.376 321.023 104.487Z" fill="#BA68C8"/>
<path opacity="0.7" d="M321.023 104.487L220.041 162.827C219.231 163.241 218.335 163.457 217.425 163.457C216.516 163.457 215.62 163.241 214.81 162.827L113.828 104.487C113.508 104.385 113.228 104.184 113.03 103.913C112.832 103.642 112.725 103.314 112.725 102.978C112.725 102.642 112.832 102.315 113.03 102.044C113.228 101.772 113.508 101.571 113.828 101.469L214.81 45.1596C215.62 44.7459 216.516 44.5302 217.425 44.5302C218.335 44.5302 219.231 44.7459 220.041 45.1596L321.023 101.469C321.334 101.581 321.603 101.785 321.794 102.055C321.984 102.325 322.086 102.648 322.086 102.978C322.086 103.309 321.984 103.631 321.794 103.901C321.603 104.171 321.334 104.376 321.023 104.487Z" fill="white"/>
<path d="M217.416 163.442V172.886C218.323 172.903 219.219 172.692 220.022 172.271L321.023 113.931C321.78 113.432 322.41 112.763 322.863 111.977C323.316 111.191 323.578 110.31 323.629 109.405V105.996C323.583 105.189 323.371 104.4 323.006 103.679C322.64 102.957 322.13 102.319 321.507 101.805C322.438 102.643 322.289 103.761 321.023 104.487L220.022 162.827C219.222 163.257 218.324 163.469 217.416 163.442Z" fill="#BA68C8"/>
<path opacity="0.6" d="M217.416 163.442V172.886C218.323 172.903 219.219 172.692 220.022 172.271L321.023 113.931C321.78 113.432 322.41 112.763 322.863 111.977C323.316 111.191 323.578 110.31 323.629 109.405V105.996C323.583 105.189 323.371 104.4 323.006 103.679C322.64 102.957 322.13 102.319 321.507 101.805C322.438 102.643 322.289 103.761 321.023 104.487L220.022 162.827C219.222 163.257 218.324 163.469 217.416 163.442Z" fill="white"/>
<path d="M220.041 143.958L288.33 104.487C289.095 103.995 289.732 103.328 290.189 102.541C290.645 101.754 290.908 100.869 290.956 99.9607V96.5706C290.908 95.6619 290.645 94.7775 290.189 93.9905C289.732 93.2035 289.095 92.5363 288.33 92.0442L244.542 66.7485C242.858 65.6925 241.366 64.357 240.13 62.7996L219.222 34.6167C218.716 33.9629 217.994 33.5115 217.184 33.3442C216.375 33.1768 215.533 33.3044 214.81 33.704L146.502 73.1563C145.742 73.6527 145.111 74.3213 144.658 75.1077C144.205 75.8942 143.944 76.7763 143.895 77.6827V100.035C143.942 100.942 144.203 101.825 144.656 102.611C145.109 103.398 145.741 104.066 146.502 104.562L214.81 144.033C215.628 144.425 216.527 144.622 217.434 144.609C218.342 144.596 219.234 144.373 220.041 143.958Z" fill="#263238"/>
<path d="M214.809 134.514L171.021 109.218C169.333 108.175 167.84 106.845 166.609 105.288L145.682 77.0866C145.447 76.7856 145.28 76.4367 145.193 76.0644C145.106 75.6921 145.101 75.3053 145.179 74.931C145.257 74.5567 145.416 74.204 145.644 73.8974C145.873 73.5909 146.165 73.3379 146.502 73.1562L214.809 33.704C215.533 33.3044 216.375 33.1768 217.184 33.3442C217.994 33.5115 218.716 33.9629 219.222 34.6167L240.167 62.7996C241.266 64.3956 242.64 65.7833 244.225 66.8975L288.368 92.0442C288.688 92.146 288.967 92.3471 289.165 92.6184C289.363 92.8896 289.47 93.2169 289.47 93.553C289.47 93.889 289.363 94.2163 289.165 94.4876C288.967 94.7588 288.688 94.9599 288.368 95.0618L220.078 134.514C219.264 134.934 218.36 135.153 217.444 135.153C216.527 135.153 215.624 134.934 214.809 134.514Z" fill="#455A64"/>
<path d="M146.502 73.1562L214.809 33.704C215.533 33.3044 216.375 33.1768 217.184 33.3442C217.993 33.5115 218.716 33.9629 219.222 34.6167L240.167 62.7996C240.801 63.617 241.518 64.3661 242.308 65.0348C242.308 65.0348 168.787 107.523 168.768 107.505C167.984 106.843 167.273 106.1 166.646 105.288L145.682 77.0866C145.447 76.7856 145.28 76.4367 145.193 76.0644C145.106 75.6921 145.101 75.3053 145.179 74.931C145.257 74.5567 145.416 74.204 145.644 73.8974C145.873 73.5909 146.165 73.3379 146.502 73.1562Z" fill="#37474F"/>
<path d="M271.817 92.7334C270.869 92.2464 269.819 91.9924 268.754 91.9924C267.689 91.9924 266.639 92.2464 265.691 92.7334C265.319 92.8559 264.995 93.0929 264.765 93.4107C264.535 93.7284 264.411 94.1107 264.411 94.503C264.411 94.8952 264.535 95.2775 264.765 95.5953C264.995 95.913 265.319 96.15 265.691 96.2725C266.641 96.7508 267.69 96.9999 268.754 96.9999C269.818 96.9999 270.866 96.7508 271.817 96.2725C272.189 96.15 272.513 95.913 272.743 95.5953C272.973 95.2775 273.097 94.8952 273.097 94.503C273.097 94.1107 272.973 93.7284 272.743 93.4107C272.513 93.0929 272.189 92.8559 271.817 92.7334Z" fill="#BA68C8"/>
<path d="M259.51 99.8117C258.563 99.3247 257.513 99.0707 256.448 99.0707C255.383 99.0707 254.333 99.3247 253.385 99.8117C253.013 99.9342 252.688 100.171 252.458 100.489C252.229 100.807 252.105 101.189 252.105 101.581C252.105 101.974 252.229 102.356 252.458 102.674C252.688 102.991 253.013 103.228 253.385 103.351C254.335 103.829 255.384 104.078 256.448 104.078C257.511 104.078 258.56 103.829 259.51 103.351C259.883 103.228 260.207 102.991 260.437 102.674C260.667 102.356 260.791 101.974 260.791 101.581C260.791 101.189 260.667 100.807 260.437 100.489C260.207 100.171 259.883 99.9342 259.51 99.8117Z" fill="#BA68C8"/>
<path d="M247.26 106.89C246.313 106.403 245.263 106.149 244.197 106.149C243.132 106.149 242.082 106.403 241.135 106.89C240.762 107.012 240.438 107.249 240.208 107.567C239.978 107.885 239.854 108.267 239.854 108.66C239.854 109.052 239.978 109.434 240.208 109.752C240.438 110.07 240.762 110.307 241.135 110.429C242.085 110.907 243.134 111.157 244.197 111.157C245.261 111.157 246.31 110.907 247.26 110.429C247.633 110.307 247.957 110.07 248.187 109.752C248.417 109.434 248.541 109.052 248.541 108.66C248.541 108.267 248.417 107.885 248.187 107.567C247.957 107.249 247.633 107.012 247.26 106.89Z" fill="#263238"/>
<path d="M234.991 113.968C234.044 113.481 232.994 113.227 231.928 113.227C230.863 113.227 229.813 113.481 228.866 113.968C228.493 114.091 228.169 114.328 227.939 114.646C227.709 114.963 227.585 115.346 227.585 115.738C227.585 116.13 227.709 116.512 227.939 116.83C228.169 117.148 228.493 117.385 228.866 117.507C229.816 117.986 230.865 118.235 231.928 118.235C232.992 118.235 234.041 117.986 234.991 117.507C235.364 117.385 235.688 117.148 235.918 116.83C236.148 116.512 236.271 116.13 236.271 115.738C236.271 115.346 236.148 114.963 235.918 114.646C235.688 114.328 235.364 114.091 234.991 113.968Z" fill="#263238"/>
<path d="M262.508 87.4246C261.56 86.9376 260.51 86.6836 259.445 86.6836C258.38 86.6836 257.33 86.9376 256.382 87.4246C256.01 87.5471 255.686 87.7841 255.456 88.1019C255.226 88.4196 255.102 88.8019 255.102 89.1942C255.102 89.5865 255.226 89.9688 255.456 90.2865C255.686 90.6043 256.01 90.8413 256.382 90.9638C257.333 91.4421 258.381 91.6912 259.445 91.6912C260.509 91.6912 261.558 91.4421 262.508 90.9638C262.88 90.8413 263.204 90.6043 263.434 90.2865C263.664 89.9688 263.788 89.5865 263.788 89.1942C263.788 88.8019 263.664 88.4196 263.434 88.1019C263.204 87.7841 262.88 87.5471 262.508 87.4246Z" fill="#BA68C8"/>
<path d="M250.313 94.5029C249.366 94.0159 248.316 93.7619 247.25 93.7619C246.185 93.7619 245.135 94.0159 244.188 94.5029C243.815 94.6254 243.491 94.8624 243.261 95.1802C243.031 95.498 242.907 95.8802 242.907 96.2725C242.907 96.6648 243.031 97.0471 243.261 97.3648C243.491 97.6826 243.815 97.9196 244.188 98.0421C245.138 98.5204 246.187 98.7695 247.25 98.7695C248.314 98.7695 249.363 98.5204 250.313 98.0421C250.686 97.9196 251.01 97.6826 251.24 97.3648C251.47 97.0471 251.594 96.6648 251.594 96.2725C251.594 95.8802 251.47 95.498 251.24 95.1802C251.01 94.8624 250.686 94.6254 250.313 94.5029Z" fill="#263238"/>
<path d="M234.991 105.847C237.387 105.847 239.329 104.729 239.329 103.351C239.329 101.972 237.387 100.855 234.991 100.855C232.595 100.855 230.653 101.972 230.653 103.351C230.653 104.729 232.595 105.847 234.991 105.847Z" fill="#BA68C8"/>
<path d="M225.813 108.66C224.865 108.173 223.815 107.919 222.75 107.919C221.685 107.919 220.635 108.173 219.687 108.66C219.315 108.782 218.991 109.019 218.761 109.337C218.531 109.655 218.407 110.037 218.407 110.429C218.407 110.821 218.531 111.204 218.761 111.521C218.991 111.839 219.315 112.076 219.687 112.199C220.638 112.677 221.686 112.926 222.75 112.926C223.814 112.926 224.862 112.677 225.813 112.199C226.185 112.076 226.509 111.839 226.739 111.521C226.969 111.204 227.093 110.821 227.093 110.429C227.093 110.037 226.969 109.655 226.739 109.337C226.509 109.019 226.185 108.782 225.813 108.66Z" fill="#263238"/>
<path d="M253.385 82.1159C252.438 81.6289 251.388 81.3749 250.323 81.3749C249.257 81.3749 248.207 81.6289 247.26 82.1159C246.887 82.2384 246.563 82.4754 246.333 82.7932C246.103 83.1109 245.979 83.4932 245.979 83.8855C245.979 84.2777 246.103 84.66 246.333 84.9778C246.563 85.2955 246.887 85.5326 247.26 85.6551C248.21 86.1334 249.259 86.3825 250.323 86.3825C251.386 86.3825 252.435 86.1334 253.385 85.6551C253.758 85.5326 254.082 85.2955 254.312 84.9778C254.542 84.66 254.666 84.2777 254.666 83.8855C254.666 83.4932 254.542 83.1109 254.312 82.7932C254.082 82.4754 253.758 82.2384 253.385 82.1159Z" fill="#263238"/>
<path d="M241.135 89.1942C240.184 88.707 239.131 88.453 238.063 88.453C236.995 88.453 235.942 88.707 234.991 89.1942C234.618 89.3167 234.294 89.5537 234.064 89.8714C233.834 90.1892 233.71 90.5715 233.71 90.9638C233.71 91.356 233.834 91.7383 234.064 92.0561C234.294 92.3738 234.618 92.6108 234.991 92.7333C235.945 93.2104 236.996 93.4588 238.063 93.4588C239.129 93.4588 240.181 93.2104 241.135 92.7333C241.507 92.6108 241.831 92.3738 242.061 92.0561C242.291 91.7383 242.415 91.356 242.415 90.9638C242.415 90.5715 242.291 90.1892 242.061 89.8714C241.831 89.5537 241.507 89.3167 241.135 89.1942Z" fill="#BA68C8"/>
<path d="M228.866 96.2725C227.918 95.7855 226.868 95.5314 225.803 95.5314C224.738 95.5314 223.688 95.7855 222.741 96.2725C222.368 96.395 222.044 96.632 221.814 96.9497C221.584 97.2675 221.46 97.6498 221.46 98.042C221.46 98.4343 221.584 98.8166 221.814 99.1344C222.044 99.4521 222.368 99.6891 222.741 99.8116C223.691 100.29 224.74 100.539 225.803 100.539C226.867 100.539 227.916 100.29 228.866 99.8116C229.238 99.6891 229.563 99.4521 229.793 99.1344C230.022 98.8166 230.146 98.4343 230.146 98.042C230.146 97.6498 230.022 97.2675 229.793 96.9497C229.563 96.632 229.238 96.395 228.866 96.2725Z" fill="#263238"/>
<path d="M222.685 120.898C221.731 120.421 220.679 120.172 219.613 120.172C218.546 120.172 217.495 120.421 216.541 120.898C216.168 121.02 215.844 121.257 215.614 121.575C215.384 121.893 215.26 122.275 215.26 122.667C215.26 123.059 215.384 123.442 215.614 123.759C215.844 124.077 216.168 124.314 216.541 124.437C217.492 124.924 218.545 125.178 219.613 125.178C220.681 125.178 221.734 124.924 222.685 124.437C223.057 124.314 223.381 124.077 223.611 123.759C223.841 123.442 223.965 123.059 223.965 122.667C223.965 122.275 223.841 121.893 223.611 121.575C223.381 121.257 223.057 121.02 222.685 120.898Z" fill="#BA68C8"/>
<path d="M210.416 119.854C212.812 119.854 214.754 118.737 214.754 117.358C214.754 115.98 212.812 114.862 210.416 114.862C208.02 114.862 206.078 115.98 206.078 117.358C206.078 118.737 208.02 119.854 210.416 119.854Z" fill="#263238"/>
<path d="M216.616 103.351C215.665 102.873 214.617 102.623 213.553 102.623C212.489 102.623 211.441 102.873 210.49 103.351C210.118 103.473 209.794 103.71 209.564 104.028C209.334 104.346 209.21 104.728 209.21 105.12C209.21 105.513 209.334 105.895 209.564 106.213C209.794 106.531 210.118 106.768 210.49 106.89C211.438 107.377 212.488 107.631 213.553 107.631C214.618 107.631 215.668 107.377 216.616 106.89C216.988 106.768 217.312 106.531 217.542 106.213C217.772 105.895 217.896 105.513 217.896 105.12C217.896 104.728 217.772 104.346 217.542 104.028C217.312 103.71 216.988 103.473 216.616 103.351Z" fill="#263238"/>
<path d="M244.188 76.8071C243.238 76.3288 242.189 76.0797 241.125 76.0797C240.062 76.0797 239.013 76.3288 238.063 76.8071C237.69 76.9296 237.366 77.1666 237.136 77.4844C236.906 77.8022 236.782 78.1844 236.782 78.5767C236.782 78.969 236.906 79.3513 237.136 79.669C237.366 79.9868 237.69 80.2238 238.063 80.3463C239.01 80.8333 240.06 81.0873 241.125 81.0873C242.191 81.0873 243.241 80.8333 244.188 80.3463C244.561 80.2238 244.885 79.9868 245.115 79.669C245.345 79.3513 245.468 78.969 245.468 78.5767C245.468 78.1844 245.345 77.8022 245.115 77.4844C244.885 77.1666 244.561 76.9296 244.188 76.8071Z" fill="#BA68C8"/>
<path d="M231.938 83.811C230.987 83.3327 229.939 83.0836 228.875 83.0836C227.811 83.0836 226.763 83.3327 225.812 83.811C225.44 83.9334 225.116 84.1705 224.886 84.4882C224.656 84.806 224.532 85.1883 224.532 85.5805C224.532 85.9728 224.656 86.3551 224.886 86.6729C225.116 86.9906 225.44 87.2276 225.812 87.3501C226.76 87.8371 227.81 88.0912 228.875 88.0912C229.94 88.0912 230.99 87.8371 231.938 87.3501C232.31 87.2276 232.634 86.9906 232.864 86.6729C233.094 86.3551 233.218 85.9728 233.218 85.5805C233.218 85.1883 233.094 84.806 232.864 84.4882C232.634 84.1705 232.31 83.9334 231.938 83.811Z" fill="#263238"/>
<path d="M219.687 90.9638C218.737 90.4855 217.688 90.2364 216.625 90.2364C215.561 90.2364 214.512 90.4855 213.562 90.9638C213.19 91.0863 212.865 91.3233 212.635 91.6411C212.406 91.9588 212.282 92.3411 212.282 92.7334C212.282 93.1256 212.406 93.5079 212.635 93.8257C212.865 94.1434 213.19 94.3805 213.562 94.5029C214.51 94.9899 215.56 95.244 216.625 95.244C217.69 95.244 218.74 94.9899 219.687 94.5029C220.06 94.3805 220.384 94.1434 220.614 93.8257C220.844 93.5079 220.968 93.1256 220.968 92.7334C220.968 92.3411 220.844 91.9588 220.614 91.6411C220.384 91.3233 220.06 91.0863 219.687 90.9638Z" fill="#BA68C8"/>
<path d="M207.437 98.0421C206.483 97.565 205.431 97.3167 204.365 97.3167C203.299 97.3167 202.247 97.565 201.293 98.0421C200.921 98.1646 200.596 98.4016 200.366 98.7193C200.136 99.0371 200.013 99.4194 200.013 99.8117C200.013 100.204 200.136 100.586 200.366 100.904C200.596 101.222 200.921 101.459 201.293 101.581C202.244 102.068 203.297 102.322 204.365 102.322C205.433 102.322 206.486 102.068 207.437 101.581C207.809 101.459 208.134 101.222 208.364 100.904C208.594 100.586 208.717 100.204 208.717 99.8117C208.717 99.4194 208.594 99.0371 208.364 98.7193C208.134 98.4016 207.809 98.1646 207.437 98.0421Z" fill="#263238"/>
<path d="M204.291 110.299C203.343 109.812 202.293 109.558 201.228 109.558C200.163 109.558 199.113 109.812 198.165 110.299C197.793 110.421 197.469 110.658 197.239 110.976C197.009 111.294 196.885 111.676 196.885 112.068C196.885 112.461 197.009 112.843 197.239 113.161C197.469 113.478 197.793 113.715 198.165 113.838C199.116 114.316 200.164 114.565 201.228 114.565C202.292 114.565 203.34 114.316 204.291 113.838C204.663 113.715 204.987 113.478 205.217 113.161C205.447 112.843 205.571 112.461 205.571 112.068C205.571 111.676 205.447 111.294 205.217 110.976C204.987 110.658 204.663 110.421 204.291 110.299Z" fill="#BA68C8"/>
<path d="M195.112 104.99C194.161 104.503 193.109 104.249 192.04 104.249C190.972 104.249 189.919 104.503 188.968 104.99C188.596 105.113 188.272 105.35 188.042 105.667C187.812 105.985 187.688 106.367 187.688 106.76C187.688 107.152 187.812 107.534 188.042 107.852C188.272 108.17 188.596 108.407 188.968 108.529C189.922 109.006 190.974 109.255 192.04 109.255C193.107 109.255 194.158 109.006 195.112 108.529C195.485 108.407 195.809 108.17 196.039 107.852C196.269 107.534 196.393 107.152 196.393 106.76C196.393 106.367 196.269 105.985 196.039 105.667C195.809 105.35 195.485 105.113 195.112 104.99Z" fill="#263238"/>
<path d="M217.267 135.129V144.554C218.221 144.594 219.17 144.389 220.022 143.958L288.33 104.487C289.095 103.995 289.732 103.328 290.189 102.541C290.645 101.754 290.908 100.869 290.955 99.9607V96.5519C290.907 95.746 290.691 94.959 290.323 94.2408C289.954 93.5225 289.441 92.8887 288.814 92.3795C289.764 93.199 289.596 94.2422 288.33 95.0431L220.022 134.514C219.175 134.961 218.224 135.173 217.267 135.129Z" fill="#37474F"/>
<path d="M231.1 61.626C230.764 61.1891 230.282 60.887 229.743 60.7743C229.203 60.6615 228.641 60.7456 228.158 61.0113L168.656 95.2667C168.445 95.4006 168.263 95.5757 168.121 95.7816C167.979 95.9875 167.879 96.22 167.829 96.4651C167.779 96.7103 167.778 96.9631 167.827 97.2084C167.877 97.4538 167.975 97.6866 168.117 97.8931C168.453 98.33 168.934 98.6321 169.474 98.7449C170.013 98.8576 170.575 98.7735 171.058 98.5078L230.485 64.1779C230.904 63.9198 231.203 63.5067 231.318 63.0287C231.433 62.5506 231.355 62.0464 231.1 61.626Z" fill="#263238"/>
<path d="M231.1 61.626C230.764 61.1891 230.282 60.887 229.743 60.7743C229.203 60.6615 228.641 60.7456 228.158 61.0113L183.96 86.5305L186.436 89.8462L230.616 64.327C230.834 64.1888 231.02 64.0068 231.164 63.7927C231.308 63.5785 231.405 63.3368 231.451 63.0829C231.496 62.829 231.489 62.5684 231.428 62.3176C231.368 62.0668 231.256 61.8313 231.1 61.626Z" fill="#BA68C8"/>
<path d="M226.185 55.032C225.848 54.5951 225.367 54.2929 224.828 54.1802C224.288 54.0675 223.726 54.1516 223.243 54.4173L163.834 88.6726C163.623 88.8065 163.441 88.9816 163.299 89.1875C163.157 89.3935 163.057 89.6259 163.007 89.8711C162.957 90.1162 162.956 90.369 163.005 90.6144C163.055 90.8597 163.153 91.0926 163.295 91.299C163.631 91.7359 164.112 92.038 164.652 92.1508C165.191 92.2635 165.753 92.1795 166.236 91.9137L225.645 57.7329C225.867 57.5993 226.059 57.4208 226.208 57.2088C226.357 56.9968 226.46 56.756 226.511 56.5018C226.562 56.2475 226.559 55.9855 226.503 55.7324C226.447 55.4793 226.338 55.2407 226.185 55.032Z" fill="#263238"/>
<path d="M226.185 55.032C225.849 54.5951 225.367 54.2929 224.828 54.1802C224.288 54.0675 223.726 54.1516 223.243 54.4173L208.461 62.9485L210.937 66.2455L225.645 57.7329C225.867 57.5993 226.059 57.4208 226.208 57.2088C226.357 56.9968 226.46 56.756 226.511 56.5018C226.562 56.2475 226.559 55.9855 226.503 55.7324C226.447 55.4793 226.338 55.2407 226.185 55.032Z" fill="#BA68C8"/>
<path d="M221.27 48.4193V48.3262C220.931 47.8924 220.45 47.5927 219.911 47.4802C219.373 47.3676 218.812 47.4496 218.328 47.7115L158.826 82.0786C158.605 82.2005 158.412 82.3691 158.262 82.5727C158.111 82.7763 158.007 83.0101 157.956 83.2579C157.904 83.5058 157.907 83.7619 157.964 84.0085C158.022 84.2551 158.131 84.4864 158.287 84.6864V84.7795C158.623 85.2165 159.106 85.5174 159.646 85.6269C160.186 85.7364 160.748 85.6472 161.228 85.3756L220.655 51.0644C220.875 50.9367 221.067 50.7653 221.218 50.5607C221.369 50.3561 221.477 50.1227 221.535 49.8749C221.592 49.627 221.598 49.37 221.553 49.1197C221.507 48.8693 221.411 48.631 221.27 48.4193Z" fill="#263238"/>
<path d="M221.27 48.4193V48.3262C220.931 47.8924 220.45 47.5927 219.911 47.4802C219.373 47.3676 218.812 47.4496 218.328 47.7115L187.367 65.5377L189.843 68.8533L220.786 51.0271C221.003 50.9004 221.191 50.7281 221.335 50.5223C221.48 50.3164 221.579 50.0817 221.625 49.8342C221.671 49.5867 221.663 49.3322 221.602 49.088C221.54 48.8438 221.427 48.6158 221.27 48.4193Z" fill="#BA68C8"/>
<path d="M216.355 41.8254C216.018 41.3885 215.537 41.0863 214.998 40.9736C214.458 40.8609 213.896 40.9449 213.413 41.2107L153.911 75.4846C153.69 75.6065 153.497 75.7751 153.347 75.9787C153.196 76.1823 153.092 76.4161 153.041 76.664C152.989 76.9119 152.992 77.1679 153.049 77.4145C153.106 77.6611 153.216 77.8924 153.371 78.0924C153.713 78.5231 154.195 78.8192 154.733 78.9283C155.272 79.0374 155.831 78.9524 156.313 78.6885L215.74 44.3587C215.957 44.2422 216.146 44.0815 216.297 43.8869C216.447 43.6923 216.555 43.4682 216.613 43.2292C216.671 42.9902 216.678 42.7417 216.633 42.4998C216.589 42.2579 216.494 42.0281 216.355 41.8254Z" fill="#263238"/>
<path d="M216.355 41.8254C216.018 41.3885 215.537 41.0863 214.998 40.9736C214.458 40.8609 213.896 40.9449 213.413 41.2107L159.422 72.3739L161.88 75.6895L215.871 44.5263C216.103 44.4014 216.304 44.2256 216.459 44.012C216.614 43.7984 216.718 43.5526 216.765 43.2929C216.812 43.0331 216.799 42.7662 216.728 42.5121C216.657 42.258 216.529 42.0232 216.355 41.8254Z" fill="#BA68C8"/>
<path d="M227.134 580.802V564.913C227.176 564.024 227.429 563.158 227.873 562.387C228.316 561.616 228.938 560.962 229.685 560.48L248.638 549.489C250.053 548.67 251.207 549.322 251.207 550.961V566.85C251.165 567.739 250.912 568.605 250.468 569.376C250.025 570.147 249.403 570.801 248.656 571.283L229.741 582.273C228.326 583.018 227.134 582.441 227.134 580.802Z" fill="white"/>
<path d="M238.733 571.078L236.611 569.849C236.203 569.556 235.88 569.161 235.674 568.703C235.468 568.245 235.386 567.741 235.438 567.241C235.516 565.846 235.921 564.489 236.619 563.279C237.318 562.069 238.291 561.04 239.459 560.275C239.869 559.984 240.347 559.806 240.846 559.757C241.346 559.708 241.85 559.79 242.308 559.995L244.281 561.15L243.946 561.746C244.06 562.146 244.123 562.559 244.132 562.976C244.067 564.373 243.675 565.735 242.986 566.951C242.297 568.168 241.331 569.206 240.167 569.979C239.86 570.152 239.536 570.289 239.199 570.389L238.733 571.078Z" fill="#BA68C8"/>
<path opacity="0.2" d="M238.733 571.078L236.611 569.849C236.203 569.556 235.88 569.161 235.674 568.703C235.468 568.245 235.386 567.741 235.438 567.241C235.516 565.846 235.921 564.489 236.619 563.279C237.318 562.069 238.291 561.04 239.459 560.275C239.869 559.984 240.347 559.806 240.846 559.757C241.346 559.708 241.85 559.79 242.308 559.995L244.281 561.15L243.946 561.746C244.06 562.146 244.123 562.559 244.132 562.976C244.067 564.373 243.675 565.735 242.986 566.951C242.297 568.168 241.331 569.206 240.167 569.979C239.86 570.152 239.536 570.289 239.199 570.389L238.733 571.078Z" fill="black"/>
<path d="M237.467 568.433C237.539 567.037 237.942 565.677 238.641 564.466C239.34 563.255 240.316 562.227 241.488 561.467C243.704 560.181 245.51 561.225 245.51 563.777C245.433 565.175 245.029 566.535 244.331 567.748C243.632 568.962 242.659 569.994 241.488 570.762C239.254 572.028 237.467 571.004 237.467 568.433Z" fill="#BA68C8"/>
<path d="M227.134 551.017V471.088C227.176 470.199 227.429 469.333 227.873 468.562C228.316 467.791 228.938 467.137 229.685 466.655L248.619 455.72C250.034 454.901 251.188 455.571 251.188 457.192V537.121C251.146 538.01 250.893 538.876 250.45 539.647C250.006 540.418 249.385 541.072 248.638 541.554L229.703 552.488C228.326 553.308 227.134 552.656 227.134 551.017Z" fill="#455A64"/>
<path d="M234.395 544.255C235.105 543.764 235.691 543.115 236.108 542.358C236.525 541.602 236.761 540.759 236.797 539.897V471.088C236.797 469.467 235.736 468.76 234.395 469.523C233.686 470.015 233.099 470.664 232.683 471.42C232.266 472.177 232.03 473.019 231.994 473.882V542.672C231.994 544.311 233.073 545.019 234.395 544.255Z" fill="#BA68C8"/>
<path d="M244.021 538.686C244.728 538.196 245.313 537.55 245.729 536.797C246.146 536.044 246.383 535.205 246.422 534.346V465.537C246.422 463.898 245.342 463.19 244.021 463.972C243.307 464.456 242.718 465.101 242.3 465.855C241.883 466.609 241.65 467.451 241.619 468.312V537.121C241.619 538.76 242.68 539.45 244.021 538.686Z" fill="#263238"/>
<path d="M241.619 537.121V488.02L246.422 485.245V534.346C246.383 535.205 246.146 536.044 245.729 536.797C245.313 537.55 244.728 538.196 244.021 538.686C242.68 539.45 241.619 538.76 241.619 537.121Z" fill="#BA68C8"/>
<path d="M259.715 562.026V546.155C259.765 545.264 260.023 544.396 260.47 543.623C260.916 542.85 261.537 542.192 262.284 541.703L281.125 530.862C282.54 530.061 283.695 530.713 283.695 532.353V548.223C283.645 549.114 283.386 549.982 282.94 550.755C282.494 551.528 281.872 552.186 281.125 552.675L262.21 563.609C260.851 564.391 259.715 563.665 259.715 562.026Z" fill="white"/>
<path d="M271.258 552.321L269.136 551.091C268.731 550.801 268.411 550.408 268.209 549.953C268.006 549.498 267.927 548.997 267.981 548.502C268.054 547.106 268.456 545.746 269.155 544.535C269.854 543.324 270.83 542.296 272.003 541.536C272.406 541.24 272.882 541.058 273.38 541.009C273.877 540.96 274.379 541.045 274.833 541.256L276.806 542.393L276.471 543.007C276.596 543.405 276.659 543.82 276.657 544.237C276.579 545.632 276.174 546.989 275.476 548.199C274.777 549.409 273.805 550.438 272.636 551.203C272.334 551.372 272.016 551.509 271.686 551.613L271.258 552.321Z" fill="#BA68C8"/>
<path opacity="0.2" d="M271.258 552.321L269.136 551.091C268.731 550.801 268.411 550.408 268.209 549.953C268.006 549.498 267.927 548.997 267.981 548.502C268.054 547.106 268.456 545.746 269.155 544.535C269.854 543.324 270.83 542.296 272.003 541.536C272.406 541.24 272.882 541.058 273.38 541.009C273.877 540.96 274.379 541.045 274.833 541.256L276.806 542.393L276.471 543.007C276.596 543.405 276.659 543.82 276.657 544.237C276.579 545.632 276.174 546.989 275.476 548.199C274.777 549.409 273.805 550.438 272.636 551.203C272.334 551.372 272.016 551.509 271.686 551.613L271.258 552.321Z" fill="black"/>
<path d="M269.955 549.676C270.032 548.278 270.436 546.917 271.134 545.704C271.833 544.491 272.806 543.459 273.976 542.691C276.192 541.424 277.998 542.449 277.998 545.019C277.921 546.415 277.517 547.772 276.818 548.983C276.12 550.193 275.146 551.222 273.976 551.986C271.817 553.215 269.955 552.228 269.955 549.676Z" fill="#BA68C8"/>
<path d="M259.715 532.241V452.33C259.759 451.44 260.015 450.573 260.462 449.802C260.909 449.03 261.534 448.377 262.284 447.897L281.125 436.963C282.54 436.143 283.695 436.795 283.695 438.435V518.345C283.645 519.237 283.386 520.104 282.94 520.877C282.494 521.65 281.872 522.308 281.125 522.797L262.21 533.731C260.851 534.588 259.715 533.88 259.715 532.241Z" fill="#455A64"/>
<path d="M269.303 452.33C269.303 450.691 268.223 449.983 266.902 450.766C266.185 451.247 265.592 451.891 265.171 452.645C264.75 453.4 264.514 454.243 264.481 455.106V523.914C264.481 525.554 265.561 526.243 266.883 525.479C267.6 524.998 268.193 524.354 268.613 523.6C269.034 522.845 269.27 522.002 269.303 521.139V452.33Z" fill="#263238"/>
<path d="M269.303 505.939L264.481 508.715V523.914C264.481 525.554 265.561 526.243 266.883 525.479C267.6 524.998 268.193 524.354 268.613 523.6C269.034 522.845 269.27 522.002 269.303 521.139V505.939Z" fill="#BA68C8"/>
<path d="M276.545 519.928C277.261 519.443 277.852 518.795 278.27 518.038C278.687 517.28 278.919 516.434 278.947 515.569V446.779C278.947 445.14 277.867 444.432 276.527 445.196C275.817 445.688 275.231 446.337 274.814 447.093C274.397 447.85 274.161 448.692 274.125 449.555V518.345C274.144 519.984 275.223 520.692 276.545 519.928Z" fill="#263238"/>
<path d="M274.144 518.345V469.262L278.966 466.487V515.569C278.938 516.434 278.706 517.28 278.288 518.038C277.871 518.795 277.28 519.443 276.564 519.928C275.224 520.692 274.144 519.984 274.144 518.345Z" fill="#BA68C8"/>
<path d="M292.296 543.231V527.36C292.346 526.469 292.604 525.602 293.05 524.828C293.497 524.055 294.118 523.397 294.865 522.909L313.799 511.974C315.214 511.173 316.35 511.825 316.35 513.465V529.335C316.311 530.227 316.059 531.097 315.616 531.871C315.172 532.646 314.549 533.303 313.799 533.787L294.865 544.721C293.394 545.541 292.296 544.87 292.296 543.231Z" fill="white"/>
<path d="M303.783 533.526L301.66 532.297C301.251 532.009 300.927 531.618 300.72 531.162C300.514 530.707 300.434 530.205 300.488 529.707C300.564 528.312 300.968 526.954 301.667 525.744C302.366 524.534 303.339 523.505 304.509 522.741C304.916 522.445 305.395 522.263 305.895 522.214C306.396 522.165 306.901 522.251 307.357 522.462L309.219 523.598L308.884 524.212C309.009 524.61 309.072 525.025 309.07 525.442C308.995 526.838 308.591 528.196 307.893 529.407C307.194 530.617 306.22 531.645 305.049 532.408C304.75 532.584 304.432 532.721 304.099 532.818L303.783 533.526Z" fill="#BA68C8"/>
<path opacity="0.2" d="M303.783 533.526L301.66 532.297C301.251 532.009 300.927 531.618 300.72 531.162C300.514 530.707 300.434 530.205 300.488 529.707C300.564 528.312 300.968 526.954 301.667 525.744C302.366 524.534 303.339 523.505 304.509 522.741C304.916 522.445 305.395 522.263 305.895 522.214C306.396 522.165 306.901 522.251 307.357 522.462L309.219 523.598L308.884 524.212C309.009 524.61 309.072 525.025 309.07 525.442C308.995 526.838 308.591 528.196 307.893 529.407C307.194 530.617 306.22 531.645 305.049 532.408C304.75 532.584 304.432 532.721 304.099 532.818L303.783 533.526Z" fill="black"/>
<path d="M302.517 530.862C302.594 529.464 302.998 528.104 303.696 526.891C304.395 525.677 305.368 524.645 306.538 523.877C308.773 522.611 310.56 523.635 310.56 526.206C310.488 527.602 310.085 528.962 309.386 530.173C308.687 531.384 307.711 532.411 306.538 533.172C304.323 534.476 302.517 533.433 302.517 530.862Z" fill="#BA68C8"/>
<path d="M292.296 513.446V433.535C292.34 432.645 292.596 431.778 293.043 431.007C293.49 430.236 294.114 429.583 294.865 429.102L313.799 418.168C315.214 417.348 316.35 418 316.35 419.64V499.55C316.311 500.442 316.059 501.312 315.616 502.086C315.172 502.861 314.549 503.518 313.799 504.002L294.865 514.936C293.394 515.756 292.296 515.085 292.296 513.446Z" fill="#455A64"/>
<path d="M299.464 506.647C300.171 506.158 300.756 505.511 301.172 504.758C301.589 504.006 301.826 503.167 301.865 502.307V433.498C301.865 431.859 300.786 431.151 299.464 431.934C298.75 432.417 298.161 433.062 297.743 433.816C297.326 434.57 297.093 435.412 297.062 436.274V505.082C297.062 506.759 298.142 507.448 299.464 506.647Z" fill="#BA68C8"/>
<path d="M309.052 501.059C309.761 500.568 310.347 499.918 310.764 499.162C311.181 498.406 311.417 497.563 311.453 496.7V427.91C311.453 426.271 310.373 425.563 309.052 426.327C308.342 426.818 307.756 427.468 307.339 428.224C306.922 428.98 306.686 429.823 306.65 430.686V499.476C306.669 501.189 307.748 501.897 309.052 501.059Z" fill="#263238"/>
<path d="M306.669 499.55V450.468L311.472 447.692V496.775C311.422 497.626 311.178 498.455 310.759 499.198C310.339 499.94 309.755 500.577 309.052 501.059C307.749 501.897 306.669 501.189 306.669 499.55Z" fill="#BA68C8"/>
<path d="M324.784 524.455V508.566C324.827 507.675 325.084 506.808 325.53 506.037C325.977 505.266 326.602 504.613 327.353 504.132L346.287 493.198C347.702 492.379 348.856 493.049 348.856 494.67V510.559C348.812 511.449 348.556 512.316 348.109 513.087C347.662 513.859 347.038 514.512 346.287 514.992L327.353 525.926C325.919 526.746 324.784 526.094 324.784 524.455Z" fill="white"/>
<path d="M336.326 514.731L334.204 513.52C333.8 513.23 333.48 512.837 333.277 512.382C333.074 511.927 332.996 511.426 333.05 510.931C333.121 509.534 333.522 508.174 334.221 506.963C334.921 505.752 335.897 504.724 337.071 503.965C337.474 503.668 337.948 503.483 338.446 503.431C338.943 503.379 339.445 503.46 339.901 503.667L341.874 504.822L341.539 505.418C341.663 505.816 341.725 506.23 341.726 506.647C341.649 508.043 341.245 509.4 340.546 510.611C339.847 511.821 338.874 512.85 337.704 513.614C337.403 513.782 337.084 513.92 336.755 514.023L336.326 514.731Z" fill="#BA68C8"/>
<path opacity="0.2" d="M336.326 514.731L334.204 513.52C333.8 513.23 333.48 512.837 333.277 512.382C333.074 511.927 332.996 511.426 333.05 510.931C333.121 509.534 333.522 508.174 334.221 506.963C334.921 505.752 335.897 504.724 337.071 503.965C337.474 503.668 337.948 503.483 338.446 503.431C338.943 503.379 339.445 503.46 339.901 503.667L341.874 504.822L341.539 505.418C341.663 505.816 341.725 506.23 341.726 506.647C341.649 508.043 341.245 509.4 340.546 510.611C339.847 511.821 338.874 512.85 337.704 513.614C337.403 513.782 337.084 513.92 336.755 514.023L336.326 514.731Z" fill="black"/>
<path d="M335.116 512.086C335.193 510.691 335.597 509.333 336.296 508.123C336.994 506.912 337.968 505.884 339.138 505.12C341.353 503.834 343.159 504.878 343.159 507.448C343.081 508.843 342.676 510.201 341.978 511.411C341.279 512.621 340.306 513.65 339.138 514.415C336.866 515.7 335.116 514.657 335.116 512.086Z" fill="#BA68C8"/>
<path d="M324.784 494.67V414.759C324.825 413.866 325.079 412.995 325.526 412.22C325.973 411.446 326.6 410.79 327.353 410.307L346.287 399.373C347.702 398.554 348.856 399.224 348.856 400.864V480.774C348.812 481.664 348.556 482.531 348.109 483.303C347.662 484.074 347.038 484.727 346.287 485.207L327.353 496.141C325.919 496.961 324.784 496.309 324.784 494.67Z" fill="#455A64"/>
<path d="M331.989 487.908C332.705 487.423 333.295 486.775 333.713 486.018C334.13 485.26 334.362 484.414 334.39 483.549V414.759C334.39 413.12 333.31 412.412 331.97 413.176C331.26 413.668 330.674 414.317 330.257 415.073C329.841 415.829 329.605 416.672 329.568 417.535V486.325C329.531 488.02 330.667 488.672 331.989 487.908Z" fill="#BA68C8"/>
<path d="M341.614 482.432C342.327 481.949 342.917 481.304 343.334 480.549C343.751 479.795 343.985 478.953 344.016 478.092V409.283C344.016 407.644 342.954 406.955 341.614 407.718C340.907 408.208 340.322 408.854 339.905 409.607C339.489 410.36 339.251 411.199 339.212 412.058V480.867C339.212 482.432 340.292 483.121 341.614 482.432Z" fill="#263238"/>
<path d="M339.212 480.774V456.652L344.016 453.876V477.999C343.985 478.86 343.751 479.702 343.334 480.456C342.917 481.21 342.327 481.855 341.614 482.339C340.292 483.121 339.212 482.432 339.212 480.774Z" fill="#BA68C8"/>
<path d="M322.084 540.772C321.535 541.144 321.081 541.639 320.757 542.218C320.434 542.797 320.251 543.444 320.222 544.106C320.222 545.336 321.079 545.839 322.084 545.224C322.633 544.848 323.088 544.35 323.411 543.768C323.734 543.186 323.917 542.536 323.946 541.871C323.946 540.642 323.089 540.176 322.084 540.772Z" fill="#37474F"/>
<path d="M305.98 550.067C305.43 550.434 304.975 550.925 304.651 551.501C304.328 552.078 304.145 552.722 304.118 553.383C304.118 554.612 304.975 555.115 305.98 554.5C306.529 554.129 306.983 553.633 307.307 553.054C307.63 552.475 307.813 551.829 307.842 551.166C307.898 549.937 307.041 549.49 305.98 550.067Z" fill="#37474F"/>
<path d="M290.192 559.176C289.643 559.543 289.189 560.035 288.866 560.611C288.542 561.187 288.359 561.831 288.33 562.491C288.33 563.721 289.187 564.205 290.192 563.59C290.742 563.224 291.197 562.732 291.52 562.156C291.844 561.58 292.027 560.935 292.054 560.275C292.11 559.064 291.253 558.561 290.192 559.176Z" fill="#37474F"/>
<path d="M274.274 568.378C273.728 568.743 273.275 569.232 272.952 569.805C272.628 570.377 272.444 571.018 272.412 571.674C272.412 572.904 273.269 573.388 274.274 572.792C274.819 572.42 275.27 571.927 275.593 571.352C275.916 570.777 276.102 570.135 276.136 569.477C276.173 568.266 275.317 567.763 274.274 568.378Z" fill="#37474F"/>
<path d="M259.212 283.997C258.808 283.999 258.41 283.897 258.058 283.699C257.71 283.496 257.422 283.205 257.223 282.855C257.024 282.505 256.92 282.109 256.922 281.706V264.718C256.922 264.11 257.164 263.527 257.593 263.098C258.023 262.668 258.605 262.427 259.212 262.427C259.82 262.427 260.402 262.668 260.832 263.098C261.261 263.527 261.502 264.11 261.502 264.718V277.757L312.514 248.307V232.642C312.514 232.034 312.756 231.451 313.185 231.022C313.615 230.592 314.197 230.351 314.804 230.351C315.412 230.351 315.994 230.592 316.424 231.022C316.853 231.451 317.094 232.034 317.094 232.642V249.593C317.097 249.995 316.993 250.392 316.794 250.742C316.594 251.091 316.306 251.383 315.959 251.586L260.367 283.699C260.014 283.897 259.616 283.999 259.212 283.997Z" fill="#BA68C8"/>
<path d="M269.471 243.166C269.19 243.173 268.912 243.122 268.652 243.017C268.369 242.912 268.11 242.751 267.889 242.545C267.669 242.338 267.493 242.09 267.37 241.814C267.246 241.538 267.18 241.24 267.173 240.939C267.166 240.637 267.219 240.336 267.33 240.055L283.993 196.803C284.142 196.413 284.394 196.071 284.722 195.812C285.049 195.553 285.441 195.387 285.854 195.332C286.27 195.285 286.69 195.352 287.071 195.526C287.451 195.7 287.777 195.974 288.014 196.319L304.677 220.311C304.915 220.803 304.971 221.365 304.834 221.895C304.697 222.425 304.376 222.889 303.929 223.205C303.482 223.52 302.937 223.667 302.392 223.618C301.847 223.569 301.337 223.327 300.953 222.937L286.767 202.447L271.649 241.564C271.503 242.028 271.213 242.433 270.821 242.721C270.43 243.009 269.957 243.165 269.471 243.166Z" fill="#BA68C8"/>
<path d="M286.134 254.976C285.524 254.971 284.942 254.725 284.513 254.293C284.084 253.86 283.844 253.275 283.844 252.666V202.633C283.815 202.314 283.853 201.992 283.955 201.688C284.058 201.384 284.222 201.105 284.439 200.868C284.655 200.631 284.918 200.442 285.212 200.313C285.505 200.183 285.822 200.116 286.143 200.116C286.463 200.116 286.781 200.183 287.074 200.313C287.367 200.442 287.631 200.631 287.847 200.868C288.063 201.105 288.228 201.384 288.33 201.688C288.433 201.992 288.471 202.314 288.442 202.633V252.666C288.437 253.277 288.192 253.862 287.761 254.294C287.329 254.726 286.744 254.971 286.134 254.976Z" fill="#BA68C8"/>
<g opacity="0.2">
<path opacity="0.2" d="M259.212 283.997C258.808 283.999 258.41 283.897 258.058 283.699C257.71 283.496 257.422 283.205 257.223 282.855C257.024 282.505 256.92 282.109 256.922 281.706V264.718C256.922 264.11 257.164 263.527 257.593 263.098C258.023 262.668 258.605 262.427 259.212 262.427C259.82 262.427 260.402 262.668 260.832 263.098C261.261 263.527 261.502 264.11 261.502 264.718V277.757L312.514 248.307V232.642C312.514 232.034 312.756 231.451 313.185 231.022C313.615 230.592 314.197 230.351 314.804 230.351C315.412 230.351 315.994 230.592 316.424 231.022C316.853 231.451 317.094 232.034 317.094 232.642V249.593C317.097 249.995 316.993 250.392 316.794 250.742C316.594 251.091 316.306 251.383 315.959 251.586L260.367 283.699C260.014 283.897 259.616 283.999 259.212 283.997Z" fill="white"/>
<path opacity="0.2" d="M269.471 243.166C269.19 243.173 268.911 243.122 268.651 243.017C268.368 242.912 268.109 242.751 267.889 242.545C267.669 242.338 267.492 242.09 267.369 241.814C267.246 241.538 267.179 241.24 267.172 240.939C267.166 240.637 267.219 240.336 267.329 240.055L283.992 196.803C284.142 196.413 284.394 196.071 284.722 195.812C285.049 195.553 285.44 195.387 285.854 195.332C286.27 195.285 286.69 195.352 287.07 195.526C287.451 195.7 287.777 195.974 288.014 196.319L304.676 220.311C304.915 220.803 304.971 221.365 304.834 221.895C304.697 222.425 304.376 222.889 303.929 223.205C303.482 223.52 302.937 223.667 302.392 223.618C301.847 223.569 301.337 223.327 300.953 222.937L286.766 202.447L271.649 241.564C271.503 242.028 271.213 242.433 270.821 242.721C270.43 243.009 269.957 243.165 269.471 243.166Z" fill="white"/>
<path opacity="0.2" d="M286.133 254.976C285.524 254.971 284.942 254.725 284.513 254.293C284.084 253.86 283.843 253.275 283.843 252.666V202.633C283.815 202.314 283.853 201.992 283.955 201.688C284.058 201.384 284.222 201.105 284.439 200.868C284.655 200.631 284.918 200.442 285.211 200.313C285.505 200.183 285.822 200.117 286.143 200.117C286.463 200.117 286.78 200.183 287.074 200.313C287.367 200.442 287.63 200.631 287.847 200.868C288.063 201.105 288.228 201.384 288.33 201.688C288.433 201.992 288.471 202.314 288.442 202.633V252.666C288.437 253.277 288.192 253.862 287.76 254.294C287.328 254.726 286.744 254.971 286.133 254.976Z" fill="white"/>
</g>
</svg>
