<svg width="69" height="42" viewBox="0 0 69 42" fill="none" xmlns="http://www.w3.org/2000/svg">
<path fill-rule="evenodd" clip-rule="evenodd" d="M37 36.5884L64 21L37 5.41151L37 36.5884ZM66.5 25.3301C69.8333 23.4056 69.8333 18.5943 66.5 16.6698L39.5 1.08139C36.1667 -0.843115 32 1.56251 32 5.41151V36.5884C32 40.4374 36.1667 42.8431 39.5 40.9186L66.5 25.3301Z" fill="white"/>
<path fill-rule="evenodd" clip-rule="evenodd" d="M5 36.5884L32 21L5 5.41151L5 36.5884ZM34.5 25.3301C37.8333 23.4056 37.8333 18.5943 34.5 16.6698L7.5 1.08139C4.16667 -0.843115 1.53103e-06 1.56251 1.36279e-06 5.41151L0 36.5884C-1.68245e-07 40.4374 4.16666 42.8431 7.5 40.9186L34.5 25.3301Z" fill="white"/>
</svg>
