<svg width="209" height="209" viewBox="0 0 209 209" fill="none" xmlns="http://www.w3.org/2000/svg">
<g clip-path="url(#clip0)">
<circle cx="120" cy="126" r="57" fill="white"/>
<path d="M143.586 106.618C139.975 120.093 130.518 130.932 117.736 136.466C112.529 138.681 108.535 142.358 106.391 146.865L106.096 146.719L68.6663 136.69L68.2129 136.636C68.6601 131.473 67.2558 126.484 64.3107 122.752C53.4693 108.815 51.6194 90.2671 59.6594 74.235C67.5201 58.623 84.5429 48.7421 101.994 49.7406C115.909 50.4604 128.514 57.3148 136.522 68.353C144.575 79.4703 147.129 93.3934 143.586 106.618Z" fill="#FFC107"/>
<path d="M111.611 51.2544C108.51 50.4237 105.292 49.9089 101.994 49.7407C84.5429 48.7421 67.52 58.623 59.6594 74.2351C51.6194 90.2671 53.4693 108.815 64.3107 122.753C67.2558 126.484 68.6601 131.473 68.2129 136.636L68.6663 136.69L87.3811 141.705L111.617 51.2561C111.611 51.2544 111.611 51.2544 111.611 51.2544Z" fill="#DEA806"/>
<path d="M150.639 69.5884C149.442 69.2675 148.366 68.4911 147.701 67.3301C146.363 65.0125 147.157 62.0493 149.474 60.7113L160.422 54.3909C162.739 53.0529 165.702 53.8468 167.04 56.1644C168.378 58.482 167.584 61.4452 165.267 62.7832L154.32 69.1036C153.159 69.7686 151.837 69.9093 150.639 69.5884Z" fill="#FFC107"/>
<path d="M168.845 118.401L156.636 115.13C154.054 114.438 152.519 111.78 153.211 109.198C153.903 106.615 156.561 105.081 159.144 105.773L171.352 109.044C173.935 109.736 175.469 112.394 174.777 114.976C174.085 117.559 171.427 119.093 168.845 118.401Z" fill="#FFC107"/>
<path d="M134.992 162.519C133.795 162.198 132.719 161.422 132.054 160.261L125.734 149.313C124.395 146.996 125.189 144.033 127.507 142.695C129.825 141.357 132.788 142.151 134.126 144.468L140.446 155.415C141.784 157.733 140.99 160.696 138.673 162.034C137.51 162.705 136.19 162.84 134.992 162.519Z" fill="#FFC107"/>
<path d="M106.391 146.865C105.92 147.876 105.511 148.903 105.21 150.026L101.499 163.875C99.8945 169.863 93.6458 173.471 87.657 171.866L72.0614 167.688C66.8212 166.283 62.2142 160.77 64.5543 152.036L67.513 140.995C67.8974 139.56 68.1571 138.092 68.2129 136.636L68.6663 136.69L106.096 146.719L106.391 146.865Z" fill="#607D8B"/>
<path d="M87.3811 141.705L68.6663 136.69L68.2129 136.636C68.1571 138.092 67.8974 139.56 67.513 140.995L64.5543 152.036C62.2142 160.77 66.8212 166.283 72.0614 167.688L79.8592 169.777L87.3811 141.705Z" fill="#546D79"/>
<path d="M114.198 41.6242C111.615 40.9322 110.081 38.2745 110.773 35.6918L114.044 23.4835C114.736 20.9009 117.394 19.3664 119.976 20.0585C122.559 20.7505 124.093 23.4082 123.401 25.9908L120.13 38.1991C119.438 40.7818 116.78 42.3162 114.198 41.6242Z" fill="#FFC107"/>
<path d="M119.976 20.0585C117.394 19.3664 114.736 20.9009 114.044 23.4835L110.773 35.6918C110.081 38.2745 111.615 40.9322 114.198 41.6242L119.976 20.0585Z" fill="#DEA806"/>
<path d="M68.656 47.621C67.4583 47.3001 66.3826 46.5238 65.7175 45.3627L59.3972 34.4155C58.0591 32.0979 58.8531 29.1348 61.1707 27.7967C63.4882 26.4587 66.4514 27.2526 67.7895 29.5702L74.1098 40.5174C75.4479 42.835 74.6539 45.7981 72.3363 47.1362C71.169 47.7996 69.8538 47.942 68.656 47.621Z" fill="#FFC107"/>
<path d="M61.169 27.803C58.8514 29.141 58.0574 32.1042 59.3955 34.4218L65.7158 45.3689C66.3888 46.5254 67.4566 47.3063 68.6544 47.6273C69.8521 47.9482 71.1719 47.8138 72.3284 47.1408L61.169 27.803Z" fill="#DEA806"/>
<path d="M40.6918 84.0628L28.4835 80.7916C25.9009 80.0996 24.3664 77.4419 25.0584 74.8592C25.7505 72.2766 28.4082 70.7422 30.9908 71.4342L43.1991 74.7054C45.7817 75.3974 47.3162 78.0551 46.6242 80.6378C45.9321 83.2204 43.2744 84.7548 40.6918 84.0628Z" fill="#FFC107"/>
<path d="M46.6242 80.6378L25.0585 74.8593C24.3665 77.4419 25.9009 80.0996 28.4835 80.7916L40.6918 84.0628C43.2745 84.7548 45.9322 83.2204 46.6242 80.6378Z" fill="#DEA806"/>
<path d="M35.7415 135.925C34.5437 135.604 33.468 134.828 32.8029 133.666C31.4649 131.349 32.2589 128.386 34.5765 127.048L45.5236 120.727C47.8412 119.389 50.8044 120.183 52.1424 122.501C53.4805 124.818 52.6865 127.782 50.3689 129.12L39.4218 135.44C38.259 136.111 36.9392 136.246 35.7415 135.925Z" fill="#FFC107"/>
<path d="M52.1346 122.505L32.803 133.666C33.4697 134.821 34.5438 135.604 35.7415 135.925C36.9393 136.246 38.259 136.111 39.4155 135.438L50.3627 129.118C52.6786 127.786 53.4726 124.823 52.1346 122.505Z" fill="#DEA806"/>
<path d="M124.225 94.0227C122.866 93.6317 122.08 92.2111 122.471 90.8517C123.252 88.1379 121.681 85.2917 118.963 84.5096C116.244 83.7276 113.401 85.3043 112.621 88.0181C112.23 89.3775 110.809 90.1634 109.45 89.7724C108.09 89.3813 107.304 87.9607 107.695 86.6013C109.258 81.1688 114.947 78.0216 120.379 79.5843C125.812 81.1471 128.959 86.8359 127.396 92.2685C127.004 93.6328 125.585 94.4137 124.225 94.0227Z" fill="#6D4C41"/>
<path d="M94.6738 85.522C93.3144 85.131 92.5285 83.7104 92.9196 82.351C93.7002 79.6372 92.1249 76.7896 89.4111 76.009C86.6972 75.2283 83.8497 76.8036 83.069 79.5175C82.678 80.8768 81.2574 81.6627 79.898 81.2717C78.5386 80.8807 77.7527 79.4601 78.1437 78.1007C79.7064 72.6681 85.3953 69.521 90.8278 71.0837C96.2604 72.6464 99.4076 78.3352 97.8448 83.7678C97.4524 85.1321 96.0332 85.9131 94.6738 85.522Z" fill="#6D4C41"/>
<path d="M126.253 108.999C125.962 108.249 125.343 107.676 124.575 107.455L72.4651 92.4656C71.6918 92.2432 70.8644 92.3944 70.2243 92.8769C69.573 93.3615 69.1971 94.112 69.1901 94.9152C69.1113 108.593 78.2608 120.797 91.431 124.585C104.601 128.374 118.837 122.896 126.038 111.268C126.463 110.585 126.544 109.749 126.253 108.999Z" fill="#FAFAFA"/>
</g>
<defs>
<clipPath id="clip0">
<rect width="169.203" height="170.97" fill="white" transform="translate(45.1169) rotate(15)"/>
</clipPath>
</defs>
</svg>
