<svg width="28" height="35" viewBox="0 0 28 35" fill="none" xmlns="http://www.w3.org/2000/svg">
<circle cx="15.0291" cy="15.0288" r="12.5242" fill="#FEE21F"/>
<path fill-rule="evenodd" clip-rule="evenodd" d="M0 13.5977C0 6.08788 6.08788 0 13.5977 0C21.1075 0 27.1953 6.08788 27.1953 13.5977V14.1941H17.7639L15.029 11.4591L12.0471 14.4411L9.06511 11.4591L6.50488 14.0194C6.27197 14.2523 5.89436 14.2523 5.66146 14.0194C5.42855 13.7865 5.42855 13.4089 5.66146 13.176L9.06511 9.7723L12.0471 12.7542L15.029 9.7723L18.258 13.0013H25.9885C25.6773 6.42721 20.2488 1.19278 13.5977 1.19278C6.74664 1.19278 1.19278 6.74664 1.19278 13.5977C1.19278 20.4487 6.74664 26.0026 13.5977 26.0026C17.8762 26.0026 21.6491 23.837 23.88 20.5394C24.0645 20.2666 24.4353 20.1951 24.7081 20.3796C24.9809 20.5642 25.0525 20.935 24.8679 21.2078C22.4247 24.8193 18.2888 27.1953 13.5977 27.1953C6.08788 27.1953 0 21.1075 0 13.5977Z" fill="black"/>
<path fill-rule="evenodd" clip-rule="evenodd" d="M18.1302 28.7459H9.06505C8.73567 28.7459 8.46866 29.0129 8.46866 29.3423C8.46866 29.6716 8.73567 29.9387 9.06505 29.9387H18.1302C18.4595 29.9387 18.7265 29.6716 18.7265 29.3423C18.7265 29.0129 18.4595 28.7459 18.1302 28.7459ZM9.06505 27.5531C8.07692 27.5531 7.27588 28.3541 7.27588 29.3423C7.27588 30.3304 8.07692 31.1314 9.06505 31.1314H18.1302C19.1183 31.1314 19.9193 30.3304 19.9193 29.3423C19.9193 28.3541 19.1183 27.5531 18.1302 27.5531H9.06505Z" fill="black"/>
<path fill-rule="evenodd" clip-rule="evenodd" d="M17.6531 31.1315H9.54222C9.21284 31.1315 8.94583 31.3985 8.94583 31.7279C8.94583 32.0573 9.21284 32.3243 9.54222 32.3243H17.6531C17.9825 32.3243 18.2495 32.0573 18.2495 31.7279C18.2495 31.3985 17.9825 31.1315 17.6531 31.1315ZM9.54222 29.9387C8.55409 29.9387 7.75305 30.7398 7.75305 31.7279C7.75305 32.716 8.55409 33.5171 9.54222 33.5171H17.6531C18.6412 33.5171 19.4423 32.716 19.4423 31.7279C19.4423 30.7398 18.6412 29.9387 17.6531 29.9387H9.54222Z" fill="black"/>
<path fill-rule="evenodd" clip-rule="evenodd" d="M14.5519 33.517H12.6435C12.5776 33.517 12.5242 33.5704 12.5242 33.6363C12.5242 33.7021 12.5776 33.7556 12.6435 33.7556H14.5519C14.6178 33.7556 14.6712 33.7021 14.6712 33.6363C14.6712 33.5704 14.6178 33.517 14.5519 33.517ZM12.6435 32.3242C11.9188 32.3242 11.3314 32.9116 11.3314 33.6363C11.3314 34.3609 11.9188 34.9483 12.6435 34.9483H14.5519C15.2766 34.9483 15.864 34.3609 15.864 33.6363C15.864 32.9116 15.2766 32.3242 14.5519 32.3242H12.6435Z" fill="black"/>
</svg>
