<svg width="31" height="31" viewBox="0 0 31 31" fill="none" xmlns="http://www.w3.org/2000/svg">
<path d="M27.9778 15.8262C27.8854 15.3448 27.4643 14.9967 26.9741 14.9964H25.9868L25.9142 14.5613C25.8418 14.1242 25.4974 13.7828 25.0598 13.714C24.9627 13.6987 24.8645 13.6885 24.7679 13.6752C24.9353 12.8935 24.7962 12.0774 24.3793 11.3953C24.5996 10.8239 24.5584 10.1847 24.2668 9.64623C23.9751 9.10776 23.4622 8.72411 22.8633 8.59644C22.4804 6.54714 20.6976 5.05751 18.6128 5.04495C18.5617 5.04495 18.5162 5.0516 18.4676 5.05313C18.1345 4.53 17.5853 4.1828 16.9699 4.10625C16.3544 4.0297 15.7369 4.23179 15.2858 4.65739C14.7175 4.28798 14.0544 4.09104 13.3766 4.09036C12.2845 4.09482 11.2552 4.60173 10.586 5.46473C9.8428 5.24802 9.04142 5.38108 8.40817 5.82632C7.77492 6.27157 7.37855 6.98066 7.33102 7.75331C6.55044 8.08143 6.04253 8.84541 6.04204 9.69215C6.04364 9.83893 6.06078 9.98512 6.09316 10.1283C5.40285 11.169 5.22247 12.4668 5.60283 13.6563C5.4658 13.6752 5.3257 13.692 5.19379 13.7115C4.75389 13.7779 4.4065 14.1195 4.33276 14.5582L4.26016 14.9948H3.27028C2.78089 14.9952 2.36034 15.3422 2.26711 15.8226L0.0281304 27.3177C-0.0593093 27.7679 0.0592636 28.2335 0.351347 28.5871C0.64343 28.9406 1.07838 29.145 1.53698 29.144H12.1996C12.623 29.8425 13.9094 30.1666 15.1222 30.1666C16.3222 30.1666 17.5964 29.8501 18.032 29.144H28.7074C29.1659 29.1449 29.6008 28.9407 29.8928 28.5873C30.1849 28.2338 30.3035 27.7683 30.2163 27.3182L27.9778 15.8262ZM7.5882 10.6176C7.17306 10.368 6.97493 9.87248 7.10354 9.40545C7.23214 8.93843 7.65601 8.61419 8.14041 8.61229C8.47942 8.61128 8.79848 8.77243 8.99888 9.04587C9.10775 9.19255 9.28661 9.27001 9.46807 9.24907C9.64954 9.22813 9.80605 9.11196 9.87865 8.94434C9.95125 8.77671 9.9289 8.58309 9.82003 8.4364C9.47284 7.97237 8.94669 7.67553 8.36998 7.61832C8.52242 6.90226 9.15388 6.38964 9.88599 6.38762C9.94837 6.39079 10.0105 6.39762 10.0721 6.40808C10.031 6.5129 9.99513 6.61973 9.96473 6.72815C9.90109 6.99881 10.0654 7.2707 10.3346 7.34023C10.6038 7.40975 10.8792 7.25142 10.9546 6.9838C11.0127 6.75908 11.1021 6.5436 11.22 6.34365C11.6735 5.58383 12.4917 5.11691 13.3766 5.11295C13.8582 5.11509 14.3288 5.2572 14.7311 5.52199C14.6544 5.73731 14.6138 5.96378 14.6109 6.19231C14.6109 6.47469 14.8398 6.70361 15.1222 6.70361C15.4046 6.70361 15.6335 6.47469 15.6335 6.19231C15.6335 5.59832 16.115 5.11679 16.709 5.11679C17.303 5.11679 17.7845 5.59832 17.7845 6.19231C17.7845 6.47469 18.0135 6.70361 18.2958 6.70361C18.5782 6.70361 18.8071 6.47469 18.8071 6.19231C18.8071 6.15294 18.7974 6.11561 18.7954 6.07624C20.2594 6.16657 21.4905 7.20725 21.8233 8.63581C21.5848 8.70525 21.3607 8.81695 21.1617 8.9656C21.0155 9.0752 20.939 9.25444 20.9608 9.4358C20.9827 9.61715 21.0996 9.77308 21.2676 9.84484C21.4356 9.91659 21.6291 9.89328 21.7752 9.78368C22.1838 9.48117 22.7482 9.50529 23.1295 9.84156C23.5108 10.1778 23.6052 10.7348 23.3562 11.178C23.2449 11.3737 23.0757 11.5301 22.872 11.6259C22.6583 11.7293 22.5439 11.9663 22.5959 12.1979C22.6478 12.4296 22.8524 12.595 23.0898 12.5974C23.1648 12.5975 23.2388 12.5809 23.3066 12.5488C23.4421 12.4831 23.5701 12.4031 23.6885 12.31C23.9528 13.0614 23.7871 13.8971 23.256 14.4907L23.2437 14.5035C22.5776 15.2251 21.515 15.4201 20.6361 14.9821C20.55 14.9366 20.4673 14.885 20.3886 14.8276C20.7652 14.2997 20.8172 13.6061 20.5236 13.0279C20.4414 12.8647 20.2783 12.7577 20.0959 12.7473C19.9134 12.7369 19.7393 12.8246 19.639 12.9774C19.5388 13.1302 19.5277 13.3248 19.6099 13.488C19.778 13.826 19.6731 14.2361 19.3634 14.4518C19.1816 14.5729 18.9569 14.6112 18.7452 14.5572C18.5334 14.5032 18.3545 14.362 18.2529 14.1686C18.1711 14.0052 18.0084 13.8978 17.8261 13.8869C17.6437 13.876 17.4693 13.9632 17.3687 14.1157C17.2681 14.2682 17.2564 14.4628 17.3382 14.6262C17.638 15.2315 18.2559 15.6138 18.9314 15.612C19.1513 15.6105 19.369 15.5676 19.5731 15.4857C19.7557 15.6456 19.9569 15.7829 20.1723 15.8947C20.901 16.2725 21.7484 16.3508 22.534 16.1131C22.0287 16.803 21.2725 17.2667 20.4285 17.4041C20.1659 17.4468 19.98 17.6838 20.0009 17.949C20.0219 18.2142 20.2427 18.4191 20.5087 18.42C20.536 18.42 20.5631 18.418 20.59 18.4139C20.9014 18.36 21.2057 18.2712 21.4971 18.149C21.6546 18.4275 21.7824 18.7218 21.8785 19.0269C21.8961 19.0802 21.9051 19.136 21.9051 19.1921C21.905 19.4131 21.773 19.6127 21.5697 19.6993C21.3345 19.7903 21.0675 19.7185 20.9096 19.5219C20.5136 19.0569 19.9951 18.7123 19.413 18.5274C18.3081 18.1572 17.8817 17.8264 17.7007 17.4665C17.966 17.4334 18.2281 17.3786 18.4845 17.3028C18.6591 17.2491 18.7919 17.1064 18.8327 16.9283C18.8735 16.7502 18.8162 16.5638 18.6823 16.4395C18.5485 16.3151 18.3585 16.2715 18.1839 16.3252C17.897 16.4133 17.6008 16.4677 17.3014 16.4873C16.7244 16.5324 16.1449 16.445 15.6069 16.2317C15.4049 16.1529 15.1752 16.2101 15.0337 16.3743C14.2893 17.2295 13.0152 17.3748 12.0973 16.7093C11.1794 16.0438 10.9214 14.7877 11.5027 13.8142C11.5969 13.6571 11.6 13.4616 11.511 13.3014C11.4219 13.1413 11.2542 13.0408 11.071 13.0379C10.8878 13.0349 10.7169 13.1299 10.6228 13.2871C10.5008 13.4947 10.4027 13.7155 10.3303 13.9451C9.92767 13.924 9.61018 13.5946 9.60375 13.1915V13.1787C9.60348 13.0438 9.54932 12.9146 9.45329 12.8198C9.35727 12.725 9.22736 12.6726 9.09245 12.6741C8.80884 12.6769 8.58057 12.9079 8.58115 13.1915C8.58343 14.0983 9.26724 14.8583 10.1687 14.956C10.1706 15.1274 10.1861 15.2984 10.2153 15.4673C9.07364 15.7143 7.88956 15.3039 7.14562 14.4035C6.40168 13.503 6.22213 12.2627 6.68014 11.1882C6.79453 11.3039 6.92222 11.4057 7.06054 11.4914C7.30208 11.6329 7.61249 11.5539 7.75694 11.3141C7.90139 11.0743 7.82618 10.763 7.5882 10.6156V10.6176ZM5.33849 14.7249C5.5742 14.6901 5.81757 14.6594 6.05942 14.6277C7.00477 16.1384 8.81283 16.872 10.5435 16.4469C11.0085 17.3295 11.8583 17.945 12.8418 18.1117C13.8254 18.2784 14.8305 17.9773 15.5604 17.2972C15.9079 17.4009 16.2657 17.4657 16.6275 17.4905C16.8744 18.4272 17.5882 18.9947 19.0878 19.4973C19.4921 19.6241 19.8528 19.8616 20.1288 20.183C20.4358 20.548 20.8873 20.7601 21.3641 20.7633C21.5727 20.7633 21.7791 20.7212 21.9711 20.6396C22.5506 20.3919 22.9266 19.8224 22.9267 19.1921C22.9271 19.0277 22.9009 18.8644 22.849 18.7084C22.734 18.3471 22.5825 17.9985 22.397 17.6679C23.2664 17.0429 23.8721 16.1166 24.096 15.0695C24.2049 14.9401 24.3034 14.8023 24.3905 14.6574C24.5618 14.6794 24.7331 14.6988 24.9054 14.7274L26.7512 25.8298C23.1432 24.625 19.2415 24.625 15.6335 25.8298V19.4293C15.6335 19.147 15.4046 18.918 15.1222 18.918C14.8398 18.918 14.6109 19.147 14.6109 19.4293V25.8318C11.0033 24.626 7.10167 24.6245 3.49321 25.8277L5.33849 14.7249ZM1.13867 27.9333C1.04206 27.8166 1.00268 27.6628 1.0313 27.514L3.27028 16.019H4.08836L2.4839 25.6616C2.42747 26.0125 2.5567 26.3677 2.82548 26.6004C3.09427 26.833 3.46431 26.91 3.80357 26.8038C6.52931 25.9207 9.4332 25.7365 12.2487 26.268L12.0963 28.1214H1.53698C1.38273 28.1215 1.23655 28.0525 1.13867 27.9333ZM15.1222 29.144C13.8905 29.144 13.1839 28.78 13.0801 28.6179L13.256 26.496C13.8182 26.636 14.3684 26.8205 14.9013 27.0477C14.9702 27.0809 15.0457 27.0984 15.1222 27.0988C15.1989 27.0987 15.2746 27.0812 15.3436 27.0477C15.8762 26.8191 16.4263 26.6335 16.9884 26.4924L17.1643 28.6174C17.0605 28.78 16.3539 29.144 15.1222 29.144ZM29.1057 27.9333C29.0079 28.0525 28.8617 28.1215 28.7074 28.1214H18.1496L17.9962 26.2644C20.8133 25.734 23.7184 25.9198 26.4449 26.8048C26.7841 26.9096 27.1533 26.8316 27.4211 26.5985C27.6889 26.3654 27.817 26.0104 27.76 25.66L26.1571 16.0195H26.9751L29.2146 27.5135C29.243 27.6627 29.203 27.8167 29.1057 27.9333Z" fill="black"/>
<path d="M13.4278 11.5989C13.2185 11.7883 13.2022 12.1115 13.3915 12.3209C13.8252 12.7998 14.3984 13.1303 15.0302 13.2658C14.7441 13.6689 14.2801 13.9082 13.7857 13.9074C13.5033 13.9074 13.2744 14.1364 13.2744 14.4187C13.2744 14.7011 13.5033 14.93 13.7857 14.93C14.8442 14.9343 15.7939 14.2805 16.1678 13.2903C17.4392 13.0796 18.4457 12.101 18.6921 10.8361C18.7302 10.6551 18.6676 10.4677 18.5285 10.346C18.3893 10.2242 18.1953 10.1871 18.021 10.2488C17.8467 10.3106 17.7194 10.4616 17.6879 10.6438C17.5877 11.1712 17.2834 11.6377 16.8412 11.942C15.9905 12.5149 14.8496 12.3849 14.1497 11.6352C13.9603 11.4259 13.6372 11.4097 13.4278 11.5989Z" fill="black"/>
<path d="M11.6454 11.0442C11.9278 11.0442 12.1567 10.8153 12.1567 10.5329C12.1567 10.1803 12.2967 9.84218 12.546 9.59288C12.7953 9.34357 13.1335 9.20351 13.486 9.20351C13.7684 9.20351 13.9973 8.97459 13.9973 8.69221C13.9973 8.40983 13.7684 8.18091 13.486 8.18091C12.1877 8.18232 11.1355 9.23451 11.1341 10.5329C11.1341 10.6685 11.1879 10.7985 11.2838 10.8944C11.3797 10.9903 11.5098 11.0442 11.6454 11.0442Z" fill="black"/>
<path d="M15.6336 1.0226V0.511299C15.6336 0.228917 15.4046 0 15.1223 0C14.8399 0 14.611 0.228917 14.611 0.511299V1.0226C14.611 1.30498 14.8399 1.5339 15.1223 1.5339C15.4046 1.5339 15.6336 1.30498 15.6336 1.0226Z" fill="black"/>
<path d="M23.5127 3.66905L23.0014 4.18034C22.8684 4.30872 22.8151 4.49882 22.8619 4.67759C22.9087 4.85635 23.0483 4.99596 23.2271 5.04275C23.4059 5.08954 23.596 5.03624 23.7243 4.90332L24.2356 4.39202C24.3686 4.26365 24.4219 4.07355 24.3751 3.89478C24.3283 3.71602 24.1887 3.57641 24.0099 3.52962C23.8311 3.48282 23.641 3.53613 23.5127 3.66905Z" fill="black"/>
<path d="M6.88158 5.05313C7.08835 5.05309 7.27473 4.92852 7.35385 4.73749C7.43297 4.54645 7.38925 4.32657 7.24307 4.18035L6.73177 3.66905C6.60339 3.53613 6.41329 3.48282 6.23453 3.52962C6.05576 3.57641 5.91615 3.71602 5.86936 3.89478C5.82257 4.07355 5.87587 4.26365 6.00879 4.39202L6.52009 4.90332C6.61595 4.99922 6.74598 5.0531 6.88158 5.05313Z" fill="black"/>
<path d="M10.8176 2.90171C10.8847 2.90156 10.9513 2.88837 11.0134 2.86285C11.1387 2.81094 11.2383 2.71135 11.2902 2.58602C11.342 2.46069 11.342 2.31988 11.29 2.19458L10.7025 0.777258C10.6352 0.604631 10.4798 0.481918 10.2963 0.456503C10.1128 0.431088 9.92983 0.506949 9.81816 0.654793C9.70648 0.802636 9.68353 0.999326 9.75816 1.16891L10.3451 2.58624C10.4243 2.77725 10.6108 2.90176 10.8176 2.90171Z" fill="black"/>
<path d="M20.2096 0.500637C19.9488 0.392754 19.6499 0.51656 19.5418 0.77725L18.9544 2.19457C18.9022 2.31993 18.9021 2.46087 18.954 2.58632C19.0059 2.71178 19.1055 2.81144 19.231 2.86335C19.2931 2.88887 19.3596 2.90207 19.4268 2.90221C19.6336 2.90226 19.82 2.77776 19.8992 2.58674L20.4862 1.16942C20.5383 1.04406 20.5385 0.903121 20.4866 0.777666C20.4347 0.652212 20.335 0.552544 20.2096 0.500637Z" fill="black"/>
<path d="M25.5144 8.98975C25.5816 8.98963 25.6482 8.97625 25.7102 8.95038L27.127 8.36341C27.2958 8.29353 27.4145 8.13892 27.4384 7.95781C27.4623 7.77671 27.3877 7.59661 27.2428 7.48537C27.0979 7.37414 26.9047 7.34865 26.7359 7.41852L25.3186 8.0055C25.0924 8.0984 24.9636 8.33842 25.0114 8.57822C25.0591 8.81803 25.2699 8.99049 25.5144 8.98975Z" fill="black"/>
<path d="M4.53421 8.95026C4.79513 9.05841 5.09432 8.93457 5.20248 8.67365C5.31063 8.41273 5.18678 8.11353 4.92586 8.00538L3.50854 7.41841C3.24762 7.3104 2.94854 7.43436 2.84053 7.69528C2.73252 7.9562 2.85647 8.25528 3.1174 8.36329L4.53421 8.95026Z" fill="black"/>
</svg>
