<svg width="31" height="31" viewBox="0 0 31 31" fill="none" xmlns="http://www.w3.org/2000/svg">
<path d="M27.153 11.8292V3.017C27.1521 2.18426 26.4772 1.50938 25.6445 1.5085H25.1417C25.1408 0.675761 24.4659 0.000883887 23.6332 0H15.085C14.5051 0.00188563 13.9547 0.255561 13.5765 0.695089C13.1983 0.255561 12.6479 0.00188563 12.068 0H3.51981C2.68707 0.000883887 2.01219 0.675761 2.01131 1.5085H1.50849C0.675753 1.50938 0.000876257 2.18426 -7.62939e-06 3.017V21.6218C0.000876257 22.4546 0.675753 23.1294 1.50849 23.1303H18.102V25.6445C18.1049 28.1427 20.1293 30.1671 22.6275 30.17H25.6445C28.1427 30.1671 30.1671 28.1427 30.17 25.6445V16.0907C30.1666 14.1751 28.9586 12.4688 27.153 11.8292ZM25.1417 2.51419H25.6445C25.922 2.51454 26.147 2.73946 26.1473 3.017V11.5948C25.9804 11.5756 25.8125 11.5657 25.6445 11.5652H25.1417V2.51419ZM5.02831 1.00569H8.04531V7.61763L6.92937 6.2228C6.83403 6.10347 6.68954 6.034 6.53681 6.034C6.38407 6.034 6.23958 6.10347 6.14424 6.2228L5.02831 7.61763V1.00569ZM3.01699 1.5085C3.01735 1.23096 3.24227 1.00604 3.51981 1.00569H4.02262V9.051C4.0225 9.26461 4.15738 9.45488 4.35897 9.52559C4.56049 9.5963 4.78471 9.53189 4.91806 9.36502L6.53681 7.34168L8.15556 9.36502C8.2509 9.4844 8.39538 9.55387 8.54812 9.55381C8.68153 9.55393 8.80946 9.50096 8.9038 9.40668C8.99814 9.31234 9.05105 9.18441 9.05093 9.051V1.00569H12.0679C12.6231 1.00622 13.073 1.45617 13.0736 2.01137V18.4128C12.7587 18.212 12.3935 18.1043 12.0201 18.102H3.01699V1.5085ZM3.01699 19.1077H12.0201C12.5735 19.1271 13.023 19.561 13.0618 20.1134H3.01699V19.1077ZM18.102 22.1247H1.50849C1.23095 22.1243 1.00603 21.8994 1.00568 21.6219V3.017C1.00603 2.73946 1.23095 2.51454 1.50849 2.51419H2.01131V20.6162C2.01131 20.8939 2.2364 21.119 2.51412 21.119H18.102V22.1247ZM18.102 20.1133H14.0912C14.1307 19.5604 14.5812 19.1264 15.1353 19.1076H18.102V20.1133ZM18.102 18.102H15.1353C14.761 18.1042 14.3949 18.2122 14.0793 18.4135V2.01131C14.0798 1.45612 14.5298 1.00622 15.085 1.00563H23.6332C23.9107 1.00598 24.1356 1.2309 24.136 1.50844V11.5651H22.6275C20.1293 11.568 18.1049 13.5925 18.102 16.0906V18.102ZM23.6332 12.5708V19.1076H19.1077V16.0906C19.1099 14.1476 20.6845 12.573 22.6275 12.5708H23.6332ZM29.1643 25.6445C29.1621 27.5875 27.5875 29.1621 25.6445 29.1643H22.6275C20.6845 29.1621 19.1099 27.5875 19.1077 25.6445V20.1133H29.1644V25.6445H29.1643ZM29.1643 19.1077H24.6388V12.5708H25.6445C27.5875 12.573 29.1621 14.1476 29.1643 16.0906V19.1077Z" fill="black"/>
</svg>
