<svg width="31" height="31" viewBox="0 0 31 31" fill="none" xmlns="http://www.w3.org/2000/svg">
<path d="M26.1291 10.5835C25.936 10.3208 25.5664 10.2645 25.3037 10.4576L24.1934 11.2739L24.3457 9.90446C24.3817 9.58038 24.1483 9.28848 23.8243 9.25247C23.5 9.21633 23.2083 9.4499 23.1723 9.77392L22.871 12.4822C22.835 12.8063 23.0685 13.0982 23.3925 13.1342C23.4147 13.1367 23.4367 13.1378 23.4585 13.1378C23.5872 13.1378 23.7081 13.0957 23.8065 13.0235C23.8068 13.0233 23.8071 13.0232 23.8074 13.023L23.8092 13.0217L23.8093 13.0216L26.0032 11.4087C26.2658 11.2158 26.3222 10.8462 26.1291 10.5835Z" fill="black"/>
<path d="M3.41962 13.8386C3.33118 13.8386 3.24156 13.8186 3.15719 13.7765C2.86558 13.6307 2.7465 13.2777 2.89233 12.9861L2.89398 12.9827C3.03981 12.6911 3.39435 12.5729 3.68602 12.7187C3.97768 12.8645 4.09588 13.2191 3.95005 13.5107C3.84643 13.718 3.63689 13.8386 3.41962 13.8386Z" fill="black"/>
<path d="M29.083 9.1406L28.9174 9.04501L29.5152 8.01002C30.2261 6.77896 30.4136 5.34013 30.0433 3.95869C29.6731 2.57754 28.7913 1.42547 27.5603 0.714737C25.01 -0.757923 21.736 0.118541 20.2619 2.66917L19.6643 3.70581L19.4987 3.61023C19.0918 3.3753 18.6165 3.31307 18.1602 3.43499C17.7032 3.55715 17.3222 3.84899 17.0875 4.25625L14.3385 9.01578C14.1025 9.42205 14.0394 9.89721 14.1611 10.3537C14.1637 10.3636 14.1669 10.3733 14.1697 10.3832L12.0685 11.3298C11.7967 11.4518 11.718 11.4586 11.6973 11.4559C11.6342 11.4477 11.4617 11.3473 11.2791 11.2411L10.4992 10.7908C10.6178 10.4638 10.6344 10.1102 10.5429 9.76927C10.4285 9.34311 10.158 8.98904 9.78176 8.7726L7.8771 7.67437C7.50166 7.45639 7.06009 7.39901 6.63358 7.51266C6.19201 7.63027 5.82206 7.91443 5.59162 8.31308L4.2361 10.6617C4.07309 10.9441 4.16992 11.3052 4.45231 11.4681C4.73488 11.6311 5.0958 11.5342 5.25875 11.2519L6.61415 8.90361C6.68636 8.77868 6.8012 8.68994 6.93758 8.65357C7.05903 8.62127 7.18213 8.63615 7.28586 8.69637L9.19248 9.79572C9.29544 9.85493 9.37007 9.9543 9.40254 10.0755C9.43891 10.2111 9.41931 10.3544 9.34722 10.4792L9.20653 10.7228C9.206 10.7237 9.20535 10.7245 9.20487 10.7254C9.20434 10.7263 9.20399 10.7272 9.20352 10.7281L3.98535 19.7615C3.843 20.0079 3.54148 20.1014 3.31382 19.9705L1.40998 18.8718C1.18173 18.7397 1.11171 18.4321 1.25394 18.1859L2.61117 15.8373C2.7743 15.5549 2.67771 15.1939 2.39538 15.0308C2.1131 14.8675 1.75195 14.9643 1.58888 15.2465L0.231584 17.5951C-0.236198 18.4045 0.0270655 19.4356 0.81916 19.8941L2.72424 20.9936C2.979 21.1402 3.25785 21.2097 3.53457 21.2097C4.02084 21.2097 4.49972 20.9941 4.8294 20.6044L7.33274 22.0488C7.83766 22.3399 7.90213 22.5837 8.00876 22.9875C8.14137 23.4893 8.32292 24.1765 9.36411 24.777C9.42781 24.8138 9.49211 24.8509 9.55617 24.888L8.9138 26.0014C8.37482 26.9346 8.69606 28.1329 9.63032 28.6731L11.773 29.9096C12.0798 30.0862 12.4148 30.17 12.7459 30.17C13.4228 30.17 14.0824 29.8193 14.4449 29.1929L15.0872 28.0797C15.3758 28.2408 15.6893 28.3181 15.9993 28.3181C16.6489 28.3181 17.2817 27.9815 17.6291 27.3804C17.789 27.1046 17.8739 26.7989 17.8807 26.4878C18.6511 26.548 19.4257 26.1732 19.837 25.4609C20.0371 25.1143 20.1302 24.7252 20.1111 24.3333C20.8599 24.3705 21.6075 23.9968 22.0092 23.3029C22.3424 22.7258 22.3649 22.0529 22.1287 21.4793C22.5647 21.3176 22.9491 21.0093 23.1991 20.5762C23.7691 19.5891 23.4298 18.3217 22.4423 17.7505L21.401 17.1499L22.2745 15.6361L24.5681 16.9598C24.8454 17.1199 25.1483 17.196 25.4476 17.1959C26.058 17.1959 26.6527 16.8794 26.9796 16.3138L29.7291 11.5516C29.9643 11.1447 30.0264 10.6692 29.9039 10.2126C29.7816 9.7564 29.4901 9.37576 29.083 9.1406ZM21.2845 3.25935C22.4326 1.27279 24.983 0.589983 26.9698 1.73715C27.9278 2.29031 28.6143 3.18779 28.9028 4.2644C29.1915 5.34113 29.0458 6.46167 28.4927 7.41955L27.8947 8.4549L20.687 4.29593L21.2845 3.25935ZM12.3627 28.8866L10.221 27.6507C9.85049 27.4365 9.72278 26.9615 9.93645 26.5916L10.5788 25.4783C11.1211 25.7913 11.6699 26.1081 12.219 26.425C12.8373 26.7819 13.4555 27.1387 14.0642 27.4901L13.4225 28.6022C13.2084 28.9722 12.7327 29.0995 12.3627 28.8866ZM22.1767 19.9858C21.9321 20.4095 21.3876 20.5551 20.963 20.31C20.9585 20.3074 20.954 20.3049 20.9494 20.3025L19.0435 19.2027C18.761 19.0396 18.4 19.1365 18.2371 19.4189C18.0741 19.7013 18.171 20.0624 18.4534 20.2253L20.662 21.4998C21.0858 21.7448 21.2315 22.2889 20.9872 22.7121C20.7417 23.1358 20.1971 23.2814 19.7732 23.0368L19.1227 22.6615C19.1081 22.6526 19.0935 22.6439 19.0786 22.6353C19.0707 22.6307 19.0627 22.6264 19.0547 22.6222L17.5641 21.7621C17.2816 21.5991 16.9206 21.696 16.7578 21.9784C16.5947 22.2607 16.6916 22.6218 16.974 22.7847L18.5172 23.6752C18.7066 23.794 18.8424 23.9784 18.9013 24.1977C18.9631 24.4277 18.9323 24.6667 18.8146 24.8705C18.5699 25.2942 18.0257 25.4396 17.6007 25.1946L15.877 24.2009C15.5946 24.038 15.2335 24.1351 15.0708 24.4175C14.9079 24.7 15.0049 25.0609 15.2874 25.2238L16.3347 25.8275C16.3402 25.8309 16.3458 25.8343 16.3513 25.8375C16.5123 25.9304 16.6275 26.0814 16.676 26.2627C16.724 26.4427 16.6998 26.6294 16.6074 26.789C16.415 27.1218 15.9875 27.2365 15.6549 27.0448C15.4956 26.9529 15.3349 26.86 15.1736 26.7669C15.171 26.7653 15.1686 26.7635 15.1659 26.762C15.1634 26.7604 15.1606 26.7594 15.1579 26.7579C14.3886 26.3137 13.5992 25.8581 12.8093 25.4023C11.8455 24.846 10.8817 24.2898 9.95446 23.7542C9.33902 23.3992 9.26403 23.1154 9.15056 22.6858C9.02533 22.2118 8.85382 21.5626 7.92286 21.0259L5.44461 19.5959L9.93255 11.8266L10.5887 12.2053L10.6854 12.2614C11.0773 12.4895 11.3526 12.6364 11.6943 12.6364C11.9293 12.6364 12.1957 12.5669 12.5529 12.4066L14.8755 11.3602C14.9103 11.3837 14.9458 11.4066 14.9826 11.4278L16.7498 12.4476C16.7285 12.4841 16.7072 12.5206 16.6861 12.5567C16.1023 13.5547 15.4406 14.6859 16.9216 15.9186C16.9475 15.9401 16.9751 15.9594 17.0043 15.9762L20.2846 17.8687C20.2896 17.8718 20.2942 17.8753 20.2993 17.8783C20.3033 17.8805 20.3074 17.882 20.3114 17.8842L21.8519 18.7728C22.2756 19.0181 22.4213 19.5622 22.1767 19.9858ZM20.3784 16.5599L17.6393 14.9797C16.9928 14.4294 17.1055 14.1782 17.7052 13.153C17.7274 13.115 17.7499 13.0764 17.7723 13.038L21.252 15.0461L20.3784 16.5599ZM28.7068 10.961L25.9573 15.7233C25.7986 15.9977 25.4331 16.0958 25.1586 15.9373L22.3629 14.3239C22.3597 14.322 22.3569 14.3199 22.3537 14.318C22.3505 14.3162 22.3473 14.3148 22.3441 14.3131L15.5727 10.4054C15.4387 10.3279 15.3425 10.2016 15.302 10.0497C15.2617 9.89857 15.2821 9.74199 15.3602 9.60755L18.1101 4.84625C18.1874 4.71229 18.3134 4.61617 18.465 4.57561C18.5162 4.56197 18.5679 4.55518 18.6192 4.55518C18.7202 4.55518 18.8193 4.58139 18.9082 4.6327C18.9083 4.63276 18.9084 4.63276 18.9084 4.63282L27.7962 9.76124C27.8026 9.76519 27.8084 9.76956 27.8149 9.77328C27.8199 9.77617 27.8252 9.77812 27.8302 9.78084L28.4926 10.163C28.6265 10.2404 28.7228 10.3666 28.7636 10.5184C28.8042 10.6702 28.7841 10.8272 28.7068 10.961Z" fill="black"/>
<path d="M21.8502 8.05676L20.903 7.50981L19.9558 6.96279C19.6734 6.79966 19.3123 6.89649 19.1494 7.17877C18.9863 7.4611 19.083 7.82214 19.3654 7.98521L19.8013 8.23696L18.8481 9.88704C18.685 10.1694 18.7817 10.5304 19.064 10.6935C19.157 10.7472 19.2586 10.7727 19.3588 10.7727C19.5628 10.7727 19.7612 10.6668 19.8705 10.4775L20.8237 8.82737L21.2598 9.07918C21.3527 9.1329 21.4543 9.15841 21.5544 9.15841C21.7585 9.15841 21.9569 9.05255 22.0662 8.86321C22.2293 8.58087 22.1325 8.21984 21.8502 8.05676Z" fill="black"/>
</svg>
