<svg width="643" height="643" viewBox="0 0 643 643" fill="none" xmlns="http://www.w3.org/2000/svg">
<path d="M263.206 92.129H38.1942V465.365H263.206V92.129Z" fill="#EBEBEB"/>
<path d="M246.32 110.712H55.0923V349.252H246.32V110.712Z" fill="white"/>
<path d="M65.5345 502.916H52.4945V465.365H75.6939L65.5345 502.916Z" fill="#EBEBEB"/>
<path d="M75.6939 465.352L71.9517 479.202H52.4945V465.352H75.6939Z" fill="#C7C7C7"/>
<path d="M235.878 502.916H248.918V465.365H225.719L235.878 502.916Z" fill="#EBEBEB"/>
<path d="M225.719 465.352L229.474 479.202H248.918V465.352H225.719Z" fill="#C7C7C7"/>
<path d="M246.32 364.581C231.746 364.812 217.171 364.963 202.596 365.031C188.039 365.173 173.481 365.147 158.872 365.198L159.49 364.581C159.49 370.741 159.49 376.901 159.49 383.061L159.464 401.528C159.335 413.848 159.22 426.168 158.937 438.487C158.641 426.168 158.525 413.848 158.397 401.528V383.061C158.397 376.901 158.397 370.741 158.397 364.581V363.938H159.014C173.571 363.938 188.129 363.938 202.738 364.105C217.347 364.272 231.763 364.35 246.32 364.581Z" fill="#C7C7C7"/>
<path d="M158.975 449.033C173.55 448.801 188.125 448.647 202.699 448.57C217.257 448.428 231.814 448.467 246.423 448.415L245.806 449.033C245.806 442.988 245.806 436.957 245.806 430.913L245.883 412.78C245.999 400.705 246.115 388.616 246.398 376.541C246.693 388.616 246.809 400.705 246.925 412.78L247.002 430.913C247.002 436.957 247.066 442.988 247.002 449.033V449.663H246.385C231.827 449.598 217.27 449.663 202.661 449.496C188.052 449.328 173.533 449.277 158.975 449.033Z" fill="#C7C7C7"/>
<path d="M167.206 416.175H172.761V394.853H167.206V416.175Z" fill="#C7C7C7"/>
<path d="M55.0923 364.581C69.667 364.349 84.2416 364.199 98.8163 364.131C113.374 363.989 127.931 364.015 142.54 363.964H143.158V364.581C143.158 370.741 143.158 376.901 143.158 383.061V401.528C143.029 413.848 142.913 426.167 142.617 438.487C142.335 426.167 142.219 413.848 142.09 401.528V383.061C142.09 376.901 142.09 370.741 142.09 364.581L142.707 365.198C128.15 365.198 113.592 365.198 98.9835 365.031C84.3745 364.864 69.6498 364.812 55.0923 364.581Z" fill="#C7C7C7"/>
<path d="M142.437 449.033C127.88 449.277 113.322 449.406 98.7134 449.496C84.1044 449.586 69.5983 449.598 54.9893 449.663H54.3721V449.033C54.3721 442.988 54.3721 436.957 54.3721 430.913L54.4492 412.78C54.565 400.705 54.6807 388.616 54.9765 376.541C55.2594 388.616 55.3752 400.705 55.4909 412.78L55.5681 430.913C55.5681 436.957 55.6324 442.988 55.5681 449.033L54.9508 448.415C69.5083 448.415 84.0658 448.415 98.6748 448.57C113.284 448.724 127.88 448.814 142.437 449.033Z" fill="#C7C7C7"/>
<path d="M134.207 394.841H128.651V416.162H134.207V394.841Z" fill="#C7C7C7"/>
<path d="M246.32 104.95H55.0923V110.712H246.32V104.95Z" fill="#EBEBEB"/>
<path d="M246.32 186.38H55.0923V192.141H246.32V186.38Z" fill="#EBEBEB"/>
<path d="M246.32 267.809H55.0923V273.571H246.32V267.809Z" fill="#EBEBEB"/>
<path d="M90.9073 186.367V121.527H71.2315V186.367H90.9073Z" fill="#C7C7C7"/>
<path d="M90.9073 167.99V160.866H71.2316V167.99H90.9073Z" fill="#DBDBDB"/>
<path d="M90.9073 136.959V134.31H71.2315V136.959H90.9073Z" fill="#DBDBDB"/>
<path d="M218.35 121.54V186.38H238.026V121.54H218.35Z" fill="#C7C7C7"/>
<path d="M218.35 139.917V147.041H238.026V139.917H218.35Z" fill="#DBDBDB"/>
<path d="M238.039 182.509V179.86H218.363V182.509H238.039Z" fill="#DBDBDB"/>
<path d="M238.026 170.331V167.682H218.35V170.331H238.026Z" fill="#DBDBDB"/>
<path d="M182.921 186.367V121.527H167.99V186.367H182.921Z" fill="#C7C7C7"/>
<path d="M182.934 167.99V160.866H168.003V167.99H182.934Z" fill="#DBDBDB"/>
<path d="M182.934 136.972V134.323H168.003V136.972H182.934Z" fill="#DBDBDB"/>
<path d="M104.667 186.367V110.725H90.9073V186.367H104.667Z" fill="#DBDBDB"/>
<path d="M101.851 146.926V117.836H93.5951V146.926H101.851Z" fill="#EBEBEB"/>
<path d="M238.039 115.238V186.367H246.333V115.238H238.039Z" fill="#A6A6A6"/>
<path d="M239.723 120.164V147.517H244.7V120.164H239.723Z" fill="#EBEBEB"/>
<path d="M182.934 117.206V186.367H196.694V117.206H182.934Z" fill="#DBDBDB"/>
<path d="M185.75 153.278V179.873H194.006V153.278H185.75Z" fill="#EBEBEB"/>
<path d="M128.008 186.38V128.922H104.655V186.38H128.008Z" fill="#A6A6A6"/>
<path d="M128.008 180.284V174.935H104.655V180.284H128.008Z" fill="#C7C7C7"/>
<path d="M128.008 171.411V169.34H104.655V171.411H128.008Z" fill="#C7C7C7"/>
<path d="M71.2316 186.393V132.394H55.0923V186.393H71.2316Z" fill="#A6A6A6"/>
<path d="M71.2316 180.644V175.616H55.0923V180.644H71.2316Z" fill="#C7C7C7"/>
<path d="M71.2316 148.533V143.505H55.0923V148.533H71.2316Z" fill="#C7C7C7"/>
<path d="M71.2188 153.947V151.992H55.0794V153.947H71.2188Z" fill="#C7C7C7"/>
<path d="M218.35 186.38V110.725H196.681V186.38H218.35Z" fill="#A6A6A6"/>
<path d="M218.35 178.355V171.308H196.681V178.355H218.35Z" fill="#C7C7C7"/>
<path d="M218.35 133.371V126.324H196.681V133.371H218.35Z" fill="#C7C7C7"/>
<path d="M218.35 140.946V138.206H196.681V140.946H218.35Z" fill="#C7C7C7"/>
<path d="M167.951 183.849L147.523 122.081L139.868 124.612L160.296 186.381L167.951 183.849Z" fill="#A6A6A6"/>
<path d="M165.8 177.301L163.894 171.538L156.238 174.07L158.144 179.833L165.8 177.301Z" fill="#C7C7C7"/>
<path d="M153.645 140.573L151.739 134.81L144.084 137.342L145.989 143.105L153.645 140.573Z" fill="#C7C7C7"/>
<path d="M128.021 113.605V186.38H139.878V113.605H128.021Z" fill="#C7C7C7"/>
<path d="M128.021 121.321V128.098H139.878V121.321H128.021Z" fill="#EBEBEB"/>
<path d="M128.008 164.608V171.385H139.865V164.608H128.008Z" fill="#EBEBEB"/>
<path d="M128.021 157.316V159.953H139.878V157.316H128.021Z" fill="#EBEBEB"/>
<path d="M202.056 267.797V202.957H182.381V267.797H202.056Z" fill="#C7C7C7"/>
<path d="M202.056 249.42V242.295H182.381V249.42H202.056Z" fill="#DBDBDB"/>
<path d="M202.056 218.389V215.739H182.381V218.389H202.056Z" fill="#DBDBDB"/>
<path d="M63.3741 202.956L63.3741 267.797H83.0499V202.956H63.3741Z" fill="#C7C7C7"/>
<path d="M63.387 221.333V228.458H83.0628V221.333H63.387Z" fill="#DBDBDB"/>
<path d="M83.0627 263.939V261.289H63.3869V263.939H83.0627Z" fill="#DBDBDB"/>
<path d="M83.0627 251.747V249.098H63.3869V251.747H83.0627Z" fill="#DBDBDB"/>
<path d="M133.41 267.784V202.944H118.479V267.784H133.41Z" fill="#C7C7C7"/>
<path d="M133.41 249.42V242.295H118.479V249.42H133.41Z" fill="#DBDBDB"/>
<path d="M133.41 218.389V215.739H118.479V218.389H133.41Z" fill="#DBDBDB"/>
<path d="M182.368 267.797V192.154H168.607V267.797H182.368Z" fill="#DBDBDB"/>
<path d="M179.68 228.342V199.253H171.424V228.342H179.68Z" fill="#EBEBEB"/>
<path d="M55.0923 212.421V267.784H63.387V212.421H55.0923Z" fill="#A6A6A6"/>
<path d="M56.6997 216.241V237.537H61.6765V216.241H56.6997Z" fill="#EBEBEB"/>
<path d="M104.732 198.623V267.784H118.492V198.623H104.732Z" fill="#DBDBDB"/>
<path d="M107.42 234.695V261.289H115.676V234.695H107.42Z" fill="#EBEBEB"/>
<path d="M168.62 267.809V210.351H145.267V267.809H168.62Z" fill="#A6A6A6"/>
<path d="M168.62 261.701V256.351H145.267V261.701H168.62Z" fill="#C7C7C7"/>
<path d="M168.633 252.84V250.77H145.279V252.84H168.633Z" fill="#C7C7C7"/>
<path d="M246.32 267.797V198.623H230.181V267.797H246.32Z" fill="#A6A6A6"/>
<path d="M246.333 260.466V254.024H230.194V260.466H246.333Z" fill="#C7C7C7"/>
<path d="M246.32 219.327V212.884H230.181V219.327H246.32Z" fill="#C7C7C7"/>
<path d="M246.32 226.259V223.764H230.181V226.259H246.32Z" fill="#C7C7C7"/>
<path d="M104.732 267.809V192.154H83.0627V267.809H104.732Z" fill="#A6A6A6"/>
<path d="M104.732 259.772V252.725H83.0627V259.772H104.732Z" fill="#C7C7C7"/>
<path d="M104.732 214.788V207.74H83.0627V214.788H104.732Z" fill="#C7C7C7"/>
<path d="M104.732 222.362V219.623H83.0627V222.362H104.732Z" fill="#C7C7C7"/>
<path d="M209.723 267.808L230.151 206.039L222.496 203.508L202.068 265.276L209.723 267.808Z" fill="#DBDBDB"/>
<path d="M211.892 261.277L213.798 255.514L206.143 252.982L204.237 258.745L211.892 261.277Z" fill="#C7C7C7"/>
<path d="M224.034 224.536L225.94 218.773L218.284 216.241L216.379 222.004L224.034 224.536Z" fill="#C7C7C7"/>
<path d="M133.41 195.022V267.797H145.267V195.022H133.41Z" fill="#DBDBDB"/>
<path d="M133.41 202.751V209.528H145.267V202.751H133.41Z" fill="#EBEBEB"/>
<path d="M133.41 246.037V252.815H145.267V246.037H133.41Z" fill="#EBEBEB"/>
<path d="M133.41 238.733V241.369H145.267V238.733H133.41Z" fill="#EBEBEB"/>
<path d="M83.77 349.239V284.399H68.8396V349.239H83.77Z" fill="#C7C7C7"/>
<path d="M83.77 330.875V323.75H68.8396V330.875H83.77Z" fill="#DBDBDB"/>
<path d="M83.77 299.844V297.195H68.8396V299.844H83.77Z" fill="#DBDBDB"/>
<path d="M68.8396 349.252V273.609H55.0794L55.0794 349.252H68.8396Z" fill="#DBDBDB"/>
<path d="M66.1519 309.797V280.708H57.8957V309.797H66.1519Z" fill="#EBEBEB"/>
<path d="M83.77 291.793V349.252H107.124V291.793H83.77Z" fill="#A6A6A6"/>
<path d="M83.77 297.889V303.239H107.124V297.889H83.77Z" fill="#C7C7C7"/>
<path d="M83.77 306.762V308.833H107.124V306.762H83.77Z" fill="#C7C7C7"/>
<path d="M232.907 349.239V284.399H220.793V349.239H232.907Z" fill="#C7C7C7"/>
<path d="M232.907 330.862V323.738H220.793V330.862H232.907Z" fill="#DBDBDB"/>
<path d="M232.907 299.831V297.182H220.793V299.831H232.907Z" fill="#DBDBDB"/>
<path d="M107.137 278.753V349.252H122.8V278.753H107.137Z" fill="#C7C7C7"/>
<path d="M107.124 298.725V306.467H122.787V298.725H107.124Z" fill="#DBDBDB"/>
<path d="M122.787 345.034V342.153H107.124V345.034H122.787Z" fill="#DBDBDB"/>
<path d="M122.8 331.788V328.907H107.137V331.788H122.8Z" fill="#DBDBDB"/>
<path d="M159.734 349.226V276.091H144.804V349.226H159.734Z" fill="#C7C7C7"/>
<path d="M159.734 328.496V320.458H144.804V328.496H159.734Z" fill="#DBDBDB"/>
<path d="M159.734 293.504V290.52H144.804V293.504H159.734Z" fill="#DBDBDB"/>
<path d="M130.735 349.226V276.464H122.787V349.226H130.735Z" fill="#DBDBDB"/>
<path d="M129.179 311.302V283.319H124.408V311.302H129.179Z" fill="#EBEBEB"/>
<path d="M194.958 280.078V349.239H220.793V280.078H194.958Z" fill="#DBDBDB"/>
<path d="M200.012 316.137V342.732H215.508V316.137H200.012Z" fill="#EBEBEB"/>
<path d="M194.958 349.239V287.447H171.604V349.239H194.958Z" fill="#A6A6A6"/>
<path d="M194.958 342.693V336.932H171.604V342.693H194.958Z" fill="#C7C7C7"/>
<path d="M194.958 333.164V330.926H171.604V333.164H194.958Z" fill="#C7C7C7"/>
<path d="M246.333 349.239V280.065H232.92V349.239H246.333Z" fill="#A6A6A6"/>
<path d="M246.32 341.909V335.466H232.907V341.909H246.32Z" fill="#C7C7C7"/>
<path d="M246.333 300.77V294.327H232.92V300.77H246.333Z" fill="#C7C7C7"/>
<path d="M246.32 307.688V305.193H232.907V307.688H246.32Z" fill="#C7C7C7"/>
<path d="M144.816 349.239V283.73H130.735V349.239H144.816Z" fill="#A6A6A6"/>
<path d="M144.804 342.307V336.199H130.722V342.307H144.804Z" fill="#C7C7C7"/>
<path d="M144.804 303.354V297.246H130.722V303.354H144.804Z" fill="#C7C7C7"/>
<path d="M144.817 309.887V307.521H130.735V309.887H144.817Z" fill="#C7C7C7"/>
<path d="M159.734 279.615V349.239H171.591V279.615H159.734Z" fill="#DBDBDB"/>
<path d="M159.747 286.997V293.491H171.604V286.997H159.747Z" fill="#EBEBEB"/>
<path d="M159.734 328.406V334.9H171.591V328.406H159.734Z" fill="#EBEBEB"/>
<path d="M159.734 321.436V323.956H171.591V321.436H159.734Z" fill="#EBEBEB"/>
<path d="M434.449 468.657H599.199L604.497 364.118H429.151L434.449 468.657Z" fill="#EBEBEB"/>
<path d="M587.123 411.97H442.037L440.031 375.679H589.451L587.123 411.97ZM443.258 410.684H585.914L588.088 376.965H441.394L443.258 410.684Z" fill="#DBDBDB"/>
<path d="M585.13 453.714H446.242L444.622 420.959H587.213L585.13 453.714ZM447.399 452.428H583.947L585.837 422.245H445.933L447.399 452.428Z" fill="#DBDBDB"/>
<path d="M531.272 397.76H500.511L499.38 389.002H532.404L531.272 397.76ZM501.694 396.474H530.192L530.989 390.288H500.897L501.694 396.474Z" fill="#DBDBDB"/>
<path d="M531.272 441.715H500.511L499.38 432.958H532.404L531.272 441.715ZM501.694 440.429H530.192L530.989 434.244H500.897L501.694 440.429Z" fill="#DBDBDB"/>
<path d="M457.302 468.657L455.707 480.038L452.479 502.916H446.191V468.657H457.302Z" fill="#EBEBEB"/>
<path d="M457.302 468.657L455.707 480.038H446.191V468.657H457.302Z" fill="#DBDBDB"/>
<path d="M576.359 468.657L577.954 480.038L581.169 502.916H587.458V468.657H576.359Z" fill="#EBEBEB"/>
<path d="M576.359 468.657L577.954 480.038H587.458V468.657H576.359Z" fill="#DBDBDB"/>
<path d="M591.521 314.08H526.681V326.194H591.521V314.08Z" fill="#C7C7C7"/>
<path d="M573.144 314.08H566.02V326.194H573.144V314.08Z" fill="#DBDBDB"/>
<path d="M542.126 314.08H539.477V326.194H542.126V314.08Z" fill="#DBDBDB"/>
<path d="M593.695 300.654H511.609V314.067H593.695V300.654Z" fill="#A6A6A6"/>
<path d="M584.989 300.654H577.337V314.067H584.989V300.654Z" fill="#C7C7C7"/>
<path d="M536.172 300.654H528.52V314.067H536.172V300.654Z" fill="#C7C7C7"/>
<path d="M544.39 300.654H541.419V314.067H544.39V300.654Z" fill="#C7C7C7"/>
<path d="M527.71 347.117H597.334V335.26H527.71V347.117Z" fill="#A6A6A6"/>
<path d="M535.092 347.117H541.586V335.26H535.092V347.117Z" fill="#EBEBEB"/>
<path d="M576.488 347.117H582.982V335.26H576.488V347.117Z" fill="#EBEBEB"/>
<path d="M569.531 347.117H572.052V335.26H569.531V347.117Z" fill="#EBEBEB"/>
<path d="M593.81 347.117H507.674V364.118H593.81V347.117Z" fill="#C7C7C7"/>
<path d="M562.535 348.879H507.674V362.356H562.535V348.879Z" fill="white"/>
<path d="M511.224 351.644C515.51 351.558 519.797 351.494 524.084 351.451L536.944 351.387L549.804 351.451C554.086 351.451 558.355 351.554 562.664 351.644C558.381 351.747 554.112 351.811 549.804 351.85H536.944H524.084C519.788 351.807 515.502 351.738 511.224 351.644Z" fill="#DBDBDB"/>
<path d="M511.224 354.293C515.506 354.203 519.776 354.126 524.084 354.087H536.944H549.804C554.086 354.087 558.355 354.19 562.664 354.293C558.381 354.383 554.112 354.46 549.804 354.486L536.944 354.55L524.084 354.486C519.776 354.46 515.506 354.383 511.224 354.293Z" fill="#DBDBDB"/>
<path d="M511.224 356.929C515.51 356.843 519.797 356.779 524.084 356.736H536.944H549.804C554.086 356.736 558.355 356.839 562.664 356.929C558.381 357.032 554.112 357.096 549.804 357.135L536.944 357.199L524.084 357.135C519.788 357.101 515.502 357.032 511.224 356.929Z" fill="#DBDBDB"/>
<path d="M511.224 359.578C515.506 359.488 519.776 359.411 524.084 359.385H536.944H549.804C554.086 359.385 558.355 359.501 562.664 359.591C558.381 359.681 554.112 359.758 549.804 359.797H536.944L524.084 359.733C519.776 359.746 515.506 359.668 511.224 359.578Z" fill="#DBDBDB"/>
<path d="M586.853 326.194H508.626V335.26H586.853V326.194Z" fill="#EBEBEB"/>
<path d="M540.905 334.321H586.866V327.133H540.905V334.321Z" fill="white"/>
<path d="M583.844 332.843C580.269 332.843 576.681 332.907 573.106 332.92H562.355H551.617C548.029 332.92 544.454 332.92 540.866 332.843C544.454 332.843 548.029 332.778 551.617 332.765H562.355H573.106C576.719 332.778 580.307 332.804 583.844 332.843Z" fill="#DBDBDB"/>
<path d="M583.844 331.428C580.269 331.428 576.681 331.428 573.106 331.505H562.355H551.617C548.029 331.505 544.454 331.505 540.866 331.428C544.454 331.428 548.029 331.364 551.617 331.351H573.106L583.844 331.428Z" fill="#DBDBDB"/>
<path d="M583.844 330.026C580.269 330.026 576.681 330.09 573.106 330.103H562.355H551.617C548.029 330.103 544.454 330.103 540.866 330.026C544.454 330.026 548.029 329.962 551.617 329.949H562.355H573.106C576.719 329.962 580.307 329.988 583.844 330.026Z" fill="#DBDBDB"/>
<path d="M583.844 328.612C580.269 328.612 576.681 328.676 573.106 328.689H562.355H551.617C548.029 328.689 544.454 328.689 540.866 328.612C544.454 328.612 548.029 328.547 551.617 328.534H562.355H573.106C576.719 328.547 580.307 328.573 583.844 328.612Z" fill="#DBDBDB"/>
<path d="M440.764 187.422H483.497V144.688H440.764V187.422Z" fill="#DBDBDB"/>
<path d="M447.387 180.799H476.875V151.311H447.387V180.799Z" fill="white"/>
<path d="M476.862 151.311V180.799H447.374L476.862 151.311Z" fill="#EBEBEB"/>
<path d="M440.764 134.876H483.497V92.1418H440.764V134.876Z" fill="#DBDBDB"/>
<path d="M447.387 128.24H476.875V98.7519H447.387V128.24Z" fill="white"/>
<path d="M476.862 107.42V128.24H456.041L476.862 107.42Z" fill="#EBEBEB"/>
<path d="M374.676 187.782H430.527V92.1419H374.676V187.782Z" fill="#DBDBDB"/>
<path d="M381.582 180.799H423.621V99.112H381.582V180.799Z" fill="white"/>
<path d="M423.621 127.25V180.799H396.062L423.621 127.25Z" fill="#EBEBEB"/>
<path d="M493.464 187.782H589.104V92.1419L493.464 92.1419V187.782Z" fill="#DBDBDB"/>
<path d="M582.121 99.1121H500.447V180.799H582.121V99.1121Z" fill="white"/>
<path d="M523.312 180.799C535.658 168.376 570.675 133.217 582.121 121.887V180.799H523.312Z" fill="#EBEBEB"/>
<path d="M38.1942 502.916L109.027 502.607L179.847 502.492L321.5 502.286L463.153 502.492L533.973 502.607L604.806 502.916L533.973 503.238L463.153 503.353L321.5 503.559L179.847 503.353L109.027 503.238L38.1942 502.916Z" fill="#263238"/>
<path d="M321.5 598.903C466.58 598.903 584.191 584.261 584.191 566.2C584.191 548.139 466.58 533.497 321.5 533.497C176.42 533.497 58.8087 548.139 58.8087 566.2C58.8087 584.261 176.42 598.903 321.5 598.903Z" fill="#E5B300"/>
<path d="M255.297 487.343L519.84 487.343V435.144L255.297 435.144V487.343Z" fill="#BA68C8"/>
<path d="M470.457 487.343H496.306V435.144H470.457V487.343Z" fill="#37474F"/>
<path d="M450.074 487.343H460.864V435.144H450.074V487.343Z" fill="#37474F"/>
<path d="M279.345 487.343H305.193V435.144H279.345V487.343Z" fill="#37474F"/>
<path d="M212.866 302.443L144.933 558.114L182.43 568.078L250.364 312.406L212.866 302.443Z" fill="#37474F"/>
<path d="M157.607 510.383L150.969 535.365L188.466 545.328L195.104 520.346L157.607 510.383Z" fill="#BA68C8"/>
<path d="M206.691 325.699L200.053 350.681L237.551 360.644L244.188 335.663L206.691 325.699Z" fill="#BA68C8"/>
<path d="M199.304 566.972H505.694V540.879H199.304V566.972Z" fill="#BA68C8"/>
<path d="M424.894 566.972H437.381V540.879H424.894V566.972Z" fill="#A6A6A6"/>
<path d="M445.638 566.972H458.125V540.879H445.638V566.972Z" fill="#A6A6A6"/>
<path d="M229.872 566.972H242.359V540.879H229.872V566.972Z" fill="#A6A6A6"/>
<path d="M250.603 566.972H263.09V540.879H250.603V566.972Z" fill="#A6A6A6"/>
<path d="M411.7 396.204H228.188V435.144H411.7V396.204Z" fill="#455A64"/>
<path d="M516.303 396.204H411.687V435.144H516.303V396.204Z" fill="#455A64"/>
<path d="M411.7 400.242H228.188V431.106H411.7V400.242Z" fill="white"/>
<path d="M240.058 406.595C254.358 406.372 268.663 406.222 282.971 406.145L325.872 406.003L368.786 406.145C383.087 406.222 397.387 406.372 411.687 406.595C397.387 406.809 383.087 406.963 368.786 407.058L325.872 407.186L282.92 407.045C268.654 406.968 254.367 406.818 240.058 406.595Z" fill="#DBDBDB"/>
<path d="M240.058 412.652C254.358 412.437 268.663 412.283 282.971 412.189L325.872 412.06L368.786 412.189C383.087 412.283 397.387 412.437 411.687 412.652C397.387 412.866 383.087 413.016 368.786 413.102L325.872 413.243L282.92 413.102C268.654 413.025 254.367 412.874 240.058 412.652Z" fill="#DBDBDB"/>
<path d="M240.058 418.709C254.358 418.494 268.663 418.34 282.971 418.246L325.872 418.117L368.786 418.246C383.087 418.323 397.387 418.477 411.687 418.709C397.387 418.932 383.087 419.082 368.786 419.159L325.872 419.3L282.92 419.159C268.654 419.082 254.367 418.932 240.058 418.709Z" fill="#DBDBDB"/>
<path d="M240.058 424.766C254.358 424.543 268.663 424.389 282.971 424.303L325.872 424.161L368.786 424.303C383.087 424.38 397.387 424.534 411.687 424.766C397.387 424.989 383.087 425.139 368.786 425.216L325.872 425.357L282.92 425.216C268.654 425.139 254.367 424.989 240.058 424.766Z" fill="#DBDBDB"/>
<path d="M396.255 281.647H246.063V309.604H396.255V281.647Z" fill="#A6A6A6"/>
<path d="M481.877 281.647H396.255V309.604H481.877V281.647Z" fill="#A6A6A6"/>
<path d="M396.255 284.553H246.063V306.711H396.255V284.553Z" fill="white"/>
<path d="M255.785 289.106C267.497 288.951 279.203 288.844 290.906 288.784L326.027 288.681L361.147 288.784C372.85 288.836 384.553 288.943 396.255 289.106C384.553 289.26 372.85 289.371 361.147 289.44L326.027 289.53L290.906 289.44C279.203 289.38 267.497 289.269 255.785 289.106Z" fill="#DBDBDB"/>
<path d="M255.785 293.452C267.497 293.298 279.203 293.191 290.906 293.131L326.027 293.028L361.147 293.131C372.85 293.182 384.553 293.289 396.255 293.452C384.553 293.607 372.85 293.718 361.147 293.787L326.027 293.877L290.906 293.787C279.203 293.727 267.497 293.615 255.785 293.452Z" fill="#DBDBDB"/>
<path d="M255.785 297.799C267.497 297.645 279.203 297.538 290.906 297.478L326.027 297.375L361.147 297.478C372.85 297.529 384.553 297.636 396.255 297.799C384.553 297.962 372.85 298.073 361.147 298.133L326.027 298.223L290.906 298.133C279.203 298.073 267.497 297.962 255.785 297.799Z" fill="#DBDBDB"/>
<path d="M255.785 302.21C267.497 302.056 279.203 301.949 290.906 301.889L326.027 301.786L361.147 301.889C372.85 301.94 384.553 302.047 396.255 302.21C384.553 302.381 372.85 302.493 361.147 302.544L326.027 302.634L290.906 302.544C279.203 302.441 267.497 302.33 255.785 302.21Z" fill="#DBDBDB"/>
<path d="M200.153 352.351L163.579 489.76L142.72 568.103L122.594 562.741L143.453 484.398L180.027 346.989L200.153 352.351Z" fill="#BA68C8"/>
<path opacity="0.1" d="M200.153 352.351L163.579 489.76L142.72 568.103L122.594 562.741L143.453 484.398L180.027 346.989L200.153 352.351Z" fill="black"/>
<path d="M161.481 489.175L198.067 351.769L182.111 347.52L145.524 484.926L161.481 489.175Z" fill="white"/>
<path d="M192.411 359.81C189.685 370.544 186.916 381.26 184.104 391.96L175.616 424.11L167 456.26C164.102 466.959 161.17 477.65 158.204 488.333C160.947 477.59 163.721 466.874 166.524 456.183L174.999 424.033L183.628 391.883C186.526 381.183 189.453 370.492 192.411 359.81Z" fill="#DBDBDB"/>
<path d="M189.286 358.974C186.551 369.725 183.778 380.442 180.966 391.124L172.491 423.274L163.862 455.424C160.973 466.124 158.045 476.815 155.079 487.497C157.814 476.763 160.587 466.046 163.399 455.347L171.874 423.197L180.503 391.047C183.401 380.347 186.329 369.656 189.286 358.974Z" fill="#DBDBDB"/>
<path d="M186.161 358.151C183.426 368.893 180.653 379.61 177.841 390.301L169.366 422.451L160.737 454.601C157.848 465.3 154.92 475.987 151.954 486.661C154.68 475.919 157.449 465.202 160.261 454.511L168.749 422.361L177.365 390.211C180.254 379.554 183.186 368.868 186.161 358.151Z" fill="#DBDBDB"/>
<path d="M183.024 357.315C180.297 368.049 177.528 378.766 174.716 389.465L166.228 421.615L157.612 453.765C154.723 464.465 151.791 475.151 148.816 485.825C151.551 475.091 154.324 464.375 157.136 453.675L165.611 421.525L174.24 389.375C177.138 378.676 180.066 367.989 183.024 357.315Z" fill="#DBDBDB"/>
<path d="M330.849 540.866H484.59V487.343H330.849V540.866Z" fill="#263238"/>
<path d="M222.864 540.866H330.849V487.343H222.864V540.866Z" fill="#263238"/>
<path d="M330.849 535.31H484.59V492.898H330.849V535.31Z" fill="white"/>
<path d="M474.637 526.591C462.634 526.806 450.653 526.956 438.693 527.041L402.75 527.183L366.742 527.041C354.739 526.964 342.736 526.814 330.734 526.591C342.736 526.377 354.739 526.223 366.742 526.128L402.75 526L438.693 526.128C450.679 526.223 462.66 526.377 474.637 526.591Z" fill="#DBDBDB"/>
<path d="M474.637 518.258C462.634 518.472 450.653 518.622 438.693 518.708L402.75 518.849L366.742 518.708C354.739 518.631 342.736 518.481 330.734 518.258C342.736 518.044 354.739 517.889 366.742 517.795L402.75 517.666L438.693 517.795C450.679 517.881 462.66 518.035 474.637 518.258Z" fill="#DBDBDB"/>
<path d="M474.637 509.95C462.634 510.165 450.653 510.315 438.693 510.4L402.75 510.542L366.742 510.4C354.739 510.323 342.736 510.173 330.734 509.95C342.736 509.727 354.739 509.573 366.742 509.487L402.75 509.346L438.693 509.487C450.679 509.565 462.66 509.719 474.637 509.95Z" fill="#DBDBDB"/>
<path d="M474.637 501.63C462.634 501.853 450.653 502.003 438.693 502.08L402.75 502.222L366.742 502.08C354.739 502.003 342.736 501.853 330.734 501.63C342.736 501.399 354.739 501.244 366.742 501.167L402.75 501.026L438.693 501.167C450.679 501.244 462.66 501.399 474.637 501.63Z" fill="#DBDBDB"/>
<path d="M520.637 359.887H238.463V396.358H520.637V359.887Z" fill="#C7C7C7"/>
<path d="M373.519 367.333H264.993V389.221H373.519V367.333Z" fill="white"/>
<path d="M501.591 367.333H399.714V370.715H501.591V367.333Z" fill="white"/>
<path d="M501.591 376.438H399.714V379.82H501.591V376.438Z" fill="white"/>
<path d="M501.591 385.53H399.714V388.912H501.591V385.53Z" fill="white"/>
<path d="M466.046 309.604H257.972V359.72H466.046V309.604Z" fill="#BA68C8"/>
<path d="M443.979 309.604H424.586V359.72H443.979V309.604Z" fill="#263238"/>
<path d="M411.867 309.604H404.344V359.72H411.867V309.604Z" fill="#263238"/>
<path d="M100.411 468.271C108.577 451.476 122.864 442.86 138.991 447.631C155.117 452.402 157.586 474.843 145.575 480.514C133.564 486.185 121.527 469.621 115.174 466.226C108.821 462.831 100.411 468.271 100.411 468.271Z" fill="#BA68C8"/>
<path d="M92.502 512.947C92.502 510.915 92.6306 508.896 92.6949 506.877C92.8363 502.839 92.9778 498.788 93.1321 494.75C93.4022 487.368 94.1995 480.115 97.2602 473.299C99.962 467.124 104.479 461.917 110.21 458.369C112.339 457.088 114.632 456.102 117.026 455.437C119.189 453.24 121.947 451.725 124.961 451.077C128.691 450.315 132.527 450.219 136.29 450.794C136.432 450.794 136.419 451.013 136.29 451C132.7 450.544 129.055 450.802 125.565 451.759C124.076 452.173 122.632 452.738 121.257 453.444C120.39 453.913 119.557 454.442 118.762 455.025C122.011 454.354 125.366 454.389 128.6 455.128C129.764 455.41 130.904 455.784 132.008 456.247C132.89 456.055 133.793 455.978 134.696 456.016C135.872 456.054 137.041 456.222 138.181 456.517C140.51 457.174 142.739 458.147 144.804 459.411C144.932 459.475 144.804 459.655 144.701 459.591C142.681 458.485 140.517 457.667 138.271 457.16C137.18 456.908 136.07 456.744 134.953 456.671C134.336 456.639 133.718 456.639 133.101 456.671C137.689 458.789 141.376 462.467 143.505 467.049C143.505 467.178 143.376 467.281 143.325 467.152C142.051 464.492 140.192 462.155 137.887 460.316C135.582 458.476 132.891 457.182 130.015 456.53C129.655 456.44 129.294 456.389 128.934 456.311C129.063 456.839 129.037 457.43 129.114 457.945C129.217 458.755 129.359 459.565 129.513 460.375C129.845 462.036 130.274 463.677 130.799 465.288C131.346 466.919 131.999 468.513 132.754 470.059C133.478 471.691 134.393 473.232 135.48 474.65C135.57 474.765 135.39 474.907 135.313 474.778C134.336 473.261 133.217 471.859 132.329 470.29C131.487 468.786 130.756 467.221 130.143 465.609C129.533 463.97 129.056 462.284 128.716 460.568C128.536 459.668 128.394 458.755 128.291 457.842C128.18 457.296 128.146 456.738 128.188 456.183C126.295 455.889 124.371 455.846 122.466 456.054C123.186 460.066 123.958 464.233 126.195 467.718C126.272 467.834 126.067 467.937 126.002 467.821C124.957 465.971 124.034 464.055 123.237 462.086C122.504 460.174 122.041 458.17 121.861 456.131C118.538 456.573 115.329 457.647 112.409 459.295C106.904 462.491 102.51 467.298 99.8193 473.068C96.981 479.277 95.3989 485.985 95.164 492.808C94.6239 501.386 94.521 510.015 93.6594 518.528C93.6594 519.081 92.7206 519.274 92.6177 518.644C92.3952 516.753 92.3565 514.845 92.502 512.947Z" fill="#263238"/>
<path d="M111.38 457.032C111.914 456.377 112.538 455.802 113.232 455.321C113.901 454.768 114.518 454.228 115.303 453.739C116.72 452.77 118.289 452.044 119.945 451.592C120.074 451.592 120.125 451.772 119.945 451.798C118.277 452.214 116.716 452.981 115.367 454.048C114.685 454.55 114.081 455.09 113.387 455.643C112.82 456.235 112.195 456.77 111.522 457.237C111.445 457.302 111.29 457.147 111.38 457.032Z" fill="#263238"/>
<path d="M137.435 463.114C138.788 464.682 140.038 466.336 141.177 468.065C142.297 469.807 143.232 471.66 143.968 473.595C143.968 473.595 143.968 473.685 143.865 473.595C142 469.937 139.796 466.463 137.28 463.217C137.19 463.153 137.345 462.96 137.435 463.114Z" fill="#263238"/>
<path d="M119.868 461.455C120.041 462.504 120.352 463.524 120.794 464.49C121.242 465.425 121.762 466.324 122.35 467.178C122.35 467.178 122.35 467.294 122.26 467.242C120.859 465.624 119.965 463.629 119.688 461.507C119.598 461.365 119.842 461.314 119.868 461.455Z" fill="#263238"/>
<path d="M93.6465 468.683C93.6465 468.683 82.0725 454.151 59.7732 459.295C38.58 464.246 28.7678 503.083 50.154 507.739C71.5401 512.394 67.8107 476.399 75.6168 470.29C81.4038 465.815 89.647 466.818 93.6465 468.683Z" fill="#BA68C8"/>
<path d="M42.528 480.54C43.9828 479.264 45.5208 478.087 47.1319 477.016C48.6428 475.976 50.2921 475.154 52.0316 474.573C52.894 473.246 53.8662 471.994 54.9379 470.83C56.9171 468.706 59.2064 466.894 61.728 465.455H61.0593C59.8762 465.455 58.6931 465.455 57.5099 465.455C55.131 465.607 52.7996 466.191 50.6298 467.178C50.5012 467.178 50.4112 467.037 50.5398 466.985C52.7399 466.029 55.0448 465.334 57.407 464.915C58.5565 464.703 59.7233 464.6 60.8921 464.606C61.5222 464.606 62.1781 464.606 62.7697 464.722H63.1297C65.1753 463.689 67.3328 462.895 69.5597 462.356L68.9425 462.188C67.8347 461.952 66.7139 461.78 65.586 461.674C63.3622 461.413 61.1135 461.447 58.8988 461.777C58.7702 461.777 58.7316 461.584 58.8988 461.558C61.1385 461.289 63.3962 461.198 65.6503 461.288C67.5431 461.348 69.4254 461.593 71.2701 462.021C72.6119 461.77 73.97 461.615 75.3339 461.558C83.0499 461.224 91.6018 464.13 96.3857 470.56C101.17 476.99 102.121 485.504 102.97 493.233C104.268 503.993 104.552 514.852 103.819 525.665C103.819 526.308 102.867 526.18 102.854 525.575C102.559 516.406 102.237 507.237 101.363 498.094C100.951 493.863 100.501 489.619 99.7936 485.427C99.2899 481.813 98.2542 478.294 96.7201 474.984C95.0681 471.57 92.4353 468.727 89.1584 466.818C85.8753 464.947 82.2149 463.836 78.446 463.564C75.0782 463.284 71.6874 463.598 68.4281 464.49C68.5245 465.147 68.5245 465.814 68.4281 466.471C68.3484 467.3 68.1847 468.118 67.9394 468.914C67.6906 469.661 67.3764 470.384 67.0006 471.075C66.5891 471.846 66.0747 472.528 65.6117 473.261C65.5346 473.377 65.3545 473.261 65.4317 473.132C66.3478 471.823 66.9426 470.316 67.1678 468.734C67.3092 467.982 67.3994 467.222 67.4378 466.458C67.4378 465.892 67.4378 465.301 67.4378 464.735C63.8982 465.822 60.5954 467.567 57.7028 469.879C57.1498 470.316 56.6354 470.779 56.121 471.242C56.8534 471.929 57.4893 472.712 58.0115 473.57C58.816 474.682 59.5176 475.866 60.1077 477.106C61.1396 479.574 61.8359 482.169 62.1781 484.822C62.1702 484.845 62.1554 484.864 62.1359 484.878C62.1163 484.892 62.0928 484.9 62.0688 484.9C62.0448 484.9 62.0213 484.892 62.0017 484.878C61.9822 484.864 61.9674 484.845 61.9595 484.822C61.5382 482.239 60.6677 479.749 59.3875 477.466C58.7968 476.337 58.1354 475.246 57.407 474.2C57.0341 473.66 56.6483 473.132 56.2368 472.618C56.0182 472.348 55.7738 472.065 55.5681 471.769C52.9433 474.338 50.8004 477.356 49.2409 480.681C50.281 481.797 51.1479 483.063 51.8129 484.436C52.6517 485.905 53.3865 487.43 54.012 489.002C55.0917 491.973 55.9809 495.009 56.674 498.094C56.674 498.235 56.494 498.274 56.4683 498.094C55.7903 494.974 54.7277 491.95 53.3047 489.092C52.636 487.703 51.9287 486.327 51.1957 484.964C50.4185 483.722 49.7185 482.433 49.0995 481.106C47.6031 484.343 46.7305 487.833 46.5275 491.394C46.5275 491.535 46.296 491.509 46.3089 491.394C46.7185 485.785 48.4362 480.35 51.3243 475.524C49.9611 476.103 48.5851 476.669 47.2734 477.376C45.5936 478.264 44.0336 479.361 42.6309 480.643C42.5666 480.797 42.438 480.63 42.528 480.54Z" fill="#263238"/>
<path d="M58.8988 481.363C59.5675 483.562 60.4163 485.709 61.0207 487.934C61.6346 490.068 61.9632 492.273 61.998 494.493C61.998 494.557 61.908 494.557 61.8952 494.493C61.2943 490.036 60.2208 485.656 58.693 481.427C58.6888 481.413 58.6873 481.399 58.6885 481.385C58.6898 481.371 58.6938 481.357 58.7004 481.345C58.707 481.332 58.716 481.321 58.7268 481.312C58.7377 481.303 58.7502 481.296 58.7637 481.292C58.7773 481.288 58.7915 481.286 58.8056 481.287C58.8197 481.289 58.8334 481.293 58.8459 481.299C58.8584 481.306 58.8696 481.315 58.8786 481.326C58.8877 481.337 58.8946 481.349 58.8988 481.363Z" fill="#263238"/>
<path d="M44.7656 475.897C45.639 475.048 46.6363 474.337 47.7234 473.788C48.8247 473.282 49.9696 472.878 51.1441 472.579C51.2727 472.579 51.3113 472.759 51.1441 472.785C49.9906 473.084 48.8831 473.538 47.852 474.135C46.7988 474.687 45.7847 475.31 44.817 476C44.8105 476.009 44.8017 476.016 44.7917 476.02C44.7817 476.025 44.7707 476.027 44.7598 476.026C44.7489 476.025 44.7384 476.021 44.7294 476.015C44.7203 476.008 44.713 476 44.7081 475.99C44.7032 475.98 44.7009 475.97 44.7014 475.959C44.7019 475.948 44.7051 475.937 44.7109 475.928C44.7167 475.918 44.7247 475.911 44.7343 475.905C44.7439 475.9 44.7546 475.897 44.7656 475.897Z" fill="#263238"/>
<path d="M82.6511 449.277C82.6511 449.277 80.5292 423.171 61.1106 414.709C44.907 407.636 35.635 425.846 47.0932 436.996C56.3524 446.011 71.2186 441.947 82.6511 449.277Z" fill="#BA68C8"/>
<path d="M50.6812 419.763C53.6363 420.954 56.5178 422.319 59.3103 423.853C61.637 425.19 63.875 426.676 66.0103 428.302C65.6888 427.634 65.4059 426.939 65.0844 426.296C64.57 425.293 64.0299 424.303 63.4383 423.351C62.2417 421.379 60.803 419.565 59.156 417.95C59.0659 417.86 59.156 417.706 59.3103 417.809C60.9534 419.425 62.459 421.176 63.8113 423.042C64.4824 423.994 65.1006 424.981 65.6631 426C66.2244 426.937 66.657 427.945 66.9491 428.997C66.9491 429.061 67.0906 429.1 67.1677 429.164C70.5575 431.86 73.6603 434.898 76.4269 438.23C76.4269 437.973 76.3241 437.716 76.2598 437.484C75.8997 436.198 75.501 434.912 75.0766 433.691C74.2477 431.011 73.0718 428.452 71.5787 426.077C71.5651 426.054 71.5615 426.025 71.5687 425.999C71.5759 425.972 71.5934 425.95 71.6173 425.936C71.6412 425.922 71.6695 425.919 71.696 425.926C71.7225 425.933 71.7451 425.951 71.7588 425.975C73.3078 428.341 74.6831 430.817 75.874 433.382C76.3977 434.634 76.8275 435.924 77.16 437.24C77.4452 438.078 77.6603 438.938 77.803 439.812C78.6389 440.879 79.4748 441.96 80.2592 443.078C88.5925 454.935 92.772 469.287 93.7751 483.639C94.0666 487.919 94.1395 492.211 93.9937 496.499C93.9574 500.809 93.5746 505.11 92.8492 509.359C92.8492 509.629 92.3733 509.539 92.3862 509.282C92.4762 505.501 92.8749 501.746 92.9392 497.978C93.0129 494.232 92.897 490.485 92.592 486.751C91.9835 479.213 90.565 471.763 88.361 464.529C86.0859 457.132 82.7458 450.105 78.446 443.67C77.6229 443.503 76.8127 443.284 76.0026 443.078L73.1091 442.307C71.245 441.822 69.4319 441.159 67.695 440.326C67.5664 440.262 67.695 440.069 67.8107 440.133C69.5211 441.069 71.3778 441.709 73.302 442.024C74.8194 442.32 76.4012 442.525 77.9187 442.873C76.5206 440.818 75.0138 438.839 73.4048 436.944C69.7059 437.271 65.9784 436.989 62.371 436.108C60.4511 435.656 58.5647 435.072 56.7254 434.359C54.7707 433.601 52.8674 432.649 51.0156 431.787C50.8741 431.787 51.0156 431.517 51.1056 431.594C54.5788 433.492 58.3712 434.734 62.2938 435.259C65.7557 435.816 69.2555 436.104 72.7618 436.121C71.3858 434.539 69.9584 433.009 68.4409 431.556C63.2969 426.695 57.2913 422.245 50.5783 419.918C50.4883 419.918 50.5526 419.712 50.6812 419.763Z" fill="#263238"/>
<path d="M66.4733 419.84C67.3449 420.946 68.1398 422.111 68.8524 423.325C69.5823 424.603 70.1565 425.963 70.5628 427.376C70.5628 427.376 70.5628 427.441 70.4856 427.376C69.8426 426.09 69.2897 424.804 68.6338 423.518C67.9927 422.263 67.2165 421.082 66.319 419.995C66.229 419.879 66.3833 419.738 66.4733 419.84Z" fill="#263238"/>
<path d="M97.736 444.57C97.8517 445.702 100.668 435.092 117.026 425.679C131.931 417.127 149.716 394.892 135.107 380.836C123.379 369.506 92.2962 394.223 97.736 444.57Z" fill="#BA68C8"/>
<path d="M86.4449 505.398C86.6714 494.363 87.5301 483.349 89.0169 472.412C90.309 462.341 92.6317 452.43 95.9485 442.834C97.2345 439.388 98.5205 435.992 100.077 432.649C99.9975 431.363 100.019 430.073 100.141 428.791C100.218 427.119 100.372 425.46 100.527 423.788C100.681 422.117 100.848 420.458 101.054 418.799C101.26 417.14 101.607 415.481 101.671 413.822C101.671 413.808 101.674 413.795 101.679 413.782C101.684 413.77 101.692 413.759 101.701 413.749C101.711 413.74 101.722 413.732 101.735 413.727C101.747 413.722 101.761 413.719 101.774 413.719C101.788 413.719 101.801 413.722 101.813 413.727C101.826 413.732 101.837 413.74 101.847 413.749C101.856 413.759 101.864 413.77 101.869 413.782C101.874 413.795 101.877 413.808 101.877 413.822C101.552 415.567 101.354 417.333 101.285 419.107C101.17 420.715 101.067 422.335 101.028 423.943C100.99 425.55 101.028 427.171 101.028 428.791C101.028 429.37 101.028 429.987 101.028 430.617C102.571 427.351 104.23 424.187 106.018 421.011C104.912 414.208 106.352 407.096 107.741 400.435C107.741 400.306 107.973 400.357 107.947 400.499C107.265 403.974 106.904 407.503 106.867 411.044C106.867 413.835 106.931 416.625 106.944 419.416C107.342 418.747 107.728 418.13 108.127 417.423C110.262 413.942 112.534 410.547 114.943 407.238C114.754 405.622 114.81 403.988 115.11 402.389C115.374 400.597 115.77 398.826 116.293 397.091C116.82 395.355 117.425 393.645 118.119 391.947C118.814 390.249 119.765 388.578 120.46 386.803C120.466 386.79 120.474 386.779 120.484 386.77C120.495 386.76 120.507 386.753 120.52 386.748C120.533 386.743 120.547 386.741 120.561 386.742C120.575 386.742 120.588 386.746 120.601 386.752C120.614 386.757 120.625 386.766 120.635 386.776C120.644 386.786 120.651 386.798 120.656 386.812C120.661 386.825 120.663 386.839 120.662 386.853C120.662 386.867 120.658 386.88 120.653 386.893C119.774 388.524 119.084 390.25 118.595 392.037C118.063 393.724 117.633 395.442 117.309 397.181C116.962 398.904 116.679 400.64 116.434 402.325C116.267 403.482 116.164 404.678 115.971 405.849C119.48 401.126 123.318 396.657 127.455 392.474C127.477 392.464 127.501 392.461 127.525 392.465C127.549 392.469 127.57 392.48 127.587 392.497C127.604 392.514 127.615 392.536 127.619 392.559C127.623 392.583 127.62 392.607 127.61 392.629C121.344 399.659 115.747 407.258 110.892 415.326L110.365 416.24C111.278 415.674 112.306 415.224 113.155 414.748C114.75 413.873 116.344 412.986 117.952 412.176C119.559 411.366 121.051 410.491 122.594 409.604C123.392 409.167 124.176 408.704 124.986 408.318C125.951 407.877 126.88 407.361 127.764 406.775C127.893 406.685 128.021 406.877 127.893 406.942C126.311 407.816 124.922 409.102 123.392 410.08C121.861 411.057 120.292 411.996 118.711 412.883C115.791 414.516 112.615 415.687 109.709 417.371C107.715 420.856 105.851 424.431 104.192 428.071C105.928 426.952 107.715 425.897 109.516 424.881C110.686 424.238 111.843 423.595 113.027 422.965C114.202 422.432 115.311 421.763 116.332 420.972C116.434 420.882 116.576 421.036 116.473 421.126C114.568 422.85 112.45 424.324 110.172 425.512C108.063 426.798 105.941 427.942 103.742 429.01C101.993 432.868 100.398 436.726 98.9963 440.751C92.0905 460.311 89.5442 481.067 88.3354 501.694C87.9753 507.841 87.7952 513.988 87.7181 520.135C87.6409 526.283 87.9624 532.43 87.9496 538.577C87.9496 538.757 87.6538 538.795 87.6281 538.577C86.8822 533.124 86.7536 527.581 86.5221 522.09C86.2906 516.599 86.3292 510.966 86.4449 505.398Z" fill="#263238"/>
<path d="M116.267 416.844C119.26 415.512 122.171 414.005 124.986 412.33C127.831 410.72 130.591 408.964 133.255 407.07C133.255 407.07 133.358 407.07 133.255 407.148C130.739 409.183 128.084 411.039 125.308 412.703C122.401 414.331 119.394 415.775 116.306 417.024C116.242 417.075 116.139 416.895 116.267 416.844Z" fill="#263238"/>
<path d="M111.509 394.725C111.753 393.773 112.049 392.834 112.371 391.908C112.371 391.908 112.371 391.844 112.371 391.806C112.576 391.265 112.795 390.751 113.014 390.224L113.091 390.031L113.207 389.735L113.052 390.275C113.028 390.38 112.998 390.483 112.962 390.584C111.903 394.238 111.112 397.964 110.596 401.734C110.596 401.849 110.39 401.862 110.403 401.734C110.547 399.367 110.917 397.02 111.509 394.725Z" fill="#263238"/>
<path d="M69.1096 509.346L70.2799 523.222L73.8678 565.544H112.268L115.843 523.222L117.013 509.346H69.1096Z" fill="#455A64"/>
<path d="M69.1096 509.346L70.2799 523.222H115.843L117.013 509.346H69.1096Z" fill="#263238"/>
<path d="M65.3416 517.075H120.781V503.765H65.3416V517.075Z" fill="#455A64"/>
<path d="M506.26 280.669C503.559 281.647 423.711 283.241 420.702 281.39C420.342 281.197 419.043 254.782 419.043 254.782C419.146 254.409 417.757 251.863 415.777 248.352C410.08 238.411 398.943 220.613 398.943 220.613L446.345 206.287L465.815 245.279L470.779 255.232C470.779 255.232 481.658 259.489 491.162 263.733C495.312 265.453 499.357 267.415 503.276 269.61C506.362 271.963 508.96 279.718 506.26 280.669Z" fill="#D3766A"/>
<path d="M506.26 280.67C503.559 281.647 423.711 283.242 420.702 281.39C420.342 281.197 419.043 254.782 419.043 254.782C419.146 254.409 417.757 251.863 415.777 248.352L465.815 245.279L470.779 255.232C470.779 255.232 481.658 259.489 491.162 263.733C495.312 265.453 499.357 267.415 503.276 269.61C506.363 271.963 508.96 279.718 506.26 280.67Z" fill="white"/>
<path d="M506.594 280.965C503.816 281.955 423.853 283.319 420.766 281.454C419.596 280.747 418.194 268.44 419.043 254.782L470.599 253.959C470.599 253.959 500.46 267.154 503.623 269.571C506.787 271.989 509.372 279.988 506.594 280.965Z" fill="#BA68C8"/>
<path opacity="0.1" d="M441.69 282.354C430.308 282.354 421.744 282.033 420.766 281.454C419.596 280.747 418.194 268.44 419.043 254.782H420.329L441.69 282.354Z" fill="black"/>
<path d="M505.398 277.776C491.998 277.673 437.896 278.548 424.637 279.461C424.534 279.461 424.534 279.551 424.637 279.551C437.922 279.936 492.011 278.638 505.411 277.995C505.681 277.995 505.681 277.776 505.398 277.776Z" fill="#263238"/>
<path d="M498.428 266.793C496.937 266.776 495.459 267.07 494.088 267.657C492.717 268.244 491.484 269.111 490.468 270.201C488.616 272.142 487.584 274.721 487.587 277.403C487.587 277.48 487.741 277.48 487.754 277.403C488.159 274.74 489.419 272.281 491.345 270.397C493.27 268.513 495.756 267.307 498.428 266.961C498.531 266.948 498.531 266.793 498.428 266.793Z" fill="#263238"/>
<path d="M474.83 255.232C469.467 255.232 463.256 257.251 460.015 261.662C459.886 261.83 460.144 262.01 460.298 261.92C464.948 259.402 469.854 257.389 474.933 255.914C475.023 255.9 475.104 255.851 475.158 255.778C475.213 255.704 475.236 255.612 475.222 255.522C475.208 255.431 475.159 255.35 475.086 255.296C475.012 255.242 474.92 255.219 474.83 255.232Z" fill="#263238"/>
<path d="M478.996 256.776C473.634 256.776 467.422 258.795 464.182 263.206C464.066 263.373 464.31 263.553 464.465 263.463C469.113 260.924 474.019 258.889 479.099 257.393C479.158 257.359 479.205 257.308 479.234 257.246C479.263 257.185 479.273 257.116 479.261 257.049C479.25 256.982 479.219 256.92 479.172 256.871C479.124 256.822 479.063 256.789 478.996 256.776Z" fill="#263238"/>
<path d="M483.163 258.319C477.8 258.319 471.589 260.338 468.361 264.749C468.233 264.916 468.477 265.096 468.631 265.006C473.283 262.464 478.193 260.429 483.279 258.936C483.338 258.901 483.384 258.849 483.413 258.786C483.441 258.724 483.449 258.654 483.437 258.587C483.424 258.52 483.391 258.458 483.342 258.41C483.293 258.362 483.231 258.33 483.163 258.319Z" fill="#263238"/>
<path d="M487.394 259.862C482.018 259.862 475.82 261.881 472.579 266.292C472.451 266.459 472.695 266.639 472.849 266.549C477.469 264.028 482.345 262.006 487.394 260.518C487.47 260.503 487.538 260.462 487.587 260.402C487.636 260.342 487.663 260.267 487.663 260.19C487.663 260.113 487.636 260.038 487.587 259.978C487.538 259.918 487.47 259.877 487.394 259.862Z" fill="#263238"/>
<path d="M427.814 266.691C421.795 266.806 421.975 276.156 428.006 276.04C434.038 275.924 433.845 266.562 427.814 266.691Z" fill="#263238"/>
<path d="M480.385 240.816C477.633 238.617 474.238 240.816 472.605 243.234C469.883 247.355 468.287 252.117 467.975 257.046C467.975 257.149 468.053 257.2 468.143 257.187C468.163 257.289 468.207 257.384 468.272 257.464C468.336 257.545 468.42 257.609 468.514 257.65C468.609 257.692 468.712 257.71 468.815 257.704C468.919 257.697 469.019 257.665 469.107 257.612C472.888 254.898 477.26 252.468 480.089 248.687C481.736 246.475 482.983 242.9 480.385 240.816ZM473.955 252.39C472.129 253.779 470.252 255.052 468.477 256.493C469.307 253.78 470.273 251.11 471.37 248.494C471.923 247.238 472.555 246.018 473.261 244.842C474.405 243.054 479.588 238.412 480.218 244.301C480.617 247.452 476.167 250.693 473.994 252.326L473.955 252.39Z" fill="#263238"/>
<path d="M454.678 259.258C459.359 259.901 464.156 258.486 468.734 257.689C468.832 257.662 468.923 257.612 468.999 257.544C469.075 257.476 469.134 257.392 469.172 257.297C469.209 257.202 469.224 257.099 469.215 256.998C469.206 256.896 469.173 256.798 469.12 256.711C469.136 256.697 469.149 256.679 469.158 256.659C469.167 256.639 469.172 256.617 469.172 256.596C469.172 256.574 469.167 256.552 469.158 256.532C469.149 256.512 469.136 256.494 469.12 256.48C465.393 253.229 460.879 251.012 456.028 250.05C453.186 249.561 449.213 250.384 448.852 253.908C448.492 257.431 451.939 258.885 454.678 259.258ZM451.386 256.261C447.669 251.722 454.575 251.233 456.646 251.683C457.985 251.988 459.301 252.392 460.581 252.892C463.211 253.944 465.786 255.129 468.297 256.441C466.021 256.698 463.796 257.136 461.532 257.47C458.858 257.869 453.431 258.769 451.386 256.261Z" fill="#263238"/>
<path d="M412.163 247.812L468.4 239.286C468.4 239.286 441.394 185.415 424.676 156.185C415.378 139.93 389.954 139.132 377.544 158.615C360.98 184.631 348.146 209.001 340.79 222.478L328.033 223.571L330.785 244.404L373.223 253.895C389.465 255.85 400.859 226.889 401.129 227.429C403.122 231.261 412.163 247.812 412.163 247.812Z" fill="#37474F"/>
<path d="M401.373 227.622C399.766 224.343 398.519 220.87 397.104 217.514L392.976 207.779C390.224 201.207 387.369 194.662 384.694 188.065C383.189 184.361 381.813 180.606 380.412 176.863C380.412 176.773 380.232 176.863 380.257 176.863C381.35 180.4 382.482 183.936 383.665 187.434C383.344 186.83 383.035 186.226 382.701 185.634C381.801 184.027 380.875 182.432 379.936 180.837H379.846C380.707 182.445 381.569 184.039 382.418 185.621C382.855 186.418 383.344 187.19 383.82 187.975C387.094 197.818 390.99 207.444 395.484 216.794C397.271 220.459 399.342 223.97 401.155 227.635C401.232 227.815 401.425 227.712 401.373 227.622Z" fill="#263238"/>
<path d="M413.423 237.807C410.71 233.628 404.254 220.973 401.939 216.588C397.271 207.74 392.937 198.7 388.938 189.582C386.649 184.438 384.514 179.191 382.392 173.944C382.392 173.944 382.328 173.944 382.392 173.944C385.623 183.384 389.328 192.655 393.49 201.722C397.605 210.814 410.916 235.299 413.308 237.949C413.346 238.013 413.5 237.91 413.423 237.807Z" fill="#263238"/>
<path d="M378.521 180.902C373.673 189.556 368.722 198.147 363.861 206.789C361.405 211.148 358.935 215.521 356.505 219.893C355.36 221.964 354.254 224.047 353.058 226.079C352.043 228.004 350.505 229.604 348.622 230.695C346.368 231.765 344.005 232.589 341.574 233.152C338.835 233.949 336.122 234.811 333.37 235.569C333.241 235.569 333.305 235.788 333.37 235.762C335.813 235.106 338.282 234.476 340.751 233.936C343.016 233.454 345.253 232.849 347.451 232.123C349.402 231.48 351.126 230.288 352.415 228.689C353.739 226.858 354.904 224.918 355.9 222.889C360.804 214.042 365.627 205.13 370.368 196.153C373.094 191.074 375.782 185.981 378.521 180.927C378.573 180.902 378.534 180.876 378.521 180.902Z" fill="#263238"/>
<path d="M410.89 239.916C414.259 239.299 417.706 239.016 421.101 238.63L431.324 237.344C438.115 236.457 461.25 232.766 462.999 232.2C463.021 232.192 463.041 232.177 463.055 232.158C463.069 232.138 463.076 232.115 463.076 232.091C463.076 232.067 463.069 232.043 463.055 232.024C463.041 232.004 463.021 231.989 462.999 231.981C461.34 231.981 446.191 233.949 442.796 234.451C436.005 235.454 429.254 236.65 422.477 237.794C420.548 238.116 418.619 238.489 416.69 238.836C414.761 239.183 412.832 239.595 410.903 239.839C410.897 239.819 410.885 239.802 410.868 239.791C410.851 239.779 410.831 239.773 410.811 239.774C410.791 239.775 410.771 239.784 410.756 239.797C410.741 239.811 410.731 239.829 410.728 239.849C410.724 239.869 410.728 239.89 410.738 239.908C410.748 239.926 410.763 239.94 410.782 239.947C410.801 239.955 410.822 239.956 410.842 239.951C410.861 239.945 410.878 239.933 410.89 239.916Z" fill="#263238"/>
<path d="M444.609 298.352C443.709 295.638 395.509 231.943 392.217 230.721C391.831 230.554 370.291 245.896 370.291 245.896C369.404 247.079 328.444 238.424 328.444 238.424L328.033 287.832L402.621 286.251C402.621 286.251 412.69 292.166 421.911 297.002C425.831 299.204 429.88 301.167 434.038 302.879C437.832 303.792 445.522 301.014 444.609 298.352Z" fill="#D3766A"/>
<path d="M434.102 302.827C429.939 301.127 425.889 299.164 421.975 296.95C412.767 292.128 402.685 286.186 402.685 286.186L386.083 286.546L360.08 244.597C365.777 245.613 370.034 246.218 370.368 245.883C370.368 245.883 391.908 230.554 392.294 230.721C395.586 231.943 443.734 295.626 444.686 298.352C445.638 301.078 437.832 303.792 434.102 302.827Z" fill="white"/>
<path d="M445.046 298.352C444.094 295.561 395.676 231.917 392.32 230.644C391.034 230.168 380.502 236.675 370.317 245.806L401.579 286.804C401.579 286.804 430.424 302.081 434.282 303.072C438.14 304.062 445.998 301.181 445.046 298.352Z" fill="#BA68C8"/>
<path d="M441.805 299.406C433.421 288.938 400.653 245.922 393.13 234.939C393.13 234.849 393.13 234.798 393.207 234.939C401.733 245.137 434.192 288.411 441.985 299.329C442.14 299.509 441.985 299.638 441.805 299.406Z" fill="#263238"/>
<path d="M428.855 300.757C427.919 299.594 427.235 298.25 426.848 296.808C426.46 295.367 426.377 293.86 426.605 292.385C426.977 289.733 428.359 287.328 430.463 285.672C430.527 285.672 430.617 285.736 430.553 285.801C428.718 287.772 427.57 290.284 427.283 292.962C426.996 295.639 427.583 298.338 428.958 300.654C428.965 300.668 428.967 300.684 428.965 300.7C428.962 300.716 428.954 300.73 428.943 300.742C428.932 300.753 428.917 300.761 428.902 300.763C428.886 300.766 428.87 300.764 428.855 300.757Z" fill="#263238"/>
<path d="M405.167 289.35C401.862 285.119 399.599 279.062 401.078 273.712C401.078 273.506 401.425 273.596 401.464 273.712C402.342 278.935 403.777 284.048 405.746 288.964C405.797 289.041 405.816 289.135 405.798 289.225C405.779 289.316 405.726 289.395 405.649 289.446C405.573 289.498 405.479 289.516 405.388 289.498C405.298 289.48 405.218 289.427 405.167 289.35Z" fill="#263238"/>
<path d="M408.948 291.69C405.643 287.472 403.38 281.402 404.859 276.053C404.859 275.847 405.206 275.937 405.231 276.117C406.12 281.339 407.56 286.451 409.527 291.369C409.555 291.444 409.556 291.527 409.529 291.603C409.501 291.678 409.447 291.742 409.377 291.781C409.306 291.82 409.224 291.832 409.146 291.816C409.067 291.799 408.997 291.755 408.948 291.69Z" fill="#263238"/>
<path d="M412.806 294.005C409.501 289.787 407.238 283.717 408.716 278.38C408.716 278.175 409.064 278.252 409.089 278.38C409.978 283.602 411.418 288.714 413.385 293.632C413.434 293.709 413.451 293.802 413.432 293.892C413.412 293.981 413.358 294.059 413.282 294.108C413.205 294.158 413.112 294.175 413.023 294.155C412.933 294.136 412.855 294.082 412.806 294.005Z" fill="#263238"/>
<path d="M416.548 296.333C413.243 292.102 410.98 286.045 412.459 280.695C412.459 280.489 412.806 280.579 412.832 280.695C413.72 285.917 415.16 291.029 417.127 295.947C417.178 296.024 417.197 296.118 417.179 296.208C417.161 296.299 417.107 296.378 417.031 296.429C416.954 296.48 416.86 296.499 416.769 296.481C416.679 296.463 416.599 296.41 416.548 296.333Z" fill="#263238"/>
<path d="M385.067 245.356C381.44 240.559 388.925 234.914 392.526 239.723C396.127 244.533 388.706 250.166 385.067 245.356Z" fill="#263238"/>
<path d="M403.29 297.555C404.511 292.989 403.701 288.051 403.495 283.409C403.482 283.301 403.443 283.199 403.38 283.111C403.318 283.022 403.235 282.951 403.138 282.902C403.041 282.854 402.934 282.83 402.826 282.833C402.718 282.836 402.612 282.866 402.518 282.92C402.507 282.901 402.49 282.886 402.471 282.875C402.452 282.865 402.431 282.859 402.409 282.859C402.387 282.859 402.365 282.865 402.346 282.875C402.327 282.886 402.311 282.901 402.299 282.92C398.613 286.21 395.863 290.416 394.326 295.111C393.477 297.85 393.799 301.914 397.233 302.712C400.666 303.509 402.518 300.217 403.29 297.555ZM399.946 300.448C394.982 303.547 395.355 296.59 396.088 294.648C396.575 293.362 397.142 292.108 397.786 290.893C399.162 288.413 400.665 286.006 402.287 283.679C402.287 285.955 402.402 288.231 402.454 290.507C402.428 293.208 402.634 298.725 399.946 300.448Z" fill="#263238"/>
<path d="M388.089 269.777C385.517 272.233 387.369 275.873 389.517 277.789C393.253 281.015 397.772 283.202 402.621 284.129C402.643 284.133 402.665 284.132 402.686 284.126C402.708 284.12 402.727 284.109 402.743 284.094C402.76 284.079 402.772 284.06 402.78 284.039C402.788 284.019 402.79 283.996 402.788 283.974C402.891 283.965 402.99 283.931 403.078 283.875C403.165 283.82 403.238 283.745 403.291 283.655C403.343 283.566 403.374 283.466 403.381 283.363C403.387 283.26 403.369 283.156 403.328 283.061C401.116 278.972 399.252 274.329 395.857 271.05C393.876 269.134 390.481 267.488 388.089 269.777ZM398.711 277.557C399.843 279.538 400.872 281.557 402.081 283.499C399.509 282.213 396.937 281.132 394.506 279.641C393.327 278.933 392.197 278.147 391.124 277.287C389.491 275.937 385.607 270.214 391.471 270.317C394.699 270.381 397.374 275.204 398.66 277.557H398.711Z" fill="#263238"/>
<path d="M349.856 226.953C349.856 226.953 268.105 212.601 244.854 217.334C212.421 223.905 206.454 262.267 230.515 276.49C261.058 294.648 383.742 291.137 383.742 291.137L354.422 241.459C354.422 241.459 309.322 231.956 268.427 233.332L350.216 245.832L349.856 226.953Z" fill="#37474F"/>
<path d="M356.376 244.661C356.343 244.579 356.321 244.493 356.312 244.404C356.312 244.34 356.312 244.263 356.312 244.199C356.312 244.134 356.222 243.877 356.183 243.71C356.085 243.382 355.969 243.06 355.836 242.745C355.715 242.421 355.578 242.104 355.425 241.794C355.269 241.488 355.089 241.195 354.884 240.919H354.807H354.73H354.653C349.702 239.993 315.996 235.184 310.993 234.605C305.991 234.026 300.872 233.563 295.806 233.139C285.693 232.26 275.542 231.896 265.392 232.046L262.537 232.123C262.344 232.123 262.125 232.02 261.92 231.969C261.431 231.853 260.942 231.737 260.454 231.647C259.54 231.467 258.615 231.339 257.701 231.197C255.772 230.901 253.843 230.696 251.94 230.335C251.916 230.335 251.893 230.345 251.877 230.362C251.86 230.379 251.85 230.402 251.85 230.425C251.85 230.449 251.86 230.472 251.877 230.489C251.893 230.506 251.916 230.515 251.94 230.515C253.856 230.94 255.798 231.493 257.663 231.917L259.322 232.264C255.605 232.47 251.902 232.753 248.185 233.087C248.069 233.087 248.069 233.28 248.185 233.268C253.239 232.972 258.319 232.933 263.386 233.023C268.452 233.113 273.429 233.216 278.445 233.512C288.591 234.091 298.725 235.004 308.833 236.084C314.504 236.675 348.866 241.691 354.563 241.922C354.563 242.051 354.653 242.179 354.717 242.308C354.782 242.437 355.039 242.925 355.206 243.221C355.373 243.517 355.527 243.8 355.708 244.083L355.99 244.494L356.132 244.7C356.193 244.765 356.245 244.839 356.286 244.919C356.222 244.854 356.441 244.777 356.376 244.661Z" fill="#263238"/>
<path d="M373.159 288.064C371.345 285.17 369.802 282.071 368.143 279.062L363.128 270.06C359.797 264.067 347.824 243.941 346.641 242.527C346.564 242.437 346.41 242.527 346.448 242.642C347.014 244.211 354.486 257.534 356.209 260.505C359.643 266.446 363.256 272.272 366.819 278.149C367.847 279.821 368.902 281.467 369.931 283.139C370.96 284.81 372.053 286.444 373.004 288.154C373.056 288.321 373.223 288.218 373.159 288.064Z" fill="#263238"/>
<path d="M346.307 247.606C343.311 246.886 340.25 246.423 337.215 245.845L328.123 244.134C322.062 243.011 315.987 241.935 309.9 240.906C297.76 238.862 285.582 237.177 273.326 235.994C266.421 235.338 259.489 234.901 252.558 234.386C252.416 234.386 252.416 234.618 252.558 234.618C264.903 235.171 277.223 236.842 289.44 238.604C301.657 240.366 313.604 242.244 325.667 244.276L335.865 246.025C339.324 246.629 342.77 247.311 346.256 247.799C346.384 247.825 346.436 247.632 346.307 247.606Z" fill="#263238"/>
<path d="M336.148 150.308C338.514 165.058 351.065 210.865 364.44 215.752C373.171 218.954 418.76 216.318 426.168 208.576C429.421 205.194 425.486 176.362 420.483 176.722C415.481 177.082 380.013 183.075 376.579 181.545C373.146 180.014 356.942 149.973 348.159 138.708C334.63 121.36 334.36 138.708 336.148 150.308Z" fill="#D3766A"/>
<path d="M341.459 177.879L366.51 163.245C366.51 163.245 356.222 147.028 347.992 137.435C339.761 127.841 332.675 125.591 334.746 145.318C335.815 156.38 338.066 167.296 341.459 177.879Z" fill="#263238"/>
<path d="M355.978 226.336C354.627 227.442 278.933 219.687 278.612 219.16C277.737 217.733 293.504 171.051 303.702 153.741C316.767 131.545 322.709 130.143 326.271 129.179C330.823 127.893 338.282 128.921 341.703 131.391C343.606 132.754 348.725 143.955 350.461 152.802C353.959 170.536 357.148 225.32 355.978 226.336Z" fill="#BA68C8"/>
<path d="M339.825 141.923C335.505 142.965 328.059 136.393 325.114 131.056C324.908 130.683 325.461 126.812 325.898 122.054C326.155 119.186 326.374 115.971 326.361 113.052C326.361 112.448 344.815 117.45 344.815 117.45C343.779 121.129 343.196 124.921 343.079 128.741C343.088 129.147 343.131 129.552 343.208 129.95C343.216 130.014 343.216 130.079 343.208 130.143C343.619 132.458 343.992 140.907 339.825 141.923Z" fill="#D3766A"/>
<path d="M327.493 113.168C328.367 118.132 331.505 130.117 341.343 130.297C341.975 130.311 342.607 130.277 343.233 130.195C343.242 130.126 343.242 130.057 343.233 129.989C343.152 129.591 343.104 129.186 343.092 128.78C343.208 124.959 343.796 121.166 344.841 117.489C344.841 117.489 331.492 113.85 327.493 113.168Z" fill="#263238"/>
<path d="M327.338 88.7339C324.098 94.7524 323.776 113.939 327.506 118.981C332.907 126.298 343.619 129.037 350.293 122.106C356.723 115.406 356.723 90.38 352.403 85.6089C346.011 78.5488 332.122 79.809 327.338 88.7339Z" fill="#D3766A"/>
<path d="M341.909 105.851C341.909 105.851 341.806 105.851 341.806 105.966C341.806 107.252 341.613 108.744 340.443 109.143V109.22C341.883 109.053 342.076 107.072 341.909 105.851Z" fill="#263238"/>
<path d="M340.79 104.475C338.72 104.269 338.462 108.435 340.391 108.628C342.32 108.821 342.526 104.655 340.79 104.475Z" fill="#263238"/>
<path d="M349.123 106.326C349.123 106.326 349.226 106.404 349.226 106.455C349.098 107.741 349.226 109.233 350.319 109.734V109.811C348.892 109.516 348.815 107.535 349.123 106.326Z" fill="#263238"/>
<path d="M350.358 105.053C352.454 105.053 352.351 109.194 350.422 109.22C348.493 109.246 348.622 105.079 350.358 105.053Z" fill="#263238"/>
<path d="M339.067 101.067C339.636 101.045 340.203 100.985 340.764 100.887C341.374 100.913 341.976 100.736 342.475 100.385C342.61 100.245 342.695 100.065 342.716 99.8712C342.737 99.6779 342.692 99.4831 342.59 99.3177C342.34 99.0171 342.013 98.7893 341.644 98.6581C341.276 98.5269 340.878 98.4971 340.494 98.5718C339.699 98.6064 338.944 98.9312 338.372 99.4849C338.252 99.621 338.173 99.7886 338.145 99.9681C338.117 100.148 338.141 100.331 338.214 100.498C338.287 100.664 338.406 100.806 338.557 100.907C338.708 101.008 338.885 101.063 339.067 101.067Z" fill="#263238"/>
<path d="M352.454 102.134C351.904 101.985 351.363 101.805 350.834 101.594C350.234 101.494 349.686 101.195 349.278 100.745C349.172 100.578 349.126 100.381 349.147 100.185C349.168 99.9888 349.255 99.8055 349.393 99.6649C349.702 99.4268 350.069 99.2761 350.456 99.2286C350.843 99.1811 351.235 99.2385 351.592 99.3948C352.354 99.5803 353.022 100.038 353.47 100.681C353.576 100.84 353.632 101.028 353.63 101.219C353.628 101.411 353.568 101.597 353.458 101.755C353.349 101.912 353.194 102.032 353.015 102.099C352.836 102.167 352.64 102.179 352.454 102.134Z" fill="#263238"/>
<path d="M340.61 113.927C340.905 114.459 341.308 114.924 341.793 115.291C342.278 115.659 342.834 115.921 343.426 116.061C343.941 116.202 344.475 116.258 345.008 116.229C345.106 116.242 345.206 116.242 345.304 116.229H345.587C345.657 116.221 345.723 116.19 345.774 116.142C345.825 116.093 345.859 116.028 345.87 115.959V115.74V115.624C345.96 114.634 345.96 113.052 345.96 113.052C346.307 113.258 348.107 114.21 348.107 113.682C348.261 109.227 347.964 104.768 347.22 100.372C347.212 100.347 347.195 100.324 347.173 100.308C347.151 100.292 347.125 100.284 347.098 100.284C347.071 100.284 347.044 100.292 347.022 100.308C347 100.324 346.984 100.347 346.976 100.372C346.808 104.526 347.374 108.667 347.271 112.834C346.628 112.488 345.94 112.233 345.227 112.075C345.085 112.075 345.291 115.007 345.227 115.457C344.416 115.495 343.605 115.371 342.843 115.09C342.081 114.81 341.383 114.379 340.79 113.824C340.649 113.747 340.546 113.824 340.61 113.927Z" fill="#263238"/>
<path d="M344.442 115.74C343.856 116.419 343.102 116.934 342.256 117.232C341.792 117.38 341.293 117.38 340.828 117.232C339.813 116.897 339.851 115.946 340.083 115.148C340.219 114.727 340.4 114.322 340.623 113.94C341.673 114.929 343.011 115.559 344.442 115.74Z" fill="#263238"/>
<path d="M342.256 117.18C341.792 117.328 341.293 117.328 340.828 117.18C339.813 116.846 339.851 115.894 340.083 115.097C340.628 115.145 341.14 115.378 341.536 115.756C341.931 116.135 342.185 116.637 342.256 117.18Z" fill="#FF98B9"/>
<path d="M325.564 105.915C329.55 107.059 333.601 89.8913 333.601 89.8913C335.634 91.6515 337.924 93.0913 340.391 94.1609C342.951 95.0649 345.604 95.6817 348.3 95.9998C348.905 95.9998 342.758 91.3188 342.758 91.3188C346.547 92.9145 350.619 93.7281 354.73 93.7108C357.804 93.5307 357.637 92.219 357.765 91.2159C357.894 90.2128 353.972 79.8477 341.536 78.6517C339.022 78.471 336.503 78.9155 334.203 79.9455C331.903 80.9755 329.894 82.5589 328.354 84.5544C328.354 84.5544 322.632 88.4124 322.04 91.2674C321.23 95.0739 321.359 104.706 325.564 105.915Z" fill="#263238"/>
<path d="M348.403 106.931C348.609 103.999 350.358 101.787 352.261 101.877C354.164 101.967 355.605 104.449 355.399 107.432C355.193 110.416 353.444 112.576 351.541 112.474C349.638 112.371 348.197 109.85 348.403 106.931ZM349.11 106.931C348.93 109.503 350.036 111.612 351.58 111.715C353.123 111.818 354.525 109.85 354.705 107.33C354.885 104.809 353.779 102.649 352.235 102.533C350.692 102.417 349.303 104.449 349.11 106.982V106.931Z" fill="#455A64"/>
<path d="M335.08 105.979C335.213 105.018 335.625 104.116 336.263 103.385C336.902 102.654 337.741 102.127 338.676 101.866C339.612 101.606 340.603 101.625 341.527 101.921C342.452 102.217 343.269 102.777 343.88 103.532C344.49 104.287 344.867 105.204 344.962 106.17C345.058 107.135 344.87 108.108 344.42 108.969C343.97 109.829 343.278 110.538 342.43 111.01C341.581 111.482 340.614 111.696 339.645 111.625C338.292 111.479 337.052 110.803 336.197 109.745C335.341 108.687 334.94 107.333 335.08 105.979ZM335.787 105.979C335.795 106.806 336.043 107.613 336.501 108.302C336.96 108.99 337.609 109.53 338.369 109.856C339.13 110.181 339.969 110.278 340.783 110.134C341.598 109.991 342.353 109.613 342.956 109.047C343.559 108.481 343.985 107.752 344.18 106.948C344.376 106.144 344.333 105.301 344.056 104.521C343.78 103.741 343.283 103.059 342.625 102.557C341.967 102.056 341.178 101.757 340.353 101.697C339.175 101.666 338.032 102.103 337.177 102.913C336.321 103.723 335.821 104.84 335.787 106.018V105.979Z" fill="#455A64"/>
<path d="M344.777 106.185C347.49 105.439 348.635 106.404 348.635 106.404L349.11 105.876C349.11 105.876 347.709 104.59 344.571 105.503L344.777 106.185Z" fill="#455A64"/>
<path d="M335.466 105.529L335.646 104.848C335.196 104.732 324.509 101.954 323.339 101.813C322.169 101.671 319.095 103.099 318.761 103.227L319.069 103.87C320.362 103.195 321.757 102.734 323.197 102.507C324.149 102.636 331.634 104.539 335.466 105.529Z" fill="#455A64"/>
<path d="M328.277 104.577C328.277 104.577 325.152 97.8131 322.156 98.8291C319.159 99.845 320.754 109.117 323.738 110.879C324.106 111.131 324.521 111.307 324.958 111.395C325.396 111.483 325.846 111.482 326.283 111.392C326.72 111.302 327.135 111.125 327.501 110.871C327.868 110.617 328.18 110.292 328.419 109.914L328.277 104.577Z" fill="#D3766A"/>
<path d="M322.67 101.465C322.67 101.465 322.67 101.465 322.67 101.555C324.754 102.841 325.564 105.156 326.001 107.471C325.911 107.227 325.769 107.004 325.585 106.819C325.402 106.634 325.181 106.49 324.937 106.398C324.693 106.305 324.433 106.266 324.173 106.282C323.913 106.299 323.659 106.371 323.429 106.494C323.352 106.494 323.429 106.622 323.429 106.622C323.845 106.569 324.267 106.645 324.638 106.841C325.008 107.036 325.309 107.342 325.499 107.715C325.816 108.347 326.062 109.011 326.233 109.696C326.31 109.914 326.683 109.863 326.657 109.619C327.197 106.738 325.692 102.314 322.67 101.465Z" fill="#263238"/>
<path d="M372.168 199.201C372.168 203.947 358.717 202.751 355.36 203.162C352.004 203.574 351.502 204.448 353.2 205.426C353.55 205.591 353.917 205.72 354.293 205.811C349.072 204.731 331.814 198.713 331.814 198.713C331.814 198.713 342.179 195.279 347.67 194.173C353.161 193.067 372.181 194.43 372.168 199.201Z" fill="#D3766A"/>
<path d="M404.434 174.793C407.125 172.36 410.075 170.23 413.23 168.44C417.423 166.293 426.772 162.435 428.367 161.264L431.273 160.609L421.808 224.201L396.911 235.338L351.772 230.657L358.112 170.626L361.057 169.919C361.057 169.919 366.819 170.742 371.513 170.948C376.206 171.154 392.011 169.122 404.434 174.793Z" fill="white"/>
<path d="M393.31 237.486L401.078 176.439L356.158 170.292L349.47 232.38L393.31 237.486Z" fill="#BA68C8"/>
<path opacity="0.1" d="M393.31 237.486L401.078 176.439L356.158 170.292L349.47 232.38L393.31 237.486Z" fill="black"/>
<path d="M393.31 237.486L399.599 236.778L407.43 175.732L401.078 176.439L393.31 237.486Z" fill="#BA68C8"/>
<path d="M399.599 236.778L407.43 175.732L432.456 159.863L422.644 224.651L399.599 236.778Z" fill="#BA68C8"/>
<path opacity="0.1" d="M399.599 236.778L407.43 175.732L432.456 159.863L422.644 224.651L399.599 236.778Z" fill="black"/>
<path d="M305.219 144.636C295.741 155.246 265.263 199.523 269.34 213.116C272.015 222.028 321.706 234.438 332.354 235.775C337.009 236.354 343.118 204.358 339.838 200.577C336.559 196.797 306.621 196.719 305.798 193.003C304.975 189.286 320.484 155.966 323.03 143.466C327.493 121.707 311.212 137.898 305.219 144.636Z" fill="#D3766A"/>
<path d="M382.469 218.041C382.251 222.234 375.743 223.635 375.293 223.712C375.692 223.712 381.479 223.095 380.965 227.262C380.45 231.428 374.728 233.795 374.728 233.795C374.728 233.795 376.644 234.785 374.908 237.653C372.4 241.768 362.048 243.015 356.531 242.398C351.014 241.781 331.119 235.402 328.097 234.361L331.788 198.713C331.788 198.713 349.046 204.731 354.267 205.811H354.344C357.951 206.657 361.606 207.284 365.288 207.689C371.14 208.1 379.19 203.831 380.167 208.075C381.055 211.868 375.178 214.286 375.178 214.286C375.178 214.286 382.701 213.707 382.469 218.041Z" fill="#D3766A"/>
<path d="M374.882 214.273C366.471 217.077 362.305 216.845 353.843 214.749C353.812 214.747 353.781 214.755 353.756 214.772C353.73 214.789 353.711 214.814 353.7 214.844C353.69 214.873 353.69 214.904 353.699 214.934C353.709 214.963 353.728 214.989 353.753 215.006C361.855 217.81 367.037 218.864 375.036 214.672C375.422 214.466 375.281 214.145 374.882 214.273Z" fill="#263238"/>
<path d="M375.615 223.52C366.613 225.667 362.112 225.449 353.084 223.918C352.955 223.918 352.904 224.111 353.084 224.137C361.816 226.387 367.011 227.313 375.705 223.995C376.039 223.841 376.026 223.417 375.615 223.52Z" fill="#263238"/>
<path d="M374.612 233.743C365.764 235.197 360.8 235.171 352.223 232.56C352.185 232.557 352.148 232.566 352.116 232.587C352.085 232.608 352.061 232.638 352.049 232.674C352.037 232.71 352.038 232.748 352.051 232.784C352.063 232.819 352.088 232.849 352.12 232.869C360.594 236.38 366.78 236.457 374.625 234.013C375.152 233.859 375.165 233.653 374.612 233.743Z" fill="#263238"/>
<path d="M432.006 177.532C434.822 181.545 441.008 186.071 441.998 189.569C442.284 190.419 442.289 191.339 442.011 192.191C441.733 193.044 441.187 193.784 440.455 194.302C440.455 194.302 444.313 195.472 444.737 198.803C444.956 200.513 442.41 202.365 442.41 202.365C443.271 202.676 444.029 203.218 444.601 203.933C445.173 204.648 445.536 205.507 445.65 206.416C445.805 208.782 443.233 210.274 443.233 210.274C443.233 210.274 445.689 212.653 445.059 215.122C443.773 220.137 423.673 223.571 419.339 216.691C417.307 213.476 422.271 212.91 422.271 212.91C422.271 212.91 414.928 212.01 414.118 207.882C413.307 203.754 419.789 203.394 419.789 203.394C419.789 203.394 412.69 202.455 412.279 198.082C411.867 193.71 418.4 194.289 418.4 194.289C418.4 194.289 413.41 192.025 413.86 188.605C414.606 182.959 424.226 188.257 428.469 186.444L429.665 178.728L432.006 177.532Z" fill="#D3766A"/>
<path d="M437.124 183.178C434.784 179.153 439.208 172.89 437.523 168.749C435.247 163.09 429.627 169.971 429.614 178.741L430.81 185.557L437.124 183.178Z" fill="#D3766A"/>
<path d="M442.86 210.57C442.924 210.57 442.963 210.647 442.86 210.672C436.274 213.554 428.967 214.361 421.911 212.987C421.692 212.987 421.666 212.55 421.911 212.563C428.954 212.923 436.011 212.251 442.86 210.57Z" fill="#100E3A"/>
<path d="M442.513 202.391C442.59 202.391 442.628 202.494 442.513 202.532C435.216 205.632 427.051 206.019 419.493 203.625C419.236 203.535 419.095 203.188 419.403 203.265C424.637 204.654 436.121 204.05 442.513 202.391Z" fill="#100E3A"/>
<path d="M417.86 193.942C425.267 196.205 432.649 195.871 440.198 194.43C440.288 194.43 440.314 194.559 440.198 194.597C436.7 196.308 431.8 196.719 427.955 196.719C424.385 196.768 420.865 195.881 417.744 194.147C417.654 194.186 417.706 193.89 417.86 193.942Z" fill="#100E3A"/>
<path d="M287.588 163.669L314.427 174.793C314.427 174.793 321.127 156.789 323.763 144.431C326.4 132.072 323.905 125.038 309.399 138.656C301.261 146.196 293.95 154.581 287.588 163.669Z" fill="#263238"/>
<path d="M395.355 79.3847C394.429 85.1589 389.452 89.9814 389.452 89.9814C389.452 89.9814 382.611 88.8497 378.573 84.6059C375.191 81.0823 375.101 76.1569 378.058 74.1507C382.302 71.2701 386.044 79.0504 386.044 79.0504C386.044 79.0504 384.694 70.5242 389.825 70.4728C393.4 70.4471 396.088 74.588 395.355 79.3847Z" fill="#BA68C8"/>
<path d="M372.168 104.243C369.816 106.097 366.992 107.255 364.015 107.587C362.053 105.329 360.762 102.567 360.286 99.6136C359.964 96.0899 362.138 93.2479 364.722 93.4536C368.426 93.7365 367.037 99.8836 367.037 99.8836C367.037 99.8836 370.137 94.4439 373.056 96.7329C375.1 98.3018 374.779 101.851 372.168 104.243Z" fill="#BA68C8"/>
<path d="M368.902 54.012C368.094 55.6064 366.855 56.9427 365.327 57.87C363.685 57.1479 362.277 55.9808 361.263 54.5007C360.183 52.6617 360.646 50.5527 362.099 49.9997C364.182 49.2152 364.993 52.8932 364.993 52.8932C364.993 52.8932 365.288 49.1381 367.462 49.6396C368.979 49.974 369.725 51.993 368.902 54.012Z" fill="#BA68C8"/>
</svg>
