<svg width="55" height="53" viewBox="0 0 55 53" fill="none" xmlns="http://www.w3.org/2000/svg">
<path d="M22.7772 3.58693C24.3337 -0.890874 30.6663 -0.89087 32.2228 3.58693L35.4095 12.7547C36.0962 14.7301 37.9396 16.0694 40.0305 16.112L49.7343 16.3098C54.4739 16.4064 56.4308 22.4291 52.6532 25.2931L44.9188 31.1569C43.2523 32.4203 42.5482 34.5874 43.1538 36.5891L45.9644 45.8791C47.3371 50.4166 42.2139 54.1388 38.3227 51.4311L30.3559 45.8873C28.6393 44.6928 26.3607 44.6928 24.6441 45.8873L16.6773 51.4311C12.7861 54.1388 7.66286 50.4166 9.03563 45.8791L11.8462 36.5891C12.4518 34.5874 11.7477 32.4203 10.0812 31.1569L2.34683 25.2931C-1.43083 22.4291 0.526074 16.4064 5.2657 16.3098L14.9695 16.112C17.0604 16.0694 18.9038 14.7301 19.5905 12.7547L22.7772 3.58693Z" fill="#C4C4C4"/>
</svg>
