<svg width="24" height="23" viewBox="0 0 24 23" fill="none" xmlns="http://www.w3.org/2000/svg">
<g filter="url(#filter0_d)">
<path d="M10.6599 1.43478C11.2825 -0.356344 13.8155 -0.356344 14.4381 1.43478L15.6188 4.83133C15.8934 5.62147 16.6308 6.15721 17.4671 6.17425L21.0623 6.24752C22.9581 6.28615 23.7409 8.69524 22.2298 9.84085L19.3644 12.0133C18.6978 12.5187 18.4161 13.3855 18.6583 14.1862L19.6996 17.628C20.2487 19.443 18.1994 20.9319 16.643 19.8488L13.6914 17.7949C13.0047 17.3171 12.0933 17.3171 11.4066 17.7949L8.45503 19.8488C6.89855 20.9319 4.84926 19.443 5.39836 17.628L6.43965 14.1862C6.68188 13.3855 6.40023 12.5187 5.73363 12.0133L2.86816 9.84085C1.35709 8.69524 2.13985 6.28615 4.0357 6.24752L7.63085 6.17425C8.46719 6.15721 9.20458 5.62147 9.47923 4.83133L10.6599 1.43478Z" fill="url(#paint0_diamond)"/>
</g>
<defs>
<filter id="filter0_d" x="0.0728951" y="0.0914307" width="22.9522" height="22.124" filterUnits="userSpaceOnUse" color-interpolation-filters="sRGB">
<feFlood flood-opacity="0" result="BackgroundImageFix"/>
<feColorMatrix in="SourceAlpha" type="matrix" values="0 0 0 0 0 0 0 0 0 0 0 0 0 0 0 0 0 0 127 0" result="hardAlpha"/>
<feOffset dx="-2" dy="2"/>
<feColorMatrix type="matrix" values="0 0 0 0 0 0 0 0 0 0 0 0 0 0 0 0 0 0 0.25 0"/>
<feBlend mode="normal" in2="BackgroundImageFix" result="effect1_dropShadow"/>
<feBlend mode="normal" in="SourceGraphic" in2="effect1_dropShadow" result="shape"/>
</filter>
<radialGradient id="paint0_diamond" cx="0" cy="0" r="1" gradientUnits="userSpaceOnUse" gradientTransform="translate(12.549 11) rotate(90) scale(15)">
<stop stop-color="#BC13AB"/>
<stop offset="1" stop-color="#820075"/>
</radialGradient>
</defs>
</svg>
