<svg width="100" height="100" viewBox="0 0 100 100" fill="none" xmlns="http://www.w3.org/2000/svg">
<path d="M25.2027 0C24.124 0 23.2494 0.874805 23.2494 1.95332C23.2494 3.03203 24.124 3.90664 25.2027 3.90664C36.2365 3.90664 45.2131 13.1162 45.2131 24.4369C45.2131 25.5156 46.0879 26.3902 47.1664 26.3902C48.2451 26.3902 49.1197 25.5154 49.1197 24.4369C49.1199 10.9623 38.3906 0 25.2027 0Z" fill="white"/>
<path d="M25.1963 9.26697C24.1176 9.26697 23.2429 10.1418 23.2429 11.2203C23.2429 12.299 24.1176 13.1736 25.1963 13.1736C31.2383 13.1736 36.1537 18.2261 36.1537 24.4365C36.1537 25.5152 37.0285 26.3898 38.107 26.3898C39.1857 26.3898 40.0603 25.515 40.0603 24.4365C40.0605 16.072 33.3924 9.26697 25.1963 9.26697Z" fill="white"/>
<path d="M25.2342 17.8037C24.1553 17.8037 23.2809 18.6781 23.2809 19.757C23.2809 20.8357 24.1557 21.7104 25.2342 21.7104C26.6457 21.7104 27.7938 22.9064 27.7938 24.3768C27.7938 25.4555 28.6684 26.3301 29.7471 26.3301C30.8258 26.3301 31.7004 25.4553 31.7004 24.3768C31.7006 20.7523 28.7996 17.8037 25.2342 17.8037Z" fill="white"/>
<path d="M89.5486 15.4816H85.2188C84.14 15.4816 83.2654 16.3562 83.2654 17.4349C83.2654 18.5136 84.14 19.3882 85.2188 19.3882H89.5486C93.1568 19.3882 96.0924 22.3238 96.0924 25.932V52.4474C96.0924 54.5249 95.118 56.3779 93.6037 57.5775V52.4693C93.6037 48.4841 90.7602 45.0613 86.8426 44.3306L85.5799 44.0952C85.8615 43.232 86.0156 42.312 86.0156 41.356V36.8673C86.0156 31.9866 82.0449 28.0159 77.1643 28.0159C72.2836 28.0159 68.3131 31.9866 68.3131 36.8673V41.356C68.3131 42.312 68.4674 43.232 68.7488 44.0952L67.4861 44.3306C63.5684 45.0611 60.725 48.4839 60.725 52.4693V58.132C58.7508 57.004 57.4162 54.8792 57.4162 52.4474V25.932C57.4162 22.3238 60.3518 19.3882 63.96 19.3882H68.6154C69.6941 19.3882 70.5688 18.5136 70.5688 17.4349C70.5688 16.3562 69.6939 15.4816 68.6154 15.4816H63.96C58.1977 15.4816 53.5096 20.1697 53.5096 25.932V52.4474C53.5096 58.2097 58.1977 62.8978 63.96 62.8978H73.7893V68.514C73.7893 69.3029 74.2639 70.0146 74.9922 70.3173C75.2348 70.4183 75.4895 70.4673 75.7422 70.4673C76.2484 70.4673 76.7463 70.2704 77.1195 69.8997L84.1656 62.8978H89.5486C95.3109 62.8978 99.999 58.2097 99.999 52.4474V25.932C99.999 20.1697 95.3109 15.4816 89.5486 15.4816ZM72.2195 36.8673C72.2195 34.1407 74.4375 31.9226 77.1641 31.9226C79.8906 31.9226 82.1088 34.1407 82.1088 36.8673V41.356C82.1088 44.0825 79.8906 46.3007 77.1641 46.3007C74.4375 46.3007 72.2195 44.0825 72.2195 41.356V36.8673ZM89.6965 58.987C89.6471 58.9882 89.598 58.9908 89.5482 58.9908H83.3602V58.9911C82.8441 58.9911 82.3492 59.1952 81.9832 59.5587L77.6959 63.8193V60.9443C77.6959 59.8656 76.8211 58.9909 75.7426 58.9909H64.6318V52.4691C64.6318 50.3646 66.1336 48.5568 68.2023 48.1708L70.9561 47.6574C72.5549 49.2329 74.7475 50.2072 77.1643 50.2072C79.5809 50.2072 81.7738 49.2325 83.3727 47.6572L86.1266 48.1706C88.1955 48.5566 89.6971 50.3642 89.6971 52.4691V58.987H89.6965Z" fill="white"/>
<path d="M77.3537 16.0544C76.9906 15.6892 76.4865 15.4822 75.9729 15.4822C75.4592 15.4822 74.9551 15.6892 74.5918 16.0544C74.2285 16.416 74.0196 16.9201 74.0196 17.4355C74.0196 17.9492 74.2283 18.4533 74.5918 18.8166C74.9551 19.1796 75.459 19.3888 75.9729 19.3888C76.4865 19.3888 76.9906 19.1798 77.3537 18.8166C77.717 18.4513 77.9262 17.9494 77.9262 17.4355C77.9262 16.9199 77.7172 16.4177 77.3537 16.0544Z" fill="white"/>
<path d="M36.3043 65.7103C35.941 65.3471 35.439 65.1381 34.9232 65.1381C34.4095 65.1381 33.9054 65.3471 33.5424 65.7103C33.1791 66.0736 32.9699 66.5775 32.9699 67.0914C32.9699 67.607 33.1789 68.1092 33.5424 68.4724C33.9074 68.8377 34.4095 69.0465 34.9232 69.0465C35.4369 69.0465 35.941 68.8377 36.3043 68.4724C36.6695 68.1092 36.8765 67.6068 36.8765 67.0914C36.8765 66.5777 36.6695 66.0738 36.3043 65.7103Z" fill="white"/>
<path d="M79.0594 83.373L64.0945 68.408C62.1024 66.4158 58.9684 66.1244 56.6434 67.7145L47.0922 74.2453C46.317 74.7752 45.2729 74.6781 44.6086 74.0139L41.4502 70.8553C40.6877 70.093 39.4512 70.0928 38.6875 70.8553C37.9248 71.618 37.9248 72.8547 38.6875 73.618L41.8459 76.7766C43.8381 78.7686 46.9717 79.0605 49.2971 77.4701L58.8483 70.9394C59.6231 70.4096 60.6676 70.5064 61.3318 71.1707L76.2969 86.1357C77.0584 86.8971 77.0582 88.1365 76.2967 88.8984C66.7006 98.4945 51.0863 98.4945 41.4902 88.8984L11.1031 58.5109C6.4543 53.8623 3.89454 47.6818 3.89454 41.1076C3.89454 34.5334 6.4545 28.3527 11.1033 23.7039C11.4723 23.335 11.9627 23.132 12.4844 23.132C13.0063 23.132 13.4969 23.3352 13.8656 23.7041L28.8305 38.6691C29.4943 39.333 29.5916 40.3777 29.0619 41.1527L22.5315 50.7039C20.941 53.0291 21.2328 56.1627 23.2248 58.1551L27.9725 62.9027C28.7354 63.6652 29.9719 63.6652 30.7352 62.9027C31.4979 62.14 31.4979 60.9031 30.7352 60.14L25.9875 55.3924C25.3236 54.7285 25.2264 53.684 25.7563 52.909L32.2869 43.3578C33.877 41.0324 33.5852 37.8986 31.5932 35.9066L16.6283 20.9416C14.3436 18.6568 10.6258 18.6568 8.34063 20.9416C-2.7787 32.0611 -2.7787 50.1539 8.34063 61.2734L38.7277 91.6603C44.2875 97.2201 51.5904 100 58.8934 100C66.1965 99.9998 73.4994 97.2199 79.0592 91.6603C81.3439 89.3756 81.344 85.658 79.0594 83.373Z" fill="white"/>
<path d="M26.3139 48.031L14.4729 36.19C13.7098 35.4275 12.4733 35.4275 11.7102 36.19C10.9475 36.9529 10.9475 38.1898 11.7102 38.9527L23.5514 50.7937C23.9328 51.175 24.4324 51.3658 24.9326 51.3658C25.4324 51.3658 25.9324 51.175 26.3139 50.7937C27.0766 50.0309 27.0766 48.7939 26.3139 48.031Z" fill="white"/>
<path d="M71.633 93.3501L59.1742 80.8913C58.4111 80.1288 57.1746 80.1288 56.4115 80.8913C55.6488 81.6542 55.6488 82.8911 56.4115 83.654L68.8703 96.1128C69.2517 96.4941 69.7514 96.6849 70.2516 96.6849C70.7514 96.6849 71.2514 96.4941 71.633 96.1128C72.3957 95.3497 72.3957 94.113 71.633 93.3501Z" fill="white"/>
</svg>
