<svg width="100" height="100" viewBox="0 0 100 100" fill="none" xmlns="http://www.w3.org/2000/svg">
<path d="M92.6758 3.61328H7.32422C3.28555 3.61328 0 6.89883 0 10.9375V75.3906C0 79.4293 3.28555 82.7148 7.32422 82.7148H38.5854L36.8223 88.8855C36.1143 91.3637 33.3389 93.457 30.7617 93.457H19.7266C18.9176 93.457 18.2617 94.1127 18.2617 94.9219C18.2617 95.7311 18.9176 96.3867 19.7266 96.3867H80.2734C81.0824 96.3867 81.7383 95.7311 81.7383 94.9219C81.7383 94.1127 81.0824 93.457 80.2734 93.457H69.2383C66.6611 93.457 63.8857 91.3635 63.1777 88.8855L61.4146 82.7148H92.6758C96.7145 82.7148 100 79.4293 100 75.3906V10.9375C100 6.89883 96.7145 3.61328 92.6758 3.61328ZM7.32422 6.54297H92.6758C95.099 6.54297 97.0703 8.51445 97.0703 10.9375V62.207H2.92969V10.9375C2.92969 8.51445 4.90098 6.54297 7.32422 6.54297ZM60.3607 89.6904C60.7627 91.0977 61.5617 92.3904 62.6092 93.457H37.3908C38.4383 92.3904 39.2373 91.0975 39.6393 89.6904L41.6322 82.7148H58.3676L60.3607 89.6904ZM92.6758 79.7852H7.32422C4.90098 79.7852 2.92969 77.8137 2.92969 75.3906V65.1367H97.0703V75.3906C97.0703 77.8137 95.099 79.7852 92.6758 79.7852Z" fill="white"/>
<path d="M7.32422 59.2773H92.6758C93.4848 59.2773 94.1406 58.6217 94.1406 57.8125V10.9375C94.1406 10.1283 93.4848 9.47266 92.6758 9.47266H7.32422C6.51523 9.47266 5.85938 10.1283 5.85938 10.9375V31.4453C5.85938 32.2545 6.51523 32.9102 7.32422 32.9102C8.1332 32.9102 8.78906 32.2545 8.78906 31.4453V12.4023H91.2109V56.3477H8.78906V37.3047C8.78906 36.4955 8.1332 35.8398 7.32422 35.8398C6.51523 35.8398 5.85938 36.4955 5.85938 37.3047V57.8125C5.85938 58.6217 6.51523 59.2773 7.32422 59.2773Z" fill="white"/>
<path d="M50 68.0664C47.5768 68.0664 45.6055 70.0379 45.6055 72.4609C45.6055 74.884 47.5768 76.8555 50 76.8555C52.4232 76.8555 54.3945 74.884 54.3945 72.4609C54.3945 70.0379 52.4232 68.0664 50 68.0664ZM50 73.9258C49.1922 73.9258 48.5352 73.2688 48.5352 72.4609C48.5352 71.6531 49.1922 70.9961 50 70.9961C50.8078 70.9961 51.4648 71.6531 51.4648 72.4609C51.4648 73.2688 50.8078 73.9258 50 73.9258Z" fill="white"/>
</svg>
