<svg width="100" height="100" viewBox="0 0 100 100" fill="none" xmlns="http://www.w3.org/2000/svg">
<g clip-path="url(#clip0)">
<path d="M78.8676 65.3319L72.9987 63.6086L60.2299 55.2686V53.3577C63.9268 50.5692 66.4655 46.3069 66.9373 41.4211C68.7914 41.1227 70.2119 39.5116 70.2119 37.5749V32.32C70.2119 32.2997 70.2098 32.2797 70.2088 32.2594V25.6028C70.9475 25.0739 71.4162 24.2124 71.4162 23.2459V17.1542L80.2282 15.6532C81.6764 15.4065 82.7178 14.2563 82.8201 12.7909C82.9221 11.3254 82.0504 10.0418 80.6506 9.59673L50.9442 0.1479C50.3243 -0.0493652 49.6696 -0.0491699 49.05 0.147705L19.3432 9.59673C17.9434 10.0418 17.0715 11.3254 17.1737 12.7907C17.2385 13.7217 17.6834 14.5245 18.3701 15.0502V23.0165H18.2975C16.6246 23.0165 15.2637 24.3774 15.2637 26.0502V30.0045L13.3053 41.4991C12.9668 43.4872 14.4981 45.3069 16.5196 45.3069H23.1502C25.1672 45.3069 26.7037 43.4915 26.3645 41.4989L24.4061 30.0045V26.0502C24.4061 24.3774 23.0451 23.0165 21.3723 23.0165H21.2998V15.9143L28.5838 17.1549V23.2459C28.5838 24.2083 29.0504 25.0684 29.7856 25.5981L29.7883 32.3206V37.5749C29.7883 39.5118 31.2088 41.1227 33.0629 41.4211C33.5346 46.3041 36.0705 50.5645 39.7639 53.3532V55.2731L26.9979 63.6116L21.1336 65.3329C14.8584 67.1747 10.4276 72.9358 10.4276 79.6327V83.9983C10.4276 84.8073 11.0832 85.4631 11.8924 85.4631C12.7016 85.4631 13.3573 84.8075 13.3573 83.9983V79.6327C13.3573 74.3545 16.8942 69.6301 21.9588 68.1438L27.4229 66.5399L49.2522 79.5112C49.6953 79.7745 50.2817 79.7885 50.7487 79.5112L72.5793 66.5391L78.0428 68.143C83.1067 69.6297 86.6436 74.354 86.6436 79.6317V93.7797C86.6436 95.5944 85.1672 97.0708 83.3526 97.0708H76.8961V90.7567C76.8961 89.9477 76.2405 89.2918 75.4313 89.2918C74.6223 89.2918 73.9664 89.9475 73.9664 90.7567V97.0708H26.0274V90.7567C26.0274 89.9477 25.3717 89.2918 24.5625 89.2918C23.7533 89.2918 23.0977 89.9475 23.0977 90.7567V97.0708H16.6479C14.8332 97.0708 13.3569 95.5944 13.3569 93.7797V90.8457C13.3569 90.0368 12.7012 89.3809 11.892 89.3809C11.0828 89.3809 10.4272 90.0366 10.4272 90.8457V93.7795C10.4272 97.2096 13.2176 100 16.6477 100H83.3522C86.7823 100 89.5727 97.2096 89.5727 93.7795V79.6315C89.5727 73.0924 85.293 67.2184 78.8676 65.3319ZM23.15 42.3772H16.5196C16.3147 42.3772 16.1584 42.1942 16.1932 41.9909L17.9647 31.5932H21.7049L23.4764 41.9907C23.511 42.1936 23.3559 42.3772 23.15 42.3772ZM21.4764 26.0502V28.6637H18.193V26.0502C18.193 25.9926 18.2397 25.9459 18.2973 25.9459H21.3719C21.4297 25.9458 21.4764 25.9926 21.4764 26.0502ZM44.7612 72.885L45.3442 73.7811L30.3893 64.895L39.8817 58.6948C40.3121 63.7456 41.977 68.6059 44.7612 72.885ZM44.751 66.5618C48.1989 67.0516 51.7992 67.052 55.2491 66.5618C54.5825 68.202 53.761 69.7848 52.7834 71.2876L50 75.5657L47.2166 71.2876C46.2391 69.7848 45.4176 68.202 44.751 66.5618ZM55.2389 72.885C58.0231 68.6059 59.6879 63.7456 60.1182 58.6948L69.6106 64.8948L54.6559 73.7811L55.2389 72.885ZM63.8075 26.1483H67.2793V30.8549H65.5561C64.5918 30.8549 63.8073 30.0706 63.8073 29.1063V26.1483H63.8075ZM20.2311 12.3885L49.9383 2.93931C49.9764 2.9272 50.0174 2.927 50.0561 2.9395L79.7631 12.3885C79.8244 12.4081 79.9086 12.4346 79.8979 12.5872C79.8871 12.7395 79.8002 12.7542 79.7366 12.7651L69.9147 14.4379L66.2272 13.9819C65.4248 13.8825 64.6932 14.4532 64.5938 15.2559C64.4946 16.0588 65.0651 16.7901 65.8678 16.8893L68.4869 17.2133V23.2188L31.5133 23.2174V17.2131L46.6709 15.3375C48.8787 15.0647 51.117 15.0647 53.3233 15.3375L59.0602 16.0471C59.8629 16.1465 60.5944 15.576 60.6938 14.7733C60.7932 13.9704 60.2227 13.2391 59.42 13.1397L53.683 12.4301C51.2383 12.1276 48.7578 12.1276 46.3114 12.4301L30.0821 14.4383L20.2573 12.7651C20.1936 12.7542 20.1067 12.7395 20.0959 12.5872C20.0854 12.4346 20.1696 12.4079 20.2311 12.3885ZM32.717 30.8549L32.7151 26.1483H36.1926V29.1065C36.1926 30.0706 35.4082 30.8551 34.4438 30.8551H32.717V30.8549ZM35.941 40.6682C35.8657 39.4754 34.8742 38.5411 33.6842 38.5411C33.1512 38.5411 32.7176 38.1075 32.7176 37.5747V33.7846H34.4438C37.0233 33.7846 39.1221 31.686 39.1221 29.1065V26.1483H60.8778V29.1065C60.8778 31.686 62.9766 33.7846 65.5561 33.7846H67.2823V37.5747C67.2823 38.1075 66.8487 38.5411 66.3157 38.5411C65.1256 38.5411 64.1342 39.4754 64.0588 40.6684C63.5922 48.0647 57.4168 53.8586 49.9998 53.8586C42.5828 53.8586 36.4076 48.0647 35.941 40.6682ZM50 56.7881C52.6053 56.7881 55.0815 56.1924 57.3004 55.1333V56.0616C57.3004 58.5661 56.9625 61.0366 56.3119 63.4194C52.3311 64.1784 47.8305 64.209 43.6881 63.4194C43.0375 61.0368 42.6996 58.5663 42.6996 56.0616C42.6996 56.0305 42.6953 56.0002 42.6934 55.9696C42.693 55.9635 42.6936 55.9575 42.6932 55.9514V55.1303C44.9137 56.1913 47.3922 56.7881 50 56.7881Z" fill="white"/>
</g>
<defs>
<clipPath id="clip0">
<rect width="100" height="100" fill="white"/>
</clipPath>
</defs>
</svg>
