<svg width="100" height="100" viewBox="0 0 100 100" fill="none" xmlns="http://www.w3.org/2000/svg">
<g clip-path="url(#clip0)">
<path d="M83.3333 72.0597L79.0885 69.5166C77.7946 68.7426 76.3143 68.3341 74.8063 68.3333H68.418C67.1102 68.3309 65.8081 68.4993 64.5435 68.833L45.2954 73.9998C43.1909 74.5809 41.5007 76.1482 40.7633 78.2031L23.833 69.0437C22.4601 68.2625 20.8529 67.9972 19.3018 68.295C18.7166 68.3984 18.1494 68.5848 17.6164 68.8484C16.4128 69.4246 15.4142 70.3556 14.7534 71.5153C14.1756 72.5252 13.8721 73.6686 13.8721 74.8315C13.8542 77.2062 15.1123 79.4067 17.1663 80.5965L47.5098 98.7516C48.8281 99.5678 50.3467 100 51.897 100H75.3801C76.429 100.001 77.4683 99.8022 78.4432 99.4165L83.3333 97.4853V100H100V66.6666H83.3333V72.0597ZM77.2184 96.3167C76.6349 96.547 76.0124 96.6658 75.3849 96.6666H51.897C50.9578 96.6658 50.0374 96.4013 49.2415 95.9033L18.8566 77.727C17.8239 77.1305 17.1916 76.0254 17.1997 74.8331C17.2022 74.2488 17.356 73.6743 17.6465 73.1665C17.9785 72.5911 18.4782 72.1297 19.078 71.8448C19.3425 71.7163 19.6224 71.6251 19.9113 71.5747C20.1221 71.5356 20.3361 71.5153 20.5501 71.5153C21.1231 71.5136 21.6862 71.6634 22.1834 71.9482L40.542 81.8685C40.5632 81.9702 40.5632 82.0703 40.59 82.172C41.3794 85.0813 44.0186 87.102 47.0337 87.1053C47.9614 87.0206 48.8802 86.8562 49.7803 86.6154L67.0964 81.9816L66.237 78.7614L48.9771 83.3748C48.217 83.5498 47.2363 83.75 47.0337 83.7671C45.5282 83.7695 44.2082 82.7636 43.8119 81.3118C43.7581 81.11 43.7264 80.9033 43.715 80.6949C43.715 80.6949 43.702 80.2913 43.715 80.1497C43.842 78.7557 44.8185 77.5854 46.167 77.2102L65.4069 72.0629C66.3892 71.8001 67.4015 71.6666 68.418 71.6666H74.8063C75.7113 71.6666 76.5991 71.9124 77.3747 72.3771L83.3333 75.9448V93.8997L77.2184 96.3167ZM86.6667 70H96.6667V96.6666H86.6667V70Z" fill="white"/>
<path d="M68.7402 13.3331L59.7998 4.39353C56.993 1.57045 53.1738 -0.0115763 49.1935 -0.000183027H28.2397C26.9466 0.00144458 25.6714 0.303365 24.5133 0.879537L20.778 2.74803C20.0293 3.12482 19.1976 3.30467 18.3602 3.2713L16.6667 3.21189V-0.000183027H0V36.6665H16.6667V31.6665H19.5003L20.5086 32.333C23.3301 34.2064 26.6154 35.2643 30 35.388V56.6665H100V13.3331H68.7402ZM13.3333 33.3331H3.33333V3.33315H13.3333V33.3331ZM22.3535 29.5595L20.4997 28.3331H16.6667V6.54685L18.2381 6.60301C19.6338 6.65265 21.0189 6.35236 22.2681 5.7298L26.0002 3.86131C26.6951 3.51381 27.4626 3.33315 28.2397 3.33315H49.1935C52.2892 3.3242 55.2604 4.55467 57.443 6.74949L64.0267 13.3331H50.2734L46.228 9.28855L43.8721 11.6445L55.6453 23.4186C56.9531 24.7207 56.9572 26.8366 55.6551 28.1452C54.3522 29.4529 52.2363 29.457 50.9285 28.1549L41.0954 18.3218L39.9284 19.3219C36.7065 22.0579 31.9971 22.1279 28.6947 19.4879L27.7287 18.7051L25.6283 21.2946L26.6048 22.0864C27.6261 22.9026 28.7728 23.5488 30 23.9997V32.053C27.2721 31.9318 24.6281 31.07 22.3535 29.5595ZM46.062 27.9995L48.5767 30.515C51.1873 33.0866 55.3784 33.0906 57.9932 30.5231C55.5469 34.3113 56.512 39.3528 60.1847 41.9692C63.8574 44.5856 68.938 43.8507 71.7188 40.3017C74.4995 36.7519 73.9974 31.6429 70.5778 28.7034C67.159 25.764 62.0321 26.0333 58.9404 29.3146C60.0789 27.5267 60.2824 25.2985 59.4865 23.3331H81.805C82.522 27.5267 85.8065 30.8112 90 31.5281V38.4715C85.8065 39.1885 82.522 42.473 81.805 46.6665H48.195C47.478 42.473 44.1935 39.1885 40 38.4715V31.5281C42.382 31.1269 44.5361 29.8729 46.062 27.9995ZM60 34.9998C60 32.2386 62.2388 29.9998 65 29.9998C67.7612 29.9998 70 32.2386 70 34.9998C70 37.761 67.7612 39.9998 65 39.9998C62.2388 39.9998 60 37.761 60 34.9998ZM96.6667 53.3332H33.3333V24.6979C35.9757 24.8965 38.61 24.2226 40.8333 22.7814L43.6768 25.6248C42.4259 27.324 40.4435 28.3291 38.3333 28.3331H36.6667V41.6665H38.3333C42.015 41.6665 45 44.6515 45 48.3331V49.9998H85V48.3331C85 44.6515 87.985 41.6665 91.6667 41.6665H93.3333V28.3331H91.6667C87.985 28.3331 85 25.3481 85 21.6665V19.9998H56.9401L53.6068 16.6665H96.6667V53.3332Z" fill="white"/>
</g>
<defs>
<clipPath id="clip0">
<rect width="100" height="100" fill="white"/>
</clipPath>
</defs>
</svg>
