<svg width="94" height="100" viewBox="0 0 94 100" fill="none" xmlns="http://www.w3.org/2000/svg">
<path d="M70.9404 0H12.2324C9.52496 0 7.32262 2.20254 7.32262 4.90996V6.7791H4.91129C2.20407 6.7791 0.00152588 8.98164 0.00152588 11.6891V74.4461C0.00152588 75.2553 0.657385 75.9109 1.46637 75.9109C2.27535 75.9109 2.93121 75.2553 2.93121 74.4461V11.6891C2.93121 10.5971 3.81949 9.70879 4.91129 9.70879H63.6193C64.7111 9.70879 65.5994 10.5971 65.5994 11.6891V95.0902C65.5994 96.1822 64.7111 97.0705 63.6193 97.0705H4.91129C3.81949 97.0705 2.93121 96.1822 2.93121 95.0902V81.2822C2.93121 80.473 2.27535 79.8174 1.46637 79.8174C0.657385 79.8174 0.00152588 80.473 0.00152588 81.2822V95.0902C0.00152588 97.7975 2.20407 100 4.91129 100H63.6193C66.3265 100 68.5291 97.7977 68.5291 95.0902V93.2211H70.9402C73.6474 93.2211 75.85 91.0186 75.85 88.3111V23.533C75.85 22.7238 75.1941 22.0682 74.3851 22.0682C73.5761 22.0682 72.9203 22.7238 72.9203 23.533V88.3109C72.9203 89.4029 72.032 90.2912 70.9402 90.2912H69.0709V11.6891C69.0709 8.98184 66.8683 6.7791 64.1611 6.7791C63.3545 6.7791 10.6236 6.7791 10.2521 6.7791V4.90996C10.2523 3.81797 11.1404 2.92969 12.2324 2.92969H70.9404C72.0322 2.92969 72.9205 3.81797 72.9205 4.90996V16.6973C72.9205 17.5064 73.5763 18.1621 74.3853 18.1621C75.1943 18.1621 75.8502 17.5064 75.8502 16.6973V4.90996C75.8502 2.20254 73.6476 0 70.9404 0V0Z" fill="white"/>
<path d="M90.6947 29.0618H82.8796C81.058 29.0618 79.5759 30.5438 79.5759 32.3655V73.9481C79.5759 73.9764 79.5787 74.004 79.5802 74.0319C79.581 74.0471 79.5812 74.0624 79.5826 74.0776C79.5929 74.1948 79.6173 74.3077 79.6535 74.4153C79.6574 74.4266 79.6619 74.4379 79.666 74.4493C79.6824 74.4942 79.7009 74.5381 79.7214 74.5811C79.7248 74.5879 79.7269 74.5954 79.7304 74.6022L84.5371 84.2323C85.0054 85.1708 85.8466 85.7311 86.7875 85.7311C87.7283 85.7311 88.5695 85.1708 89.0376 84.2325L93.8443 74.6022C93.8486 74.5938 93.8511 74.5848 93.8552 74.5764C93.8742 74.5368 93.8912 74.4961 93.9066 74.4545C93.9119 74.4403 93.9173 74.4264 93.922 74.4122C93.9388 74.362 93.9535 74.3106 93.9648 74.2581C93.9656 74.2543 93.9669 74.2508 93.9677 74.2471C93.9791 74.1928 93.9867 74.1372 93.9917 74.0807C93.9935 74.0616 93.9937 74.0424 93.9947 74.0233C93.996 73.9983 93.9984 73.9735 93.9984 73.9481C93.9984 72.4286 93.9984 34.4409 93.9984 32.3655C93.9984 30.5438 92.5164 29.0618 90.6947 29.0618ZM86.7873 82.1809L83.4093 75.4131H90.1654L86.7873 82.1809ZM91.0687 72.4833H82.5058V41.1586H91.0687V72.4833ZM91.0687 38.229H82.5058V32.3655C82.5058 32.1592 82.6736 31.9915 82.8798 31.9915H90.6949C90.9011 31.9915 91.0689 32.1592 91.0689 32.3655V38.229H91.0687Z" fill="white"/>
<path d="M8.3707 89.1128C8.3707 90.7821 9.72871 92.1401 11.398 92.1401H19.4709C21.1402 92.1401 22.4982 90.7821 22.4982 89.1128V81.3987L25.8402 77.8435C26.3943 77.254 26.3656 76.3269 25.7762 75.7728C25.1867 75.2186 24.2598 75.2474 23.7055 75.8368L21.1689 78.5353C20.6844 78.2056 20.0998 78.0126 19.4709 78.0126H11.398C9.72871 78.0126 8.3707 79.3706 8.3707 81.0399V89.1128ZM19.5685 84.5153V89.1128C19.5685 89.1665 19.5248 89.2104 19.4709 89.2104H15.1297C15.1873 89.1653 15.243 89.1169 15.2939 89.0628L19.5685 84.5153ZM11.3004 81.0399C11.3004 80.9862 11.3441 80.9423 11.398 80.9423H18.9064L14.4318 85.7024L11.8066 81.7018C11.6736 81.4991 11.4982 81.3411 11.3006 81.23V81.0399H11.3004ZM11.3004 86.2708C13.1553 89.0974 13.0658 89.0091 13.3221 89.2104H11.398C11.3441 89.2104 11.3004 89.1665 11.3004 89.1128V86.2708Z" fill="white"/>
<path d="M58.6455 83.6115H27.5258C26.7168 83.6115 26.0609 84.2671 26.0609 85.0763C26.0609 85.8855 26.7168 86.5411 27.5258 86.5411H58.6455C59.4545 86.5411 60.1103 85.8855 60.1103 85.0763C60.1103 84.2671 59.4545 83.6115 58.6455 83.6115Z" fill="white"/>
<path d="M11.7887 47.4436H37.7572C39.6418 47.4436 41.1752 45.9102 41.1752 44.0256V18.0569C41.1752 16.1723 39.6418 14.6389 37.7572 14.6389H11.7887C9.9041 14.6389 8.3707 16.1723 8.3707 18.0569V44.0256C8.3707 45.9104 9.9041 47.4436 11.7887 47.4436ZM11.3004 18.0569C11.3004 17.7875 11.5195 17.5686 11.7887 17.5686H37.7572C38.0264 17.5686 38.2455 17.7875 38.2455 18.0569V44.0256C38.2455 44.295 38.0264 44.5139 37.7572 44.5139H11.7887C11.5195 44.5139 11.3004 44.295 11.3004 44.0256V18.0569Z" fill="white"/>
<path d="M19.0703 42.166C19.8789 42.166 20.5371 41.5097 20.5371 40.7031V37.539C20.541 35.2131 22.4314 33.315 24.7551 33.3011C24.7611 33.3011 24.767 33.3015 24.773 33.3015C24.7793 33.3015 24.7853 33.3011 24.7914 33.3011C27.1152 33.3148 29.0059 35.2129 29.0098 37.539V39.2381H25.9062C25.0996 39.2381 24.4414 39.8943 24.4414 40.7029C24.4414 41.5095 25.0996 42.1677 25.9062 42.1677C25.9082 42.1677 25.9102 42.1677 25.9102 42.1658H30.4746C30.8594 42.1658 31.2383 42.0095 31.5098 41.7382C31.7832 41.4648 31.9394 41.0879 31.9394 40.7029V37.539C31.9394 35.6228 31.1934 33.824 29.8398 32.4707C29.5846 32.2154 29.3135 31.9818 29.0287 31.7709C30.5164 30.5422 31.4662 28.6843 31.4662 26.6088C31.4662 22.9181 28.4637 19.9154 24.773 19.9154C21.0824 19.9154 18.0799 22.9179 18.0799 26.6088C18.0799 28.6842 19.0295 30.542 20.517 31.7707C20.232 31.9818 19.9605 32.2154 19.7051 32.4709C18.3516 33.8244 17.6074 35.6232 17.6074 37.5392V40.7031C17.6074 41.0881 17.7637 41.4648 18.0352 41.7384C18.3086 42.0097 18.6855 42.166 19.0703 42.166ZM24.773 22.8451C26.8482 22.8451 28.5365 24.5336 28.5365 26.6088C28.5365 28.6797 26.8551 30.3644 24.7857 30.3715C24.7816 30.3715 24.7775 30.3713 24.7734 30.3713C24.7691 30.3713 24.7648 30.3715 24.7605 30.3717C22.6912 30.3648 21.0096 28.6799 21.0096 26.609C21.0096 24.5334 22.6978 22.8451 24.773 22.8451Z" fill="white"/>
<path d="M45.6986 24.7202H58.6455C59.4545 24.7202 60.1103 24.0646 60.1103 23.2554C60.1103 22.4462 59.4545 21.7905 58.6455 21.7905H45.6986C44.8896 21.7905 44.2338 22.4462 44.2338 23.2554C44.2338 24.0646 44.8896 24.7202 45.6986 24.7202Z" fill="white"/>
<path d="M45.6986 33.0251H58.6455C59.4545 33.0251 60.1103 32.3695 60.1103 31.5603C60.1103 30.7511 59.4545 30.0955 58.6455 30.0955H45.6986C44.8896 30.0955 44.2338 30.7511 44.2338 31.5603C44.2338 32.3695 44.8896 33.0251 45.6986 33.0251Z" fill="white"/>
<path d="M45.6986 41.8831H58.6455C59.4545 41.8831 60.1103 41.2274 60.1103 40.4182C60.1103 39.609 59.4545 38.9534 58.6455 38.9534H45.6986C44.8896 38.9534 44.2338 39.609 44.2338 40.4182C44.2338 41.2274 44.8896 41.8831 45.6986 41.8831Z" fill="white"/>
<path d="M9.83554 56.0283H58.6455C59.4545 56.0283 60.1104 55.3727 60.1104 54.5635C60.1104 53.7543 59.4545 53.0986 58.6455 53.0986H9.83554C9.02656 53.0986 8.3707 53.7543 8.3707 54.5635C8.3707 55.3727 9.02656 56.0283 9.83554 56.0283Z" fill="white"/>
<path d="M9.83554 64.333H58.6455C59.4545 64.333 60.1104 63.6773 60.1104 62.8682C60.1104 62.059 59.4545 61.4033 58.6455 61.4033H9.83554C9.02656 61.4033 8.3707 62.059 8.3707 62.8682C8.3707 63.6773 9.02656 64.333 9.83554 64.333Z" fill="white"/>
<path d="M9.83554 72.6377H58.6455C59.4545 72.6377 60.1104 71.982 60.1104 71.1729C60.1104 70.3637 59.4545 69.708 58.6455 69.708H9.83554C9.02656 69.708 8.3707 70.3637 8.3707 71.1729C8.3707 71.982 9.02656 72.6377 9.83554 72.6377Z" fill="white"/>
</svg>
