<svg width="33" height="33" viewBox="0 0 33 33" fill="none" xmlns="http://www.w3.org/2000/svg">
<path d="M31.7352 24.0662L27.2353 19.5663C25.6282 17.9592 22.8961 18.6021 22.2533 20.6913C21.7712 22.1377 20.1641 22.9413 18.7177 22.6198C15.5035 21.8162 11.1643 17.6378 10.3607 14.2629C9.8786 12.8164 10.8429 11.2093 12.2893 10.7272C14.3785 10.0844 15.0213 7.35233 13.4142 5.74523L8.91434 1.24534C7.62866 0.120368 5.70014 0.120368 4.57517 1.24534L1.52167 4.29883C-1.53182 7.51304 1.84309 16.0307 9.39647 23.5841C16.9499 31.1374 25.4675 34.6731 28.6817 31.4589L31.7352 28.4054C32.8602 27.1197 32.8602 25.1912 31.7352 24.0662Z" fill="white"/>
</svg>
